<?xml version="1.0" encoding="utf-8" standalone="no"?>
<!DOCTYPE svg PUBLIC "-//W3C//DTD SVG 1.1//EN"
  "http://www.w3.org/Graphics/SVG/1.1/DTD/svg11.dtd">
<!-- Created with matplotlib (https://matplotlib.org/) -->
<svg height="201.6pt" version="1.1" viewBox="0 0 720 201.6" width="720pt" xmlns="http://www.w3.org/2000/svg" xmlns:xlink="http://www.w3.org/1999/xlink">
 <metadata>
  <rdf:RDF xmlns:cc="http://creativecommons.org/ns#" xmlns:dc="http://purl.org/dc/elements/1.1/" xmlns:rdf="http://www.w3.org/1999/02/22-rdf-syntax-ns#">
   <cc:Work>
    <dc:type rdf:resource="http://purl.org/dc/dcmitype/StillImage"/>
    <dc:date>2021-01-22T11:14:22.072671</dc:date>
    <dc:format>image/svg+xml</dc:format>
    <dc:creator>
     <cc:Agent>
      <dc:title>Matplotlib v3.3.3, https://matplotlib.org/</dc:title>
     </cc:Agent>
    </dc:creator>
   </cc:Work>
  </rdf:RDF>
 </metadata>
 <defs>
  <style type="text/css">*{stroke-linecap:butt;stroke-linejoin:round;}</style>
 </defs>
 <g id="figure_1">
  <g id="patch_1">
   <path d="M 0 201.6 
L 720 201.6 
L 720 0 
L 0 0 
z
" style="fill:#ffffff;"/>
  </g>
  <g id="axes_1">
   <g id="patch_2">
    <path d="M 90 179.424 
L 211.304348 179.424 
L 211.304348 24.192 
L 90 24.192 
z
" style="fill:#ffffff;"/>
   </g>
   <g id="matplotlib.axis_1">
    <g id="xtick_1">
     <g id="line2d_1">
      <defs>
       <path d="M 0 0 
L 0 3.5 
" id="m374f4ec51e" style="stroke:#000000;stroke-width:0.8;"/>
      </defs>
      <g>
       <use style="stroke:#000000;stroke-width:0.8;" x="107.891829" xlink:href="#m374f4ec51e" y="179.424"/>
      </g>
     </g>
     <g id="text_1">
      <!-- −2 -->
      <g transform="translate(100.520735 194.022437)scale(0.1 -0.1)">
       <defs>
        <path d="M 10.59375 35.5 
L 73.1875 35.5 
L 73.1875 27.203125 
L 10.59375 27.203125 
z
" id="DejaVuSans-8722"/>
        <path d="M 19.1875 8.296875 
L 53.609375 8.296875 
L 53.609375 0 
L 7.328125 0 
L 7.328125 8.296875 
Q 12.9375 14.109375 22.625 23.890625 
Q 32.328125 33.6875 34.8125 36.53125 
Q 39.546875 41.84375 41.421875 45.53125 
Q 43.3125 49.21875 43.3125 52.78125 
Q 43.3125 58.59375 39.234375 62.25 
Q 35.15625 65.921875 28.609375 65.921875 
Q 23.96875 65.921875 18.8125 64.3125 
Q 13.671875 62.703125 7.8125 59.421875 
L 7.8125 69.390625 
Q 13.765625 71.78125 18.9375 73 
Q 24.125 74.21875 28.421875 74.21875 
Q 39.75 74.21875 46.484375 68.546875 
Q 53.21875 62.890625 53.21875 53.421875 
Q 53.21875 48.921875 51.53125 44.890625 
Q 49.859375 40.875 45.40625 35.40625 
Q 44.1875 33.984375 37.640625 27.21875 
Q 31.109375 20.453125 19.1875 8.296875 
z
" id="DejaVuSans-50"/>
       </defs>
       <use xlink:href="#DejaVuSans-8722"/>
       <use x="83.789062" xlink:href="#DejaVuSans-50"/>
      </g>
     </g>
    </g>
    <g id="xtick_2">
     <g id="line2d_2">
      <g>
       <use style="stroke:#000000;stroke-width:0.8;" x="152.902718" xlink:href="#m374f4ec51e" y="179.424"/>
      </g>
     </g>
     <g id="text_2">
      <!-- 0 -->
      <g transform="translate(149.721468 194.022437)scale(0.1 -0.1)">
       <defs>
        <path d="M 31.78125 66.40625 
Q 24.171875 66.40625 20.328125 58.90625 
Q 16.5 51.421875 16.5 36.375 
Q 16.5 21.390625 20.328125 13.890625 
Q 24.171875 6.390625 31.78125 6.390625 
Q 39.453125 6.390625 43.28125 13.890625 
Q 47.125 21.390625 47.125 36.375 
Q 47.125 51.421875 43.28125 58.90625 
Q 39.453125 66.40625 31.78125 66.40625 
z
M 31.78125 74.21875 
Q 44.046875 74.21875 50.515625 64.515625 
Q 56.984375 54.828125 56.984375 36.375 
Q 56.984375 17.96875 50.515625 8.265625 
Q 44.046875 -1.421875 31.78125 -1.421875 
Q 19.53125 -1.421875 13.0625 8.265625 
Q 6.59375 17.96875 6.59375 36.375 
Q 6.59375 54.828125 13.0625 64.515625 
Q 19.53125 74.21875 31.78125 74.21875 
z
" id="DejaVuSans-48"/>
       </defs>
       <use xlink:href="#DejaVuSans-48"/>
      </g>
     </g>
    </g>
    <g id="xtick_3">
     <g id="line2d_3">
      <g>
       <use style="stroke:#000000;stroke-width:0.8;" x="197.913608" xlink:href="#m374f4ec51e" y="179.424"/>
      </g>
     </g>
     <g id="text_3">
      <!-- 2 -->
      <g transform="translate(194.732358 194.022437)scale(0.1 -0.1)">
       <use xlink:href="#DejaVuSans-50"/>
      </g>
     </g>
    </g>
   </g>
   <g id="matplotlib.axis_2">
    <g id="ytick_1">
     <g id="line2d_4">
      <defs>
       <path d="M 0 0 
L -3.5 0 
" id="m4792589139" style="stroke:#000000;stroke-width:0.8;"/>
      </defs>
      <g>
       <use style="stroke:#000000;stroke-width:0.8;" x="90" xlink:href="#m4792589139" y="172.812272"/>
      </g>
     </g>
     <g id="text_4">
      <!-- −0.5 -->
      <g transform="translate(58.717187 176.611491)scale(0.1 -0.1)">
       <defs>
        <path d="M 10.6875 12.40625 
L 21 12.40625 
L 21 0 
L 10.6875 0 
z
" id="DejaVuSans-46"/>
        <path d="M 10.796875 72.90625 
L 49.515625 72.90625 
L 49.515625 64.59375 
L 19.828125 64.59375 
L 19.828125 46.734375 
Q 21.96875 47.46875 24.109375 47.828125 
Q 26.265625 48.1875 28.421875 48.1875 
Q 40.625 48.1875 47.75 41.5 
Q 54.890625 34.8125 54.890625 23.390625 
Q 54.890625 11.625 47.5625 5.09375 
Q 40.234375 -1.421875 26.90625 -1.421875 
Q 22.3125 -1.421875 17.546875 -0.640625 
Q 12.796875 0.140625 7.71875 1.703125 
L 7.71875 11.625 
Q 12.109375 9.234375 16.796875 8.0625 
Q 21.484375 6.890625 26.703125 6.890625 
Q 35.15625 6.890625 40.078125 11.328125 
Q 45.015625 15.765625 45.015625 23.390625 
Q 45.015625 31 40.078125 35.4375 
Q 35.15625 39.890625 26.703125 39.890625 
Q 22.75 39.890625 18.8125 39.015625 
Q 14.890625 38.140625 10.796875 36.28125 
z
" id="DejaVuSans-53"/>
       </defs>
       <use xlink:href="#DejaVuSans-8722"/>
       <use x="83.789062" xlink:href="#DejaVuSans-48"/>
       <use x="147.412109" xlink:href="#DejaVuSans-46"/>
       <use x="179.199219" xlink:href="#DejaVuSans-53"/>
      </g>
     </g>
    </g>
    <g id="ytick_2">
     <g id="line2d_5">
      <g>
       <use style="stroke:#000000;stroke-width:0.8;" x="90" xlink:href="#m4792589139" y="140.132152"/>
      </g>
     </g>
     <g id="text_5">
      <!-- 0.0 -->
      <g transform="translate(67.096875 143.931371)scale(0.1 -0.1)">
       <use xlink:href="#DejaVuSans-48"/>
       <use x="63.623047" xlink:href="#DejaVuSans-46"/>
       <use x="95.410156" xlink:href="#DejaVuSans-48"/>
      </g>
     </g>
    </g>
    <g id="ytick_3">
     <g id="line2d_6">
      <g>
       <use style="stroke:#000000;stroke-width:0.8;" x="90" xlink:href="#m4792589139" y="107.452033"/>
      </g>
     </g>
     <g id="text_6">
      <!-- 0.5 -->
      <g transform="translate(67.096875 111.251251)scale(0.1 -0.1)">
       <use xlink:href="#DejaVuSans-48"/>
       <use x="63.623047" xlink:href="#DejaVuSans-46"/>
       <use x="95.410156" xlink:href="#DejaVuSans-53"/>
      </g>
     </g>
    </g>
    <g id="ytick_4">
     <g id="line2d_7">
      <g>
       <use style="stroke:#000000;stroke-width:0.8;" x="90" xlink:href="#m4792589139" y="74.771913"/>
      </g>
     </g>
     <g id="text_7">
      <!-- 1.0 -->
      <g transform="translate(67.096875 78.571132)scale(0.1 -0.1)">
       <defs>
        <path d="M 12.40625 8.296875 
L 28.515625 8.296875 
L 28.515625 63.921875 
L 10.984375 60.40625 
L 10.984375 69.390625 
L 28.421875 72.90625 
L 38.28125 72.90625 
L 38.28125 8.296875 
L 54.390625 8.296875 
L 54.390625 0 
L 12.40625 0 
z
" id="DejaVuSans-49"/>
       </defs>
       <use xlink:href="#DejaVuSans-49"/>
       <use x="63.623047" xlink:href="#DejaVuSans-46"/>
       <use x="95.410156" xlink:href="#DejaVuSans-48"/>
      </g>
     </g>
    </g>
    <g id="ytick_5">
     <g id="line2d_8">
      <g>
       <use style="stroke:#000000;stroke-width:0.8;" x="90" xlink:href="#m4792589139" y="42.091793"/>
      </g>
     </g>
     <g id="text_8">
      <!-- 1.5 -->
      <g transform="translate(67.096875 45.891012)scale(0.1 -0.1)">
       <use xlink:href="#DejaVuSans-49"/>
       <use x="63.623047" xlink:href="#DejaVuSans-46"/>
       <use x="95.410156" xlink:href="#DejaVuSans-53"/>
      </g>
     </g>
    </g>
   </g>
   <g id="line2d_9">
    <path clip-path="url(#p44fe8464f3)" d="M 96.639106 172.368 
L 98.889649 170.963178 
L 101.140196 169.58296 
L 103.390739 168.226609 
L 105.641286 166.892899 
L 107.891829 165.579998 
L 110.142374 164.285341 
L 112.392919 163.00554 
L 114.643461 161.736254 
L 116.894006 160.472118 
L 119.144551 159.206738 
L 121.395096 157.932713 
L 123.645641 156.641813 
L 125.896183 155.32522 
L 128.146729 153.973789 
L 130.397274 152.578188 
L 132.647819 151.128418 
L 134.898362 149.612062 
L 137.148907 148.010013 
L 139.399451 146.287963 
L 141.649996 144.381651 
L 143.90054 142.174027 
L 146.151085 139.464342 
L 148.401629 135.934277 
L 150.652174 131.127177 
L 152.902718 124.474517 
L 155.153263 119.519122 
L 157.403807 114.3942 
L 159.654352 109.068827 
L 161.904896 103.567373 
L 164.155441 97.958893 
L 166.405986 92.337599 
L 168.65653 86.802904 
L 170.907075 81.443757 
L 173.157618 76.329128 
L 175.408163 71.504371 
L 177.658708 66.992076 
L 179.909253 62.795696 
L 182.159796 58.90427 
L 184.410341 55.297204 
L 186.660886 51.948311 
L 188.911431 48.828981 
L 191.161976 45.910454 
L 193.412518 43.165344 
L 195.663063 40.568351 
L 197.913608 38.096809 
L 200.16415 35.730758 
L 202.414698 33.45279 
L 204.665241 31.248 
" style="fill:none;stroke:#1f77b4;stroke-linecap:square;stroke-width:1.5;"/>
   </g>
   <g id="patch_3">
    <path d="M 90 179.424 
L 90 24.192 
" style="fill:none;stroke:#000000;stroke-linecap:square;stroke-linejoin:miter;stroke-width:0.8;"/>
   </g>
   <g id="patch_4">
    <path d="M 211.304348 179.424 
L 211.304348 24.192 
" style="fill:none;stroke:#000000;stroke-linecap:square;stroke-linejoin:miter;stroke-width:0.8;"/>
   </g>
   <g id="patch_5">
    <path d="M 90 179.424 
L 211.304348 179.424 
" style="fill:none;stroke:#000000;stroke-linecap:square;stroke-linejoin:miter;stroke-width:0.8;"/>
   </g>
   <g id="patch_6">
    <path d="M 90 24.192 
L 211.304348 24.192 
" style="fill:none;stroke:#000000;stroke-linecap:square;stroke-linejoin:miter;stroke-width:0.8;"/>
   </g>
  </g>
  <g id="axes_2">
   <g id="patch_7">
    <path d="M 235.565217 179.424 
L 356.869565 179.424 
L 356.869565 24.192 
L 235.565217 24.192 
z
" style="fill:#ffffff;"/>
   </g>
   <g id="matplotlib.axis_3">
    <g id="xtick_4">
     <g id="line2d_10">
      <g>
       <use style="stroke:#000000;stroke-width:0.8;" x="249.656126" xlink:href="#m374f4ec51e" y="179.424"/>
      </g>
     </g>
     <g id="text_9">
      <!-- −2 -->
      <g transform="translate(242.285033 194.022437)scale(0.1 -0.1)">
       <use xlink:href="#DejaVuSans-8722"/>
       <use x="83.789062" xlink:href="#DejaVuSans-50"/>
      </g>
     </g>
    </g>
    <g id="xtick_5">
     <g id="line2d_11">
      <g>
       <use style="stroke:#000000;stroke-width:0.8;" x="298.667984" xlink:href="#m374f4ec51e" y="179.424"/>
      </g>
     </g>
     <g id="text_10">
      <!-- 0 -->
      <g transform="translate(295.486734 194.022437)scale(0.1 -0.1)">
       <use xlink:href="#DejaVuSans-48"/>
      </g>
     </g>
    </g>
    <g id="xtick_6">
     <g id="line2d_12">
      <g>
       <use style="stroke:#000000;stroke-width:0.8;" x="347.679842" xlink:href="#m374f4ec51e" y="179.424"/>
      </g>
     </g>
     <g id="text_11">
      <!-- 2 -->
      <g transform="translate(344.498592 194.022437)scale(0.1 -0.1)">
       <use xlink:href="#DejaVuSans-50"/>
      </g>
     </g>
    </g>
   </g>
   <g id="matplotlib.axis_4">
    <g id="ytick_6">
     <g id="line2d_13">
      <g>
       <use style="stroke:#000000;stroke-width:0.8;" x="235.565217" xlink:href="#m4792589139" y="164.962912"/>
      </g>
     </g>
     <g id="text_12">
      <!-- 0.0 -->
      <g transform="translate(212.662092 168.762131)scale(0.1 -0.1)">
       <use xlink:href="#DejaVuSans-48"/>
       <use x="63.623047" xlink:href="#DejaVuSans-46"/>
       <use x="95.410156" xlink:href="#DejaVuSans-48"/>
      </g>
     </g>
    </g>
    <g id="ytick_7">
     <g id="line2d_14">
      <g>
       <use style="stroke:#000000;stroke-width:0.8;" x="235.565217" xlink:href="#m4792589139" y="129.286794"/>
      </g>
     </g>
     <g id="text_13">
      <!-- 0.5 -->
      <g transform="translate(212.662092 133.086013)scale(0.1 -0.1)">
       <use xlink:href="#DejaVuSans-48"/>
       <use x="63.623047" xlink:href="#DejaVuSans-46"/>
       <use x="95.410156" xlink:href="#DejaVuSans-53"/>
      </g>
     </g>
    </g>
    <g id="ytick_8">
     <g id="line2d_15">
      <g>
       <use style="stroke:#000000;stroke-width:0.8;" x="235.565217" xlink:href="#m4792589139" y="93.610676"/>
      </g>
     </g>
     <g id="text_14">
      <!-- 1.0 -->
      <g transform="translate(212.662092 97.409895)scale(0.1 -0.1)">
       <use xlink:href="#DejaVuSans-49"/>
       <use x="63.623047" xlink:href="#DejaVuSans-46"/>
       <use x="95.410156" xlink:href="#DejaVuSans-48"/>
      </g>
     </g>
    </g>
    <g id="ytick_9">
     <g id="line2d_16">
      <g>
       <use style="stroke:#000000;stroke-width:0.8;" x="235.565217" xlink:href="#m4792589139" y="57.934558"/>
      </g>
     </g>
     <g id="text_15">
      <!-- 1.5 -->
      <g transform="translate(212.662092 61.733777)scale(0.1 -0.1)">
       <use xlink:href="#DejaVuSans-49"/>
       <use x="63.623047" xlink:href="#DejaVuSans-46"/>
       <use x="95.410156" xlink:href="#DejaVuSans-53"/>
      </g>
     </g>
    </g>
   </g>
   <g id="line2d_17">
    <path clip-path="url(#p0697a2c6eb)" d="M 242.304349 107.028726 
L 244.75494 109.770539 
L 247.205536 112.707328 
L 249.656126 115.846956 
L 252.10672 119.195722 
L 254.557313 122.757466 
L 257.007904 126.532404 
L 259.458497 130.515634 
L 261.909091 134.695015 
L 264.359684 139.048593 
L 266.810278 143.541228 
L 269.260868 148.120417 
L 271.711462 152.711436 
L 274.162055 157.21184 
L 276.612649 161.486144 
L 279.063241 165.361903 
L 281.513834 168.629512 
L 283.964426 171.049037 
L 286.41502 172.368 
L 288.865613 172.352236 
L 291.316205 170.826351 
L 293.766798 167.710354 
L 296.217391 163.030977 
L 298.667984 156.89202 
L 301.118577 150.373322 
L 303.56917 143.561778 
L 306.019763 136.563033 
L 308.470356 129.421818 
L 310.920949 122.171744 
L 313.371542 114.862643 
L 315.822134 107.563654 
L 318.272728 100.353029 
L 320.72332 93.305809 
L 323.173913 86.485071 
L 325.624507 79.938008 
L 328.0751 73.695514 
L 330.525691 67.77409 
L 332.976284 62.178628 
L 335.426877 56.905155 
L 337.877471 51.943488 
L 340.328064 47.279314 
L 342.778655 42.895842 
L 345.229248 38.77503 
L 347.679842 34.898472 
L 350.130432 31.248 
" style="fill:none;stroke:#1f77b4;stroke-linecap:square;stroke-width:1.5;"/>
   </g>
   <g id="patch_8">
    <path d="M 235.565217 179.424 
L 235.565217 24.192 
" style="fill:none;stroke:#000000;stroke-linecap:square;stroke-linejoin:miter;stroke-width:0.8;"/>
   </g>
   <g id="patch_9">
    <path d="M 356.869565 179.424 
L 356.869565 24.192 
" style="fill:none;stroke:#000000;stroke-linecap:square;stroke-linejoin:miter;stroke-width:0.8;"/>
   </g>
   <g id="patch_10">
    <path d="M 235.565217 179.424 
L 356.869565 179.424 
" style="fill:none;stroke:#000000;stroke-linecap:square;stroke-linejoin:miter;stroke-width:0.8;"/>
   </g>
   <g id="patch_11">
    <path d="M 235.565217 24.192 
L 356.869565 24.192 
" style="fill:none;stroke:#000000;stroke-linecap:square;stroke-linejoin:miter;stroke-width:0.8;"/>
   </g>
  </g>
  <g id="axes_3">
   <g id="patch_12">
    <path d="M 381.130435 179.424 
L 502.434783 179.424 
L 502.434783 24.192 
L 381.130435 24.192 
z
" style="fill:#ffffff;"/>
   </g>
   <g id="matplotlib.axis_5">
    <g id="xtick_7">
     <g id="line2d_18">
      <g>
       <use style="stroke:#000000;stroke-width:0.8;" x="409.766798" xlink:href="#m374f4ec51e" y="179.424"/>
      </g>
     </g>
     <g id="text_16">
      <!-- −1 -->
      <g transform="translate(402.395705 194.022437)scale(0.1 -0.1)">
       <use xlink:href="#DejaVuSans-8722"/>
       <use x="83.789062" xlink:href="#DejaVuSans-49"/>
      </g>
     </g>
    </g>
    <g id="xtick_8">
     <g id="line2d_19">
      <g>
       <use style="stroke:#000000;stroke-width:0.8;" x="445.339921" xlink:href="#m374f4ec51e" y="179.424"/>
      </g>
     </g>
     <g id="text_17">
      <!-- 0 -->
      <g transform="translate(442.158671 194.022437)scale(0.1 -0.1)">
       <use xlink:href="#DejaVuSans-48"/>
      </g>
     </g>
    </g>
    <g id="xtick_9">
     <g id="line2d_20">
      <g>
       <use style="stroke:#000000;stroke-width:0.8;" x="480.913043" xlink:href="#m374f4ec51e" y="179.424"/>
      </g>
     </g>
     <g id="text_18">
      <!-- 1 -->
      <g transform="translate(477.731793 194.022437)scale(0.1 -0.1)">
       <use xlink:href="#DejaVuSans-49"/>
      </g>
     </g>
    </g>
   </g>
   <g id="matplotlib.axis_6">
    <g id="ytick_10">
     <g id="line2d_21">
      <g>
       <use style="stroke:#000000;stroke-width:0.8;" x="381.130435" xlink:href="#m4792589139" y="168.233185"/>
      </g>
     </g>
     <g id="text_19">
      <!-- 0.0 -->
      <g transform="translate(358.22731 172.032404)scale(0.1 -0.1)">
       <use xlink:href="#DejaVuSans-48"/>
       <use x="63.623047" xlink:href="#DejaVuSans-46"/>
       <use x="95.410156" xlink:href="#DejaVuSans-48"/>
      </g>
     </g>
    </g>
    <g id="ytick_11">
     <g id="line2d_22">
      <g>
       <use style="stroke:#000000;stroke-width:0.8;" x="381.130435" xlink:href="#m4792589139" y="124.470082"/>
      </g>
     </g>
     <g id="text_20">
      <!-- 0.5 -->
      <g transform="translate(358.22731 128.269301)scale(0.1 -0.1)">
       <use xlink:href="#DejaVuSans-48"/>
       <use x="63.623047" xlink:href="#DejaVuSans-46"/>
       <use x="95.410156" xlink:href="#DejaVuSans-53"/>
      </g>
     </g>
    </g>
    <g id="ytick_12">
     <g id="line2d_23">
      <g>
       <use style="stroke:#000000;stroke-width:0.8;" x="381.130435" xlink:href="#m4792589139" y="80.706979"/>
      </g>
     </g>
     <g id="text_21">
      <!-- 1.0 -->
      <g transform="translate(358.22731 84.506198)scale(0.1 -0.1)">
       <use xlink:href="#DejaVuSans-49"/>
       <use x="63.623047" xlink:href="#DejaVuSans-46"/>
       <use x="95.410156" xlink:href="#DejaVuSans-48"/>
      </g>
     </g>
    </g>
    <g id="ytick_13">
     <g id="line2d_24">
      <g>
       <use style="stroke:#000000;stroke-width:0.8;" x="381.130435" xlink:href="#m4792589139" y="36.943876"/>
      </g>
     </g>
     <g id="text_22">
      <!-- 1.5 -->
      <g transform="translate(358.22731 40.743094)scale(0.1 -0.1)">
       <use xlink:href="#DejaVuSans-49"/>
       <use x="63.623047" xlink:href="#DejaVuSans-46"/>
       <use x="95.410156" xlink:href="#DejaVuSans-53"/>
      </g>
     </g>
    </g>
   </g>
   <g id="line2d_25">
    <path clip-path="url(#pdc758e25f4)" d="M 388.422924 102.536929 
L 391.980237 111.604516 
L 395.53755 120.384914 
L 399.094863 128.792296 
L 402.652172 136.733391 
L 406.209485 144.109534 
L 409.766798 150.819779 
L 413.324112 156.765338 
L 416.881423 161.855001 
L 420.438736 166.011071 
L 423.996047 169.174023 
L 427.55336 171.303066 
L 431.110672 172.368 
L 434.667984 172.327766 
L 438.225296 171.09501 
L 441.782609 168.497482 
L 445.339921 164.263256 
L 448.897233 158.850319 
L 452.454546 152.299203 
L 456.011858 144.648565 
L 459.56917 135.986842 
L 463.126482 126.456484 
L 466.683795 116.239313 
L 470.241106 105.535382 
L 473.798419 94.543861 
L 477.35573 83.449664 
L 480.913043 72.415588 
L 484.470357 61.578985 
L 488.02767 51.051247 
L 491.584979 40.91931 
L 495.142292 31.248 
" style="fill:none;stroke:#1f77b4;stroke-linecap:square;stroke-width:1.5;"/>
   </g>
   <g id="patch_13">
    <path d="M 381.130435 179.424 
L 381.130435 24.192 
" style="fill:none;stroke:#000000;stroke-linecap:square;stroke-linejoin:miter;stroke-width:0.8;"/>
   </g>
   <g id="patch_14">
    <path d="M 502.434783 179.424 
L 502.434783 24.192 
" style="fill:none;stroke:#000000;stroke-linecap:square;stroke-linejoin:miter;stroke-width:0.8;"/>
   </g>
   <g id="patch_15">
    <path d="M 381.130435 179.424 
L 502.434783 179.424 
" style="fill:none;stroke:#000000;stroke-linecap:square;stroke-linejoin:miter;stroke-width:0.8;"/>
   </g>
   <g id="patch_16">
    <path d="M 381.130435 24.192 
L 502.434783 24.192 
" style="fill:none;stroke:#000000;stroke-linecap:square;stroke-linejoin:miter;stroke-width:0.8;"/>
   </g>
  </g>
  <g id="axes_4">
   <g id="patch_17">
    <path d="M 526.695652 179.424 
L 648 179.424 
L 648 24.192 
L 526.695652 24.192 
z
" style="fill:#ffffff;"/>
   </g>
   <g id="matplotlib.axis_7">
    <g id="xtick_10">
     <g id="line2d_26">
      <g>
       <use style="stroke:#000000;stroke-width:0.8;" x="530.719261" xlink:href="#m374f4ec51e" y="179.424"/>
      </g>
     </g>
     <g id="text_23">
      <!-- −2 -->
      <g transform="translate(523.348167 194.022437)scale(0.1 -0.1)">
       <use xlink:href="#DejaVuSans-8722"/>
       <use x="83.789062" xlink:href="#DejaVuSans-50"/>
      </g>
     </g>
    </g>
    <g id="xtick_11">
     <g id="line2d_27">
      <g>
       <use style="stroke:#000000;stroke-width:0.8;" x="590.328277" xlink:href="#m374f4ec51e" y="179.424"/>
      </g>
     </g>
     <g id="text_24">
      <!-- 0 -->
      <g transform="translate(587.147027 194.022437)scale(0.1 -0.1)">
       <use xlink:href="#DejaVuSans-48"/>
      </g>
     </g>
    </g>
   </g>
   <g id="matplotlib.axis_8">
    <g id="ytick_14">
     <g id="line2d_28">
      <g>
       <use style="stroke:#000000;stroke-width:0.8;" x="526.695652" xlink:href="#m4792589139" y="178.485627"/>
      </g>
     </g>
     <g id="text_25">
      <!-- −2 -->
      <g transform="translate(504.953465 182.284846)scale(0.1 -0.1)">
       <use xlink:href="#DejaVuSans-8722"/>
       <use x="83.789062" xlink:href="#DejaVuSans-50"/>
      </g>
     </g>
    </g>
    <g id="ytick_15">
     <g id="line2d_29">
      <g>
       <use style="stroke:#000000;stroke-width:0.8;" x="526.695652" xlink:href="#m4792589139" y="148.618663"/>
      </g>
     </g>
     <g id="text_26">
      <!-- 0 -->
      <g transform="translate(513.333152 152.417881)scale(0.1 -0.1)">
       <use xlink:href="#DejaVuSans-48"/>
      </g>
     </g>
    </g>
    <g id="ytick_16">
     <g id="line2d_30">
      <g>
       <use style="stroke:#000000;stroke-width:0.8;" x="526.695652" xlink:href="#m4792589139" y="118.751699"/>
      </g>
     </g>
     <g id="text_27">
      <!-- 2 -->
      <g transform="translate(513.333152 122.550917)scale(0.1 -0.1)">
       <use xlink:href="#DejaVuSans-50"/>
      </g>
     </g>
    </g>
    <g id="ytick_17">
     <g id="line2d_31">
      <g>
       <use style="stroke:#000000;stroke-width:0.8;" x="526.695652" xlink:href="#m4792589139" y="88.884734"/>
      </g>
     </g>
     <g id="text_28">
      <!-- 4 -->
      <g transform="translate(513.333152 92.683953)scale(0.1 -0.1)">
       <defs>
        <path d="M 37.796875 64.3125 
L 12.890625 25.390625 
L 37.796875 25.390625 
z
M 35.203125 72.90625 
L 47.609375 72.90625 
L 47.609375 25.390625 
L 58.015625 25.390625 
L 58.015625 17.1875 
L 47.609375 17.1875 
L 47.609375 0 
L 37.796875 0 
L 37.796875 17.1875 
L 4.890625 17.1875 
L 4.890625 26.703125 
z
" id="DejaVuSans-52"/>
       </defs>
       <use xlink:href="#DejaVuSans-52"/>
      </g>
     </g>
    </g>
    <g id="ytick_18">
     <g id="line2d_32">
      <g>
       <use style="stroke:#000000;stroke-width:0.8;" x="526.695652" xlink:href="#m4792589139" y="59.01777"/>
      </g>
     </g>
     <g id="text_29">
      <!-- 6 -->
      <g transform="translate(513.333152 62.816989)scale(0.1 -0.1)">
       <defs>
        <path d="M 33.015625 40.375 
Q 26.375 40.375 22.484375 35.828125 
Q 18.609375 31.296875 18.609375 23.390625 
Q 18.609375 15.53125 22.484375 10.953125 
Q 26.375 6.390625 33.015625 6.390625 
Q 39.65625 6.390625 43.53125 10.953125 
Q 47.40625 15.53125 47.40625 23.390625 
Q 47.40625 31.296875 43.53125 35.828125 
Q 39.65625 40.375 33.015625 40.375 
z
M 52.59375 71.296875 
L 52.59375 62.3125 
Q 48.875 64.0625 45.09375 64.984375 
Q 41.3125 65.921875 37.59375 65.921875 
Q 27.828125 65.921875 22.671875 59.328125 
Q 17.53125 52.734375 16.796875 39.40625 
Q 19.671875 43.65625 24.015625 45.921875 
Q 28.375 48.1875 33.59375 48.1875 
Q 44.578125 48.1875 50.953125 41.515625 
Q 57.328125 34.859375 57.328125 23.390625 
Q 57.328125 12.15625 50.6875 5.359375 
Q 44.046875 -1.421875 33.015625 -1.421875 
Q 20.359375 -1.421875 13.671875 8.265625 
Q 6.984375 17.96875 6.984375 36.375 
Q 6.984375 53.65625 15.1875 63.9375 
Q 23.390625 74.21875 37.203125 74.21875 
Q 40.921875 74.21875 44.703125 73.484375 
Q 48.484375 72.75 52.59375 71.296875 
z
" id="DejaVuSans-54"/>
       </defs>
       <use xlink:href="#DejaVuSans-54"/>
      </g>
     </g>
    </g>
    <g id="ytick_19">
     <g id="line2d_33">
      <g>
       <use style="stroke:#000000;stroke-width:0.8;" x="526.695652" xlink:href="#m4792589139" y="29.150806"/>
      </g>
     </g>
     <g id="text_30">
      <!-- 8 -->
      <g transform="translate(513.333152 32.950025)scale(0.1 -0.1)">
       <defs>
        <path d="M 31.78125 34.625 
Q 24.75 34.625 20.71875 30.859375 
Q 16.703125 27.09375 16.703125 20.515625 
Q 16.703125 13.921875 20.71875 10.15625 
Q 24.75 6.390625 31.78125 6.390625 
Q 38.8125 6.390625 42.859375 10.171875 
Q 46.921875 13.96875 46.921875 20.515625 
Q 46.921875 27.09375 42.890625 30.859375 
Q 38.875 34.625 31.78125 34.625 
z
M 21.921875 38.8125 
Q 15.578125 40.375 12.03125 44.71875 
Q 8.5 49.078125 8.5 55.328125 
Q 8.5 64.0625 14.71875 69.140625 
Q 20.953125 74.21875 31.78125 74.21875 
Q 42.671875 74.21875 48.875 69.140625 
Q 55.078125 64.0625 55.078125 55.328125 
Q 55.078125 49.078125 51.53125 44.71875 
Q 48 40.375 41.703125 38.8125 
Q 48.828125 37.15625 52.796875 32.3125 
Q 56.78125 27.484375 56.78125 20.515625 
Q 56.78125 9.90625 50.3125 4.234375 
Q 43.84375 -1.421875 31.78125 -1.421875 
Q 19.734375 -1.421875 13.25 4.234375 
Q 6.78125 9.90625 6.78125 20.515625 
Q 6.78125 27.484375 10.78125 32.3125 
Q 14.796875 37.15625 21.921875 38.8125 
z
M 18.3125 54.390625 
Q 18.3125 48.734375 21.84375 45.5625 
Q 25.390625 42.390625 31.78125 42.390625 
Q 38.140625 42.390625 41.71875 45.5625 
Q 45.3125 48.734375 45.3125 54.390625 
Q 45.3125 60.0625 41.71875 63.234375 
Q 38.140625 66.40625 31.78125 66.40625 
Q 25.390625 66.40625 21.84375 63.234375 
Q 18.3125 60.0625 18.3125 54.390625 
z
" id="DejaVuSans-56"/>
       </defs>
       <use xlink:href="#DejaVuSans-56"/>
      </g>
     </g>
    </g>
   </g>
   <g id="line2d_34">
    <path clip-path="url(#p3c97a07717)" d="M 533.699712 172.368 
L 536.680164 172.109538 
L 539.660612 171.968289 
L 542.641063 171.926091 
L 545.621515 171.957507 
L 548.601966 172.029078 
L 551.582418 172.099023 
L 554.562866 172.117838 
L 557.543317 172.030093 
L 560.523769 171.777599 
L 563.50422 171.303933 
L 566.48467 170.55986 
L 569.465122 169.508494 
L 572.445571 168.128831 
L 575.426023 166.41605 
L 578.406473 164.377617 
L 581.386924 162.02533 
L 584.367375 159.364919 
L 587.347826 156.385843 
L 590.328277 153.0545 
L 593.308728 149.313366 
L 596.289179 145.087588 
L 599.26963 140.298222 
L 602.25008 134.878708 
L 605.230531 128.790916 
L 608.210982 122.036809 
L 611.191432 114.662874 
L 614.171884 106.756414 
L 617.152333 98.435229 
L 620.132785 89.833511 
L 623.113236 81.087529 
L 626.093688 72.323557 
L 629.074136 63.649869 
L 632.054587 55.1525 
L 635.035039 46.89467 
L 638.015491 38.91849 
L 640.995942 31.248 
" style="fill:none;stroke:#1f77b4;stroke-linecap:square;stroke-width:1.5;"/>
   </g>
   <g id="patch_18">
    <path d="M 526.695652 179.424 
L 526.695652 24.192 
" style="fill:none;stroke:#000000;stroke-linecap:square;stroke-linejoin:miter;stroke-width:0.8;"/>
   </g>
   <g id="patch_19">
    <path d="M 648 179.424 
L 648 24.192 
" style="fill:none;stroke:#000000;stroke-linecap:square;stroke-linejoin:miter;stroke-width:0.8;"/>
   </g>
   <g id="patch_20">
    <path d="M 526.695652 179.424 
L 648 179.424 
" style="fill:none;stroke:#000000;stroke-linecap:square;stroke-linejoin:miter;stroke-width:0.8;"/>
   </g>
   <g id="patch_21">
    <path d="M 526.695652 24.192 
L 648 24.192 
" style="fill:none;stroke:#000000;stroke-linecap:square;stroke-linejoin:miter;stroke-width:0.8;"/>
   </g>
  </g>
  <g id="axes_5">
   <g id="patch_22">
    <path clip-path="url(#p44fe8464f3)" d="M 95.513834 179.424 
L 97.764378 179.424 
L 97.764378 177.011744 
L 95.513834 177.011744 
z
" style="fill:#808080;fill-opacity:0.25;stroke:#808080;stroke-linejoin:miter;stroke-opacity:0.25;"/>
   </g>
   <g id="patch_23">
    <path clip-path="url(#p44fe8464f3)" d="M 97.764378 179.424 
L 100.014923 179.424 
L 100.014923 176.714477 
L 97.764378 176.714477 
z
" style="fill:#808080;fill-opacity:0.25;stroke:#808080;stroke-linejoin:miter;stroke-opacity:0.25;"/>
   </g>
   <g id="patch_24">
    <path clip-path="url(#p44fe8464f3)" d="M 100.014923 179.424 
L 102.265467 179.424 
L 102.265467 176.401119 
L 100.014923 176.401119 
z
" style="fill:#808080;fill-opacity:0.25;stroke:#808080;stroke-linejoin:miter;stroke-opacity:0.25;"/>
   </g>
   <g id="patch_25">
    <path clip-path="url(#p44fe8464f3)" d="M 102.265467 179.424 
L 104.516012 179.424 
L 104.516012 176.044628 
L 102.265467 176.044628 
z
" style="fill:#808080;fill-opacity:0.25;stroke:#808080;stroke-linejoin:miter;stroke-opacity:0.25;"/>
   </g>
   <g id="patch_26">
    <path clip-path="url(#p44fe8464f3)" d="M 104.516012 179.424 
L 106.766556 179.424 
L 106.766556 175.621889 
L 104.516012 175.621889 
z
" style="fill:#808080;fill-opacity:0.25;stroke:#808080;stroke-linejoin:miter;stroke-opacity:0.25;"/>
   </g>
   <g id="patch_27">
    <path clip-path="url(#p44fe8464f3)" d="M 106.766556 179.424 
L 109.017101 179.424 
L 109.017101 175.116199 
L 106.766556 175.116199 
z
" style="fill:#808080;fill-opacity:0.25;stroke:#808080;stroke-linejoin:miter;stroke-opacity:0.25;"/>
   </g>
   <g id="patch_28">
    <path clip-path="url(#p44fe8464f3)" d="M 109.017101 179.424 
L 111.267645 179.424 
L 111.267645 174.544175 
L 109.017101 174.544175 
z
" style="fill:#808080;fill-opacity:0.25;stroke:#808080;stroke-linejoin:miter;stroke-opacity:0.25;"/>
   </g>
   <g id="patch_29">
    <path clip-path="url(#p44fe8464f3)" d="M 111.267645 179.424 
L 113.51819 179.424 
L 113.51819 173.873441 
L 111.267645 173.873441 
z
" style="fill:#808080;fill-opacity:0.25;stroke:#808080;stroke-linejoin:miter;stroke-opacity:0.25;"/>
   </g>
   <g id="patch_30">
    <path clip-path="url(#p44fe8464f3)" d="M 113.51819 179.424 
L 115.768734 179.424 
L 115.768734 173.108481 
L 113.51819 173.108481 
z
" style="fill:#808080;fill-opacity:0.25;stroke:#808080;stroke-linejoin:miter;stroke-opacity:0.25;"/>
   </g>
   <g id="patch_31">
    <path clip-path="url(#p44fe8464f3)" d="M 115.768734 179.424 
L 118.019279 179.424 
L 118.019279 172.095595 
L 115.768734 172.095595 
z
" style="fill:#808080;fill-opacity:0.25;stroke:#808080;stroke-linejoin:miter;stroke-opacity:0.25;"/>
   </g>
   <g id="patch_32">
    <path clip-path="url(#p44fe8464f3)" d="M 118.019279 179.424 
L 120.269823 179.424 
L 120.269823 170.825559 
L 118.019279 170.825559 
z
" style="fill:#808080;fill-opacity:0.25;stroke:#808080;stroke-linejoin:miter;stroke-opacity:0.25;"/>
   </g>
   <g id="patch_33">
    <path clip-path="url(#p44fe8464f3)" d="M 120.269823 179.424 
L 122.520368 179.424 
L 122.520368 169.348327 
L 120.269823 169.348327 
z
" style="fill:#808080;fill-opacity:0.25;stroke:#808080;stroke-linejoin:miter;stroke-opacity:0.25;"/>
   </g>
   <g id="patch_34">
    <path clip-path="url(#p44fe8464f3)" d="M 122.520368 179.424 
L 124.770912 179.424 
L 124.770912 167.372867 
L 122.520368 167.372867 
z
" style="fill:#808080;fill-opacity:0.25;stroke:#808080;stroke-linejoin:miter;stroke-opacity:0.25;"/>
   </g>
   <g id="patch_35">
    <path clip-path="url(#p44fe8464f3)" d="M 124.770912 179.424 
L 127.021457 179.424 
L 127.021457 165.132767 
L 124.770912 165.132767 
z
" style="fill:#808080;fill-opacity:0.25;stroke:#808080;stroke-linejoin:miter;stroke-opacity:0.25;"/>
   </g>
   <g id="patch_36">
    <path clip-path="url(#p44fe8464f3)" d="M 127.021457 179.424 
L 129.272001 179.424 
L 129.272001 162.245406 
L 127.021457 162.245406 
z
" style="fill:#808080;fill-opacity:0.25;stroke:#808080;stroke-linejoin:miter;stroke-opacity:0.25;"/>
   </g>
   <g id="patch_37">
    <path clip-path="url(#p44fe8464f3)" d="M 129.272001 179.424 
L 131.522546 179.424 
L 131.522546 158.4685 
L 129.272001 158.4685 
z
" style="fill:#808080;fill-opacity:0.25;stroke:#808080;stroke-linejoin:miter;stroke-opacity:0.25;"/>
   </g>
   <g id="patch_38">
    <path clip-path="url(#p44fe8464f3)" d="M 131.522546 179.424 
L 133.77309 179.424 
L 133.77309 153.283528 
L 131.522546 153.283528 
z
" style="fill:#808080;fill-opacity:0.25;stroke:#808080;stroke-linejoin:miter;stroke-opacity:0.25;"/>
   </g>
   <g id="patch_39">
    <path clip-path="url(#p44fe8464f3)" d="M 133.77309 179.424 
L 136.023635 179.424 
L 136.023635 144.476898 
L 133.77309 144.476898 
z
" style="fill:#808080;fill-opacity:0.25;stroke:#808080;stroke-linejoin:miter;stroke-opacity:0.25;"/>
   </g>
   <g id="patch_40">
    <path clip-path="url(#p44fe8464f3)" d="M 136.023635 179.424 
L 138.274179 179.424 
L 138.274179 135.225389 
L 136.023635 135.225389 
z
" style="fill:#808080;fill-opacity:0.25;stroke:#808080;stroke-linejoin:miter;stroke-opacity:0.25;"/>
   </g>
   <g id="patch_41">
    <path clip-path="url(#p44fe8464f3)" d="M 138.274179 179.424 
L 140.524724 179.424 
L 140.524724 121.959163 
L 138.274179 121.959163 
z
" style="fill:#808080;fill-opacity:0.25;stroke:#808080;stroke-linejoin:miter;stroke-opacity:0.25;"/>
   </g>
   <g id="patch_42">
    <path clip-path="url(#p44fe8464f3)" d="M 140.524724 179.424 
L 142.775268 179.424 
L 142.775268 103.038133 
L 140.524724 103.038133 
z
" style="fill:#808080;fill-opacity:0.25;stroke:#808080;stroke-linejoin:miter;stroke-opacity:0.25;"/>
   </g>
   <g id="patch_43">
    <path clip-path="url(#p44fe8464f3)" d="M 142.775268 179.424 
L 145.025813 179.424 
L 145.025813 76.429249 
L 142.775268 76.429249 
z
" style="fill:#808080;fill-opacity:0.25;stroke:#808080;stroke-linejoin:miter;stroke-opacity:0.25;"/>
   </g>
   <g id="patch_44">
    <path clip-path="url(#p44fe8464f3)" d="M 145.025813 179.424 
L 147.276357 179.424 
L 147.276357 31.584 
L 145.025813 31.584 
z
" style="fill:#808080;fill-opacity:0.25;stroke:#808080;stroke-linejoin:miter;stroke-opacity:0.25;"/>
   </g>
   <g id="patch_45">
    <path clip-path="url(#p44fe8464f3)" d="M 147.276357 179.424 
L 149.526902 179.424 
L 149.526902 36.009402 
L 147.276357 36.009402 
z
" style="fill:#808080;fill-opacity:0.25;stroke:#808080;stroke-linejoin:miter;stroke-opacity:0.25;"/>
   </g>
   <g id="patch_46">
    <path clip-path="url(#p44fe8464f3)" d="M 149.526902 179.424 
L 151.777446 179.424 
L 151.777446 46.486656 
L 149.526902 46.486656 
z
" style="fill:#808080;fill-opacity:0.25;stroke:#808080;stroke-linejoin:miter;stroke-opacity:0.25;"/>
   </g>
   <g id="patch_47">
    <path clip-path="url(#p44fe8464f3)" d="M 151.777446 179.424 
L 154.027991 179.424 
L 154.027991 41.755367 
L 151.777446 41.755367 
z
" style="fill:#808080;fill-opacity:0.25;stroke:#808080;stroke-linejoin:miter;stroke-opacity:0.25;"/>
   </g>
   <g id="patch_48">
    <path clip-path="url(#p44fe8464f3)" d="M 154.027991 179.424 
L 156.278535 179.424 
L 156.278535 36.332906 
L 154.027991 36.332906 
z
" style="fill:#808080;fill-opacity:0.25;stroke:#808080;stroke-linejoin:miter;stroke-opacity:0.25;"/>
   </g>
   <g id="patch_49">
    <path clip-path="url(#p44fe8464f3)" d="M 156.278535 179.424 
L 158.52908 179.424 
L 158.52908 35.079242 
L 156.278535 35.079242 
z
" style="fill:#808080;fill-opacity:0.25;stroke:#808080;stroke-linejoin:miter;stroke-opacity:0.25;"/>
   </g>
   <g id="patch_50">
    <path clip-path="url(#p44fe8464f3)" d="M 158.52908 179.424 
L 160.779624 179.424 
L 160.779624 33.164144 
L 158.52908 33.164144 
z
" style="fill:#808080;fill-opacity:0.25;stroke:#808080;stroke-linejoin:miter;stroke-opacity:0.25;"/>
   </g>
   <g id="patch_51">
    <path clip-path="url(#p44fe8464f3)" d="M 160.779624 179.424 
L 163.030169 179.424 
L 163.030169 42.797623 
L 160.779624 42.797623 
z
" style="fill:#808080;fill-opacity:0.25;stroke:#808080;stroke-linejoin:miter;stroke-opacity:0.25;"/>
   </g>
   <g id="patch_52">
    <path clip-path="url(#p44fe8464f3)" d="M 163.030169 179.424 
L 165.280713 179.424 
L 165.280713 57.223365 
L 163.030169 57.223365 
z
" style="fill:#808080;fill-opacity:0.25;stroke:#808080;stroke-linejoin:miter;stroke-opacity:0.25;"/>
   </g>
   <g id="patch_53">
    <path clip-path="url(#p44fe8464f3)" d="M 165.280713 179.424 
L 167.531258 179.424 
L 167.531258 68.124787 
L 165.280713 68.124787 
z
" style="fill:#808080;fill-opacity:0.25;stroke:#808080;stroke-linejoin:miter;stroke-opacity:0.25;"/>
   </g>
   <g id="patch_54">
    <path clip-path="url(#p44fe8464f3)" d="M 167.531258 179.424 
L 169.781802 179.424 
L 169.781802 82.847418 
L 167.531258 82.847418 
z
" style="fill:#808080;fill-opacity:0.25;stroke:#808080;stroke-linejoin:miter;stroke-opacity:0.25;"/>
   </g>
   <g id="patch_55">
    <path clip-path="url(#p44fe8464f3)" d="M 169.781802 179.424 
L 172.032347 179.424 
L 172.032347 101.208992 
L 169.781802 101.208992 
z
" style="fill:#808080;fill-opacity:0.25;stroke:#808080;stroke-linejoin:miter;stroke-opacity:0.25;"/>
   </g>
   <g id="patch_56">
    <path clip-path="url(#p44fe8464f3)" d="M 172.032347 179.424 
L 174.282891 179.424 
L 174.282891 121.234497 
L 172.032347 121.234497 
z
" style="fill:#808080;fill-opacity:0.25;stroke:#808080;stroke-linejoin:miter;stroke-opacity:0.25;"/>
   </g>
   <g id="patch_57">
    <path clip-path="url(#p44fe8464f3)" d="M 174.282891 179.424 
L 176.533436 179.424 
L 176.533436 137.479575 
L 174.282891 137.479575 
z
" style="fill:#808080;fill-opacity:0.25;stroke:#808080;stroke-linejoin:miter;stroke-opacity:0.25;"/>
   </g>
   <g id="patch_58">
    <path clip-path="url(#p44fe8464f3)" d="M 176.533436 179.424 
L 178.78398 179.424 
L 178.78398 148.469571 
L 176.533436 148.469571 
z
" style="fill:#808080;fill-opacity:0.25;stroke:#808080;stroke-linejoin:miter;stroke-opacity:0.25;"/>
   </g>
   <g id="patch_59">
    <path clip-path="url(#p44fe8464f3)" d="M 178.78398 179.424 
L 181.034524 179.424 
L 181.034524 156.701783 
L 178.78398 156.701783 
z
" style="fill:#808080;fill-opacity:0.25;stroke:#808080;stroke-linejoin:miter;stroke-opacity:0.25;"/>
   </g>
   <g id="patch_60">
    <path clip-path="url(#p44fe8464f3)" d="M 181.034524 179.424 
L 183.285069 179.424 
L 183.285069 161.275799 
L 181.034524 161.275799 
z
" style="fill:#808080;fill-opacity:0.25;stroke:#808080;stroke-linejoin:miter;stroke-opacity:0.25;"/>
   </g>
   <g id="patch_61">
    <path clip-path="url(#p44fe8464f3)" d="M 183.285069 179.424 
L 185.535613 179.424 
L 185.535613 164.961759 
L 183.285069 164.961759 
z
" style="fill:#808080;fill-opacity:0.25;stroke:#808080;stroke-linejoin:miter;stroke-opacity:0.25;"/>
   </g>
   <g id="patch_62">
    <path clip-path="url(#p44fe8464f3)" d="M 185.535613 179.424 
L 187.786158 179.424 
L 187.786158 168.123224 
L 185.535613 168.123224 
z
" style="fill:#808080;fill-opacity:0.25;stroke:#808080;stroke-linejoin:miter;stroke-opacity:0.25;"/>
   </g>
   <g id="patch_63">
    <path clip-path="url(#p44fe8464f3)" d="M 187.786158 179.424 
L 190.036702 179.424 
L 190.036702 170.546463 
L 187.786158 170.546463 
z
" style="fill:#808080;fill-opacity:0.25;stroke:#808080;stroke-linejoin:miter;stroke-opacity:0.25;"/>
   </g>
   <g id="patch_64">
    <path clip-path="url(#p44fe8464f3)" d="M 190.036702 179.424 
L 192.287247 179.424 
L 192.287247 172.386286 
L 190.036702 172.386286 
z
" style="fill:#808080;fill-opacity:0.25;stroke:#808080;stroke-linejoin:miter;stroke-opacity:0.25;"/>
   </g>
   <g id="patch_65">
    <path clip-path="url(#p44fe8464f3)" d="M 192.287247 179.424 
L 194.537791 179.424 
L 194.537791 173.660729 
L 192.287247 173.660729 
z
" style="fill:#808080;fill-opacity:0.25;stroke:#808080;stroke-linejoin:miter;stroke-opacity:0.25;"/>
   </g>
   <g id="patch_66">
    <path clip-path="url(#p44fe8464f3)" d="M 194.537791 179.424 
L 196.788336 179.424 
L 196.788336 174.724687 
L 194.537791 174.724687 
z
" style="fill:#808080;fill-opacity:0.25;stroke:#808080;stroke-linejoin:miter;stroke-opacity:0.25;"/>
   </g>
   <g id="patch_67">
    <path clip-path="url(#p44fe8464f3)" d="M 196.788336 179.424 
L 199.03888 179.424 
L 199.03888 175.521963 
L 196.788336 175.521963 
z
" style="fill:#808080;fill-opacity:0.25;stroke:#808080;stroke-linejoin:miter;stroke-opacity:0.25;"/>
   </g>
   <g id="patch_68">
    <path clip-path="url(#p44fe8464f3)" d="M 199.03888 179.424 
L 201.289425 179.424 
L 201.289425 176.144514 
L 199.03888 176.144514 
z
" style="fill:#808080;fill-opacity:0.25;stroke:#808080;stroke-linejoin:miter;stroke-opacity:0.25;"/>
   </g>
   <g id="patch_69">
    <path clip-path="url(#p44fe8464f3)" d="M 201.289425 179.424 
L 203.539969 179.424 
L 203.539969 176.666197 
L 201.289425 176.666197 
z
" style="fill:#808080;fill-opacity:0.25;stroke:#808080;stroke-linejoin:miter;stroke-opacity:0.25;"/>
   </g>
   <g id="patch_70">
    <path clip-path="url(#p44fe8464f3)" d="M 203.539969 179.424 
L 205.790514 179.424 
L 205.790514 177.085249 
L 203.539969 177.085249 
z
" style="fill:#808080;fill-opacity:0.25;stroke:#808080;stroke-linejoin:miter;stroke-opacity:0.25;"/>
   </g>
   <g id="matplotlib.axis_9"/>
   <g id="line2d_35"/>
   <g id="line2d_36"/>
   <g id="patch_71">
    <path d="M 90 179.424 
L 90 24.192 
" style="fill:none;stroke:#000000;stroke-linecap:square;stroke-linejoin:miter;stroke-width:0.8;"/>
   </g>
   <g id="patch_72">
    <path d="M 211.304348 179.424 
L 211.304348 24.192 
" style="fill:none;stroke:#000000;stroke-linecap:square;stroke-linejoin:miter;stroke-width:0.8;"/>
   </g>
   <g id="patch_73">
    <path d="M 90 179.424 
L 211.304348 179.424 
" style="fill:none;stroke:#000000;stroke-linecap:square;stroke-linejoin:miter;stroke-width:0.8;"/>
   </g>
   <g id="patch_74">
    <path d="M 90 24.192 
L 211.304348 24.192 
" style="fill:none;stroke:#000000;stroke-linecap:square;stroke-linejoin:miter;stroke-width:0.8;"/>
   </g>
  </g>
  <g id="axes_6">
   <g id="patch_75">
    <path clip-path="url(#p0697a2c6eb)" d="M 241.079051 179.424 
L 243.529644 179.424 
L 243.529644 176.6626 
L 241.079051 176.6626 
z
" style="fill:#808080;fill-opacity:0.25;stroke:#808080;stroke-linejoin:miter;stroke-opacity:0.25;"/>
   </g>
   <g id="patch_76">
    <path clip-path="url(#p0697a2c6eb)" d="M 243.529644 179.424 
L 245.980237 179.424 
L 245.980237 176.104071 
L 243.529644 176.104071 
z
" style="fill:#808080;fill-opacity:0.25;stroke:#808080;stroke-linejoin:miter;stroke-opacity:0.25;"/>
   </g>
   <g id="patch_77">
    <path clip-path="url(#p0697a2c6eb)" d="M 245.980237 179.424 
L 248.43083 179.424 
L 248.43083 175.444698 
L 245.980237 175.444698 
z
" style="fill:#808080;fill-opacity:0.25;stroke:#808080;stroke-linejoin:miter;stroke-opacity:0.25;"/>
   </g>
   <g id="patch_78">
    <path clip-path="url(#p0697a2c6eb)" d="M 248.43083 179.424 
L 250.881423 179.424 
L 250.881423 174.667109 
L 248.43083 174.667109 
z
" style="fill:#808080;fill-opacity:0.25;stroke:#808080;stroke-linejoin:miter;stroke-opacity:0.25;"/>
   </g>
   <g id="patch_79">
    <path clip-path="url(#p0697a2c6eb)" d="M 250.881423 179.424 
L 253.332016 179.424 
L 253.332016 173.715102 
L 250.881423 173.715102 
z
" style="fill:#808080;fill-opacity:0.25;stroke:#808080;stroke-linejoin:miter;stroke-opacity:0.25;"/>
   </g>
   <g id="patch_80">
    <path clip-path="url(#p0697a2c6eb)" d="M 253.332016 179.424 
L 255.782609 179.424 
L 255.782609 172.561999 
L 253.332016 172.561999 
z
" style="fill:#808080;fill-opacity:0.25;stroke:#808080;stroke-linejoin:miter;stroke-opacity:0.25;"/>
   </g>
   <g id="patch_81">
    <path clip-path="url(#p0697a2c6eb)" d="M 255.782609 179.424 
L 258.233202 179.424 
L 258.233202 171.194016 
L 255.782609 171.194016 
z
" style="fill:#808080;fill-opacity:0.25;stroke:#808080;stroke-linejoin:miter;stroke-opacity:0.25;"/>
   </g>
   <g id="patch_82">
    <path clip-path="url(#p0697a2c6eb)" d="M 258.233202 179.424 
L 260.683794 179.424 
L 260.683794 169.507491 
L 258.233202 169.507491 
z
" style="fill:#808080;fill-opacity:0.25;stroke:#808080;stroke-linejoin:miter;stroke-opacity:0.25;"/>
   </g>
   <g id="patch_83">
    <path clip-path="url(#p0697a2c6eb)" d="M 260.683794 179.424 
L 263.134387 179.424 
L 263.134387 167.476666 
L 260.683794 167.476666 
z
" style="fill:#808080;fill-opacity:0.25;stroke:#808080;stroke-linejoin:miter;stroke-opacity:0.25;"/>
   </g>
   <g id="patch_84">
    <path clip-path="url(#p0697a2c6eb)" d="M 263.134387 179.424 
L 265.58498 179.424 
L 265.58498 165.016081 
L 263.134387 165.016081 
z
" style="fill:#808080;fill-opacity:0.25;stroke:#808080;stroke-linejoin:miter;stroke-opacity:0.25;"/>
   </g>
   <g id="patch_85">
    <path clip-path="url(#p0697a2c6eb)" d="M 265.58498 179.424 
L 268.035573 179.424 
L 268.035573 161.854029 
L 265.58498 161.854029 
z
" style="fill:#808080;fill-opacity:0.25;stroke:#808080;stroke-linejoin:miter;stroke-opacity:0.25;"/>
   </g>
   <g id="patch_86">
    <path clip-path="url(#p0697a2c6eb)" d="M 268.035573 179.424 
L 270.486166 179.424 
L 270.486166 157.870458 
L 268.035573 157.870458 
z
" style="fill:#808080;fill-opacity:0.25;stroke:#808080;stroke-linejoin:miter;stroke-opacity:0.25;"/>
   </g>
   <g id="patch_87">
    <path clip-path="url(#p0697a2c6eb)" d="M 270.486166 179.424 
L 272.936759 179.424 
L 272.936759 152.906038 
L 270.486166 152.906038 
z
" style="fill:#808080;fill-opacity:0.25;stroke:#808080;stroke-linejoin:miter;stroke-opacity:0.25;"/>
   </g>
   <g id="patch_88">
    <path clip-path="url(#p0697a2c6eb)" d="M 272.936759 179.424 
L 275.387352 179.424 
L 275.387352 146.543221 
L 272.936759 146.543221 
z
" style="fill:#808080;fill-opacity:0.25;stroke:#808080;stroke-linejoin:miter;stroke-opacity:0.25;"/>
   </g>
   <g id="patch_89">
    <path clip-path="url(#p0697a2c6eb)" d="M 275.387352 179.424 
L 277.837945 179.424 
L 277.837945 138.478999 
L 275.387352 138.478999 
z
" style="fill:#808080;fill-opacity:0.25;stroke:#808080;stroke-linejoin:miter;stroke-opacity:0.25;"/>
   </g>
   <g id="patch_90">
    <path clip-path="url(#p0697a2c6eb)" d="M 277.837945 179.424 
L 280.288538 179.424 
L 280.288538 128.359645 
L 277.837945 128.359645 
z
" style="fill:#808080;fill-opacity:0.25;stroke:#808080;stroke-linejoin:miter;stroke-opacity:0.25;"/>
   </g>
   <g id="patch_91">
    <path clip-path="url(#p0697a2c6eb)" d="M 280.288538 179.424 
L 282.73913 179.424 
L 282.73913 116.159755 
L 280.288538 116.159755 
z
" style="fill:#808080;fill-opacity:0.25;stroke:#808080;stroke-linejoin:miter;stroke-opacity:0.25;"/>
   </g>
   <g id="patch_92">
    <path clip-path="url(#p0697a2c6eb)" d="M 282.73913 179.424 
L 285.189723 179.424 
L 285.189723 101.667324 
L 282.73913 101.667324 
z
" style="fill:#808080;fill-opacity:0.25;stroke:#808080;stroke-linejoin:miter;stroke-opacity:0.25;"/>
   </g>
   <g id="patch_93">
    <path clip-path="url(#p0697a2c6eb)" d="M 285.189723 179.424 
L 287.640316 179.424 
L 287.640316 87.511397 
L 285.189723 87.511397 
z
" style="fill:#808080;fill-opacity:0.25;stroke:#808080;stroke-linejoin:miter;stroke-opacity:0.25;"/>
   </g>
   <g id="patch_94">
    <path clip-path="url(#p0697a2c6eb)" d="M 287.640316 179.424 
L 290.090909 179.424 
L 290.090909 75.472497 
L 287.640316 75.472497 
z
" style="fill:#808080;fill-opacity:0.25;stroke:#808080;stroke-linejoin:miter;stroke-opacity:0.25;"/>
   </g>
   <g id="patch_95">
    <path clip-path="url(#p0697a2c6eb)" d="M 290.090909 179.424 
L 292.541502 179.424 
L 292.541502 64.640116 
L 290.090909 64.640116 
z
" style="fill:#808080;fill-opacity:0.25;stroke:#808080;stroke-linejoin:miter;stroke-opacity:0.25;"/>
   </g>
   <g id="patch_96">
    <path clip-path="url(#p0697a2c6eb)" d="M 292.541502 179.424 
L 294.992095 179.424 
L 294.992095 53.483473 
L 292.541502 53.483473 
z
" style="fill:#808080;fill-opacity:0.25;stroke:#808080;stroke-linejoin:miter;stroke-opacity:0.25;"/>
   </g>
   <g id="patch_97">
    <path clip-path="url(#p0697a2c6eb)" d="M 294.992095 179.424 
L 297.442688 179.424 
L 297.442688 42.896327 
L 294.992095 42.896327 
z
" style="fill:#808080;fill-opacity:0.25;stroke:#808080;stroke-linejoin:miter;stroke-opacity:0.25;"/>
   </g>
   <g id="patch_98">
    <path clip-path="url(#p0697a2c6eb)" d="M 297.442688 179.424 
L 299.893281 179.424 
L 299.893281 34.909976 
L 297.442688 34.909976 
z
" style="fill:#808080;fill-opacity:0.25;stroke:#808080;stroke-linejoin:miter;stroke-opacity:0.25;"/>
   </g>
   <g id="patch_99">
    <path clip-path="url(#p0697a2c6eb)" d="M 299.893281 179.424 
L 302.343874 179.424 
L 302.343874 31.584 
L 299.893281 31.584 
z
" style="fill:#808080;fill-opacity:0.25;stroke:#808080;stroke-linejoin:miter;stroke-opacity:0.25;"/>
   </g>
   <g id="patch_100">
    <path clip-path="url(#p0697a2c6eb)" d="M 302.343874 179.424 
L 304.794466 179.424 
L 304.794466 33.683774 
L 302.343874 33.683774 
z
" style="fill:#808080;fill-opacity:0.25;stroke:#808080;stroke-linejoin:miter;stroke-opacity:0.25;"/>
   </g>
   <g id="patch_101">
    <path clip-path="url(#p0697a2c6eb)" d="M 304.794466 179.424 
L 307.245059 179.424 
L 307.245059 40.499414 
L 304.794466 40.499414 
z
" style="fill:#808080;fill-opacity:0.25;stroke:#808080;stroke-linejoin:miter;stroke-opacity:0.25;"/>
   </g>
   <g id="patch_102">
    <path clip-path="url(#p0697a2c6eb)" d="M 307.245059 179.424 
L 309.695652 179.424 
L 309.695652 50.751864 
L 307.245059 50.751864 
z
" style="fill:#808080;fill-opacity:0.25;stroke:#808080;stroke-linejoin:miter;stroke-opacity:0.25;"/>
   </g>
   <g id="patch_103">
    <path clip-path="url(#p0697a2c6eb)" d="M 309.695652 179.424 
L 312.146245 179.424 
L 312.146245 63.773688 
L 309.695652 63.773688 
z
" style="fill:#808080;fill-opacity:0.25;stroke:#808080;stroke-linejoin:miter;stroke-opacity:0.25;"/>
   </g>
   <g id="patch_104">
    <path clip-path="url(#p0697a2c6eb)" d="M 312.146245 179.424 
L 314.596838 179.424 
L 314.596838 78.057968 
L 312.146245 78.057968 
z
" style="fill:#808080;fill-opacity:0.25;stroke:#808080;stroke-linejoin:miter;stroke-opacity:0.25;"/>
   </g>
   <g id="patch_105">
    <path clip-path="url(#p0697a2c6eb)" d="M 314.596838 179.424 
L 317.047431 179.424 
L 317.047431 92.299324 
L 314.596838 92.299324 
z
" style="fill:#808080;fill-opacity:0.25;stroke:#808080;stroke-linejoin:miter;stroke-opacity:0.25;"/>
   </g>
   <g id="patch_106">
    <path clip-path="url(#p0697a2c6eb)" d="M 317.047431 179.424 
L 319.498024 179.424 
L 319.498024 105.690408 
L 317.047431 105.690408 
z
" style="fill:#808080;fill-opacity:0.25;stroke:#808080;stroke-linejoin:miter;stroke-opacity:0.25;"/>
   </g>
   <g id="patch_107">
    <path clip-path="url(#p0697a2c6eb)" d="M 319.498024 179.424 
L 321.948617 179.424 
L 321.948617 117.716799 
L 319.498024 117.716799 
z
" style="fill:#808080;fill-opacity:0.25;stroke:#808080;stroke-linejoin:miter;stroke-opacity:0.25;"/>
   </g>
   <g id="patch_108">
    <path clip-path="url(#p0697a2c6eb)" d="M 321.948617 179.424 
L 324.399209 179.424 
L 324.399209 128.439324 
L 321.948617 128.439324 
z
" style="fill:#808080;fill-opacity:0.25;stroke:#808080;stroke-linejoin:miter;stroke-opacity:0.25;"/>
   </g>
   <g id="patch_109">
    <path clip-path="url(#p0697a2c6eb)" d="M 324.399209 179.424 
L 326.849802 179.424 
L 326.849802 137.9304 
L 324.399209 137.9304 
z
" style="fill:#808080;fill-opacity:0.25;stroke:#808080;stroke-linejoin:miter;stroke-opacity:0.25;"/>
   </g>
   <g id="patch_110">
    <path clip-path="url(#p0697a2c6eb)" d="M 326.849802 179.424 
L 329.300395 179.424 
L 329.300395 146.324754 
L 326.849802 146.324754 
z
" style="fill:#808080;fill-opacity:0.25;stroke:#808080;stroke-linejoin:miter;stroke-opacity:0.25;"/>
   </g>
   <g id="patch_111">
    <path clip-path="url(#p0697a2c6eb)" d="M 329.300395 179.424 
L 331.750988 179.424 
L 331.750988 153.295336 
L 329.300395 153.295336 
z
" style="fill:#808080;fill-opacity:0.25;stroke:#808080;stroke-linejoin:miter;stroke-opacity:0.25;"/>
   </g>
   <g id="patch_112">
    <path clip-path="url(#p0697a2c6eb)" d="M 331.750988 179.424 
L 334.201581 179.424 
L 334.201581 159.107806 
L 331.750988 159.107806 
z
" style="fill:#808080;fill-opacity:0.25;stroke:#808080;stroke-linejoin:miter;stroke-opacity:0.25;"/>
   </g>
   <g id="patch_113">
    <path clip-path="url(#p0697a2c6eb)" d="M 334.201581 179.424 
L 336.652174 179.424 
L 336.652174 163.864252 
L 334.201581 163.864252 
z
" style="fill:#808080;fill-opacity:0.25;stroke:#808080;stroke-linejoin:miter;stroke-opacity:0.25;"/>
   </g>
   <g id="patch_114">
    <path clip-path="url(#p0697a2c6eb)" d="M 336.652174 179.424 
L 339.102767 179.424 
L 339.102767 167.666884 
L 336.652174 167.666884 
z
" style="fill:#808080;fill-opacity:0.25;stroke:#808080;stroke-linejoin:miter;stroke-opacity:0.25;"/>
   </g>
   <g id="patch_115">
    <path clip-path="url(#p0697a2c6eb)" d="M 339.102767 179.424 
L 341.55336 179.424 
L 341.55336 170.585569 
L 339.102767 170.585569 
z
" style="fill:#808080;fill-opacity:0.25;stroke:#808080;stroke-linejoin:miter;stroke-opacity:0.25;"/>
   </g>
   <g id="patch_116">
    <path clip-path="url(#p0697a2c6eb)" d="M 341.55336 179.424 
L 344.003953 179.424 
L 344.003953 172.816423 
L 341.55336 172.816423 
z
" style="fill:#808080;fill-opacity:0.25;stroke:#808080;stroke-linejoin:miter;stroke-opacity:0.25;"/>
   </g>
   <g id="patch_117">
    <path clip-path="url(#p0697a2c6eb)" d="M 344.003953 179.424 
L 346.454545 179.424 
L 346.454545 174.476684 
L 344.003953 174.476684 
z
" style="fill:#808080;fill-opacity:0.25;stroke:#808080;stroke-linejoin:miter;stroke-opacity:0.25;"/>
   </g>
   <g id="patch_118">
    <path clip-path="url(#p0697a2c6eb)" d="M 346.454545 179.424 
L 348.905138 179.424 
L 348.905138 175.723843 
L 346.454545 175.723843 
z
" style="fill:#808080;fill-opacity:0.25;stroke:#808080;stroke-linejoin:miter;stroke-opacity:0.25;"/>
   </g>
   <g id="patch_119">
    <path clip-path="url(#p0697a2c6eb)" d="M 348.905138 179.424 
L 351.355731 179.424 
L 351.355731 176.667402 
L 348.905138 176.667402 
z
" style="fill:#808080;fill-opacity:0.25;stroke:#808080;stroke-linejoin:miter;stroke-opacity:0.25;"/>
   </g>
   <g id="matplotlib.axis_10"/>
   <g id="line2d_37"/>
   <g id="line2d_38"/>
   <g id="patch_120">
    <path d="M 235.565217 179.424 
L 235.565217 24.192 
" style="fill:none;stroke:#000000;stroke-linecap:square;stroke-linejoin:miter;stroke-width:0.8;"/>
   </g>
   <g id="patch_121">
    <path d="M 356.869565 179.424 
L 356.869565 24.192 
" style="fill:none;stroke:#000000;stroke-linecap:square;stroke-linejoin:miter;stroke-width:0.8;"/>
   </g>
   <g id="patch_122">
    <path d="M 235.565217 179.424 
L 356.869565 179.424 
" style="fill:none;stroke:#000000;stroke-linecap:square;stroke-linejoin:miter;stroke-width:0.8;"/>
   </g>
   <g id="patch_123">
    <path d="M 235.565217 24.192 
L 356.869565 24.192 
" style="fill:none;stroke:#000000;stroke-linecap:square;stroke-linejoin:miter;stroke-width:0.8;"/>
   </g>
  </g>
  <g id="axes_7">
   <g id="patch_124">
    <path clip-path="url(#pdc758e25f4)" d="M 386.644269 179.424 
L 390.201581 179.424 
L 390.201581 176.825398 
L 386.644269 176.825398 
z
" style="fill:#808080;fill-opacity:0.25;stroke:#808080;stroke-linejoin:miter;stroke-opacity:0.25;"/>
   </g>
   <g id="patch_125">
    <path clip-path="url(#pdc758e25f4)" d="M 390.201581 179.424 
L 393.758893 179.424 
L 393.758893 175.562854 
L 390.201581 175.562854 
z
" style="fill:#808080;fill-opacity:0.25;stroke:#808080;stroke-linejoin:miter;stroke-opacity:0.25;"/>
   </g>
   <g id="patch_126">
    <path clip-path="url(#pdc758e25f4)" d="M 393.758893 179.424 
L 397.316206 179.424 
L 397.316206 173.575191 
L 393.758893 173.575191 
z
" style="fill:#808080;fill-opacity:0.25;stroke:#808080;stroke-linejoin:miter;stroke-opacity:0.25;"/>
   </g>
   <g id="patch_127">
    <path clip-path="url(#pdc758e25f4)" d="M 397.316206 179.424 
L 400.873518 179.424 
L 400.873518 170.588692 
L 397.316206 170.588692 
z
" style="fill:#808080;fill-opacity:0.25;stroke:#808080;stroke-linejoin:miter;stroke-opacity:0.25;"/>
   </g>
   <g id="patch_128">
    <path clip-path="url(#pdc758e25f4)" d="M 400.873518 179.424 
L 404.43083 179.424 
L 404.43083 166.568946 
L 400.873518 166.568946 
z
" style="fill:#808080;fill-opacity:0.25;stroke:#808080;stroke-linejoin:miter;stroke-opacity:0.25;"/>
   </g>
   <g id="patch_129">
    <path clip-path="url(#pdc758e25f4)" d="M 404.43083 179.424 
L 407.988142 179.424 
L 407.988142 161.051728 
L 404.43083 161.051728 
z
" style="fill:#808080;fill-opacity:0.25;stroke:#808080;stroke-linejoin:miter;stroke-opacity:0.25;"/>
   </g>
   <g id="patch_130">
    <path clip-path="url(#pdc758e25f4)" d="M 407.988142 179.424 
L 411.545455 179.424 
L 411.545455 153.672287 
L 407.988142 153.672287 
z
" style="fill:#808080;fill-opacity:0.25;stroke:#808080;stroke-linejoin:miter;stroke-opacity:0.25;"/>
   </g>
   <g id="patch_131">
    <path clip-path="url(#pdc758e25f4)" d="M 411.545455 179.424 
L 415.102767 179.424 
L 415.102767 144.296738 
L 411.545455 144.296738 
z
" style="fill:#808080;fill-opacity:0.25;stroke:#808080;stroke-linejoin:miter;stroke-opacity:0.25;"/>
   </g>
   <g id="patch_132">
    <path clip-path="url(#pdc758e25f4)" d="M 415.102767 179.424 
L 418.660079 179.424 
L 418.660079 132.597557 
L 415.102767 132.597557 
z
" style="fill:#808080;fill-opacity:0.25;stroke:#808080;stroke-linejoin:miter;stroke-opacity:0.25;"/>
   </g>
   <g id="patch_133">
    <path clip-path="url(#pdc758e25f4)" d="M 418.660079 179.424 
L 422.217391 179.424 
L 422.217391 118.599769 
L 418.660079 118.599769 
z
" style="fill:#808080;fill-opacity:0.25;stroke:#808080;stroke-linejoin:miter;stroke-opacity:0.25;"/>
   </g>
   <g id="patch_134">
    <path clip-path="url(#pdc758e25f4)" d="M 422.217391 179.424 
L 425.774704 179.424 
L 425.774704 102.914314 
L 422.217391 102.914314 
z
" style="fill:#808080;fill-opacity:0.25;stroke:#808080;stroke-linejoin:miter;stroke-opacity:0.25;"/>
   </g>
   <g id="patch_135">
    <path clip-path="url(#pdc758e25f4)" d="M 425.774704 179.424 
L 429.332016 179.424 
L 429.332016 86.227207 
L 425.774704 86.227207 
z
" style="fill:#808080;fill-opacity:0.25;stroke:#808080;stroke-linejoin:miter;stroke-opacity:0.25;"/>
   </g>
   <g id="patch_136">
    <path clip-path="url(#pdc758e25f4)" d="M 429.332016 179.424 
L 432.889328 179.424 
L 432.889328 69.542602 
L 429.332016 69.542602 
z
" style="fill:#808080;fill-opacity:0.25;stroke:#808080;stroke-linejoin:miter;stroke-opacity:0.25;"/>
   </g>
   <g id="patch_137">
    <path clip-path="url(#pdc758e25f4)" d="M 432.889328 179.424 
L 436.44664 179.424 
L 436.44664 54.589773 
L 432.889328 54.589773 
z
" style="fill:#808080;fill-opacity:0.25;stroke:#808080;stroke-linejoin:miter;stroke-opacity:0.25;"/>
   </g>
   <g id="patch_138">
    <path clip-path="url(#pdc758e25f4)" d="M 436.44664 179.424 
L 440.003953 179.424 
L 440.003953 42.290914 
L 436.44664 42.290914 
z
" style="fill:#808080;fill-opacity:0.25;stroke:#808080;stroke-linejoin:miter;stroke-opacity:0.25;"/>
   </g>
   <g id="patch_139">
    <path clip-path="url(#pdc758e25f4)" d="M 440.003953 179.424 
L 443.561265 179.424 
L 443.561265 33.833494 
L 440.003953 33.833494 
z
" style="fill:#808080;fill-opacity:0.25;stroke:#808080;stroke-linejoin:miter;stroke-opacity:0.25;"/>
   </g>
   <g id="patch_140">
    <path clip-path="url(#pdc758e25f4)" d="M 443.561265 179.424 
L 447.118577 179.424 
L 447.118577 31.584 
L 443.561265 31.584 
z
" style="fill:#808080;fill-opacity:0.25;stroke:#808080;stroke-linejoin:miter;stroke-opacity:0.25;"/>
   </g>
   <g id="patch_141">
    <path clip-path="url(#pdc758e25f4)" d="M 447.118577 179.424 
L 450.675889 179.424 
L 450.675889 35.047551 
L 447.118577 35.047551 
z
" style="fill:#808080;fill-opacity:0.25;stroke:#808080;stroke-linejoin:miter;stroke-opacity:0.25;"/>
   </g>
   <g id="patch_142">
    <path clip-path="url(#pdc758e25f4)" d="M 450.675889 179.424 
L 454.233202 179.424 
L 454.233202 44.150633 
L 450.675889 44.150633 
z
" style="fill:#808080;fill-opacity:0.25;stroke:#808080;stroke-linejoin:miter;stroke-opacity:0.25;"/>
   </g>
   <g id="patch_143">
    <path clip-path="url(#pdc758e25f4)" d="M 454.233202 179.424 
L 457.790514 179.424 
L 457.790514 57.490872 
L 454.233202 57.490872 
z
" style="fill:#808080;fill-opacity:0.25;stroke:#808080;stroke-linejoin:miter;stroke-opacity:0.25;"/>
   </g>
   <g id="patch_144">
    <path clip-path="url(#pdc758e25f4)" d="M 457.790514 179.424 
L 461.347826 179.424 
L 461.347826 74.244923 
L 457.790514 74.244923 
z
" style="fill:#808080;fill-opacity:0.25;stroke:#808080;stroke-linejoin:miter;stroke-opacity:0.25;"/>
   </g>
   <g id="patch_145">
    <path clip-path="url(#pdc758e25f4)" d="M 461.347826 179.424 
L 464.905138 179.424 
L 464.905138 92.827723 
L 461.347826 92.827723 
z
" style="fill:#808080;fill-opacity:0.25;stroke:#808080;stroke-linejoin:miter;stroke-opacity:0.25;"/>
   </g>
   <g id="patch_146">
    <path clip-path="url(#pdc758e25f4)" d="M 464.905138 179.424 
L 468.462451 179.424 
L 468.462451 111.400827 
L 464.905138 111.400827 
z
" style="fill:#808080;fill-opacity:0.25;stroke:#808080;stroke-linejoin:miter;stroke-opacity:0.25;"/>
   </g>
   <g id="patch_147">
    <path clip-path="url(#pdc758e25f4)" d="M 468.462451 179.424 
L 472.019763 179.424 
L 472.019763 128.275313 
L 468.462451 128.275313 
z
" style="fill:#808080;fill-opacity:0.25;stroke:#808080;stroke-linejoin:miter;stroke-opacity:0.25;"/>
   </g>
   <g id="patch_148">
    <path clip-path="url(#pdc758e25f4)" d="M 472.019763 179.424 
L 475.577075 179.424 
L 475.577075 142.680394 
L 472.019763 142.680394 
z
" style="fill:#808080;fill-opacity:0.25;stroke:#808080;stroke-linejoin:miter;stroke-opacity:0.25;"/>
   </g>
   <g id="patch_149">
    <path clip-path="url(#pdc758e25f4)" d="M 475.577075 179.424 
L 479.134387 179.424 
L 479.134387 154.506267 
L 475.577075 154.506267 
z
" style="fill:#808080;fill-opacity:0.25;stroke:#808080;stroke-linejoin:miter;stroke-opacity:0.25;"/>
   </g>
   <g id="patch_150">
    <path clip-path="url(#pdc758e25f4)" d="M 479.134387 179.424 
L 482.6917 179.424 
L 482.6917 162.918642 
L 479.134387 162.918642 
z
" style="fill:#808080;fill-opacity:0.25;stroke:#808080;stroke-linejoin:miter;stroke-opacity:0.25;"/>
   </g>
   <g id="patch_151">
    <path clip-path="url(#pdc758e25f4)" d="M 482.6917 179.424 
L 486.249012 179.424 
L 486.249012 169.02584 
L 482.6917 169.02584 
z
" style="fill:#808080;fill-opacity:0.25;stroke:#808080;stroke-linejoin:miter;stroke-opacity:0.25;"/>
   </g>
   <g id="patch_152">
    <path clip-path="url(#pdc758e25f4)" d="M 486.249012 179.424 
L 489.806324 179.424 
L 489.806324 173.101581 
L 486.249012 173.101581 
z
" style="fill:#808080;fill-opacity:0.25;stroke:#808080;stroke-linejoin:miter;stroke-opacity:0.25;"/>
   </g>
   <g id="patch_153">
    <path clip-path="url(#pdc758e25f4)" d="M 489.806324 179.424 
L 493.363636 179.424 
L 493.363636 175.629172 
L 489.806324 175.629172 
z
" style="fill:#808080;fill-opacity:0.25;stroke:#808080;stroke-linejoin:miter;stroke-opacity:0.25;"/>
   </g>
   <g id="patch_154">
    <path clip-path="url(#pdc758e25f4)" d="M 493.363636 179.424 
L 496.920949 179.424 
L 496.920949 177.168563 
L 493.363636 177.168563 
z
" style="fill:#808080;fill-opacity:0.25;stroke:#808080;stroke-linejoin:miter;stroke-opacity:0.25;"/>
   </g>
   <g id="matplotlib.axis_11"/>
   <g id="line2d_39"/>
   <g id="line2d_40"/>
   <g id="patch_155">
    <path d="M 381.130435 179.424 
L 381.130435 24.192 
" style="fill:none;stroke:#000000;stroke-linecap:square;stroke-linejoin:miter;stroke-width:0.8;"/>
   </g>
   <g id="patch_156">
    <path d="M 502.434783 179.424 
L 502.434783 24.192 
" style="fill:none;stroke:#000000;stroke-linecap:square;stroke-linejoin:miter;stroke-width:0.8;"/>
   </g>
   <g id="patch_157">
    <path d="M 381.130435 179.424 
L 502.434783 179.424 
" style="fill:none;stroke:#000000;stroke-linecap:square;stroke-linejoin:miter;stroke-width:0.8;"/>
   </g>
   <g id="patch_158">
    <path d="M 381.130435 24.192 
L 502.434783 24.192 
" style="fill:none;stroke:#000000;stroke-linecap:square;stroke-linejoin:miter;stroke-width:0.8;"/>
   </g>
  </g>
  <g id="axes_8">
   <g id="patch_159">
    <path clip-path="url(#p3c97a07717)" d="M 532.209486 179.424 
L 535.189937 179.424 
L 535.189937 176.776604 
L 532.209486 176.776604 
z
" style="fill:#808080;fill-opacity:0.25;stroke:#808080;stroke-linejoin:miter;stroke-opacity:0.25;"/>
   </g>
   <g id="patch_160">
    <path clip-path="url(#p3c97a07717)" d="M 535.189937 179.424 
L 538.170388 179.424 
L 538.170388 175.704023 
L 535.189937 175.704023 
z
" style="fill:#808080;fill-opacity:0.25;stroke:#808080;stroke-linejoin:miter;stroke-opacity:0.25;"/>
   </g>
   <g id="patch_161">
    <path clip-path="url(#p3c97a07717)" d="M 538.170388 179.424 
L 541.150839 179.424 
L 541.150839 174.176275 
L 538.170388 174.176275 
z
" style="fill:#808080;fill-opacity:0.25;stroke:#808080;stroke-linejoin:miter;stroke-opacity:0.25;"/>
   </g>
   <g id="patch_162">
    <path clip-path="url(#p3c97a07717)" d="M 541.150839 179.424 
L 544.131289 179.424 
L 544.131289 172.16844 
L 541.150839 172.16844 
z
" style="fill:#808080;fill-opacity:0.25;stroke:#808080;stroke-linejoin:miter;stroke-opacity:0.25;"/>
   </g>
   <g id="patch_163">
    <path clip-path="url(#p3c97a07717)" d="M 544.131289 179.424 
L 547.11174 179.424 
L 547.11174 169.3959 
L 544.131289 169.3959 
z
" style="fill:#808080;fill-opacity:0.25;stroke:#808080;stroke-linejoin:miter;stroke-opacity:0.25;"/>
   </g>
   <g id="patch_164">
    <path clip-path="url(#p3c97a07717)" d="M 547.11174 179.424 
L 550.092191 179.424 
L 550.092191 166.045263 
L 547.11174 166.045263 
z
" style="fill:#808080;fill-opacity:0.25;stroke:#808080;stroke-linejoin:miter;stroke-opacity:0.25;"/>
   </g>
   <g id="patch_165">
    <path clip-path="url(#p3c97a07717)" d="M 550.092191 179.424 
L 553.072642 179.424 
L 553.072642 161.453157 
L 550.092191 161.453157 
z
" style="fill:#808080;fill-opacity:0.25;stroke:#808080;stroke-linejoin:miter;stroke-opacity:0.25;"/>
   </g>
   <g id="patch_166">
    <path clip-path="url(#p3c97a07717)" d="M 553.072642 179.424 
L 556.053093 179.424 
L 556.053093 155.923028 
L 553.072642 155.923028 
z
" style="fill:#808080;fill-opacity:0.25;stroke:#808080;stroke-linejoin:miter;stroke-opacity:0.25;"/>
   </g>
   <g id="patch_167">
    <path clip-path="url(#p3c97a07717)" d="M 556.053093 179.424 
L 559.033543 179.424 
L 559.033543 148.89616 
L 556.053093 148.89616 
z
" style="fill:#808080;fill-opacity:0.25;stroke:#808080;stroke-linejoin:miter;stroke-opacity:0.25;"/>
   </g>
   <g id="patch_168">
    <path clip-path="url(#p3c97a07717)" d="M 559.033543 179.424 
L 562.013994 179.424 
L 562.013994 140.507662 
L 559.033543 140.507662 
z
" style="fill:#808080;fill-opacity:0.25;stroke:#808080;stroke-linejoin:miter;stroke-opacity:0.25;"/>
   </g>
   <g id="patch_169">
    <path clip-path="url(#p3c97a07717)" d="M 562.013994 179.424 
L 564.994445 179.424 
L 564.994445 130.804603 
L 562.013994 130.804603 
z
" style="fill:#808080;fill-opacity:0.25;stroke:#808080;stroke-linejoin:miter;stroke-opacity:0.25;"/>
   </g>
   <g id="patch_170">
    <path clip-path="url(#p3c97a07717)" d="M 564.994445 179.424 
L 567.974896 179.424 
L 567.974896 119.204456 
L 564.994445 119.204456 
z
" style="fill:#808080;fill-opacity:0.25;stroke:#808080;stroke-linejoin:miter;stroke-opacity:0.25;"/>
   </g>
   <g id="patch_171">
    <path clip-path="url(#p3c97a07717)" d="M 567.974896 179.424 
L 570.955347 179.424 
L 570.955347 106.985235 
L 567.974896 106.985235 
z
" style="fill:#808080;fill-opacity:0.25;stroke:#808080;stroke-linejoin:miter;stroke-opacity:0.25;"/>
   </g>
   <g id="patch_172">
    <path clip-path="url(#p3c97a07717)" d="M 570.955347 179.424 
L 573.935797 179.424 
L 573.935797 94.138082 
L 570.955347 94.138082 
z
" style="fill:#808080;fill-opacity:0.25;stroke:#808080;stroke-linejoin:miter;stroke-opacity:0.25;"/>
   </g>
   <g id="patch_173">
    <path clip-path="url(#p3c97a07717)" d="M 573.935797 179.424 
L 576.916248 179.424 
L 576.916248 79.882786 
L 573.935797 79.882786 
z
" style="fill:#808080;fill-opacity:0.25;stroke:#808080;stroke-linejoin:miter;stroke-opacity:0.25;"/>
   </g>
   <g id="patch_174">
    <path clip-path="url(#p3c97a07717)" d="M 576.916248 179.424 
L 579.896699 179.424 
L 579.896699 67.267092 
L 576.916248 67.267092 
z
" style="fill:#808080;fill-opacity:0.25;stroke:#808080;stroke-linejoin:miter;stroke-opacity:0.25;"/>
   </g>
   <g id="patch_175">
    <path clip-path="url(#p3c97a07717)" d="M 579.896699 179.424 
L 582.87715 179.424 
L 582.87715 54.43046 
L 579.896699 54.43046 
z
" style="fill:#808080;fill-opacity:0.25;stroke:#808080;stroke-linejoin:miter;stroke-opacity:0.25;"/>
   </g>
   <g id="patch_176">
    <path clip-path="url(#p3c97a07717)" d="M 582.87715 179.424 
L 585.857601 179.424 
L 585.857601 44.332589 
L 582.87715 44.332589 
z
" style="fill:#808080;fill-opacity:0.25;stroke:#808080;stroke-linejoin:miter;stroke-opacity:0.25;"/>
   </g>
   <g id="patch_177">
    <path clip-path="url(#p3c97a07717)" d="M 585.857601 179.424 
L 588.838051 179.424 
L 588.838051 36.504469 
L 585.857601 36.504469 
z
" style="fill:#808080;fill-opacity:0.25;stroke:#808080;stroke-linejoin:miter;stroke-opacity:0.25;"/>
   </g>
   <g id="patch_178">
    <path clip-path="url(#p3c97a07717)" d="M 588.838051 179.424 
L 591.818502 179.424 
L 591.818502 32.182585 
L 588.838051 32.182585 
z
" style="fill:#808080;fill-opacity:0.25;stroke:#808080;stroke-linejoin:miter;stroke-opacity:0.25;"/>
   </g>
   <g id="patch_179">
    <path clip-path="url(#p3c97a07717)" d="M 591.818502 179.424 
L 594.798953 179.424 
L 594.798953 31.584 
L 591.818502 31.584 
z
" style="fill:#808080;fill-opacity:0.25;stroke:#808080;stroke-linejoin:miter;stroke-opacity:0.25;"/>
   </g>
   <g id="patch_180">
    <path clip-path="url(#p3c97a07717)" d="M 594.798953 179.424 
L 597.779404 179.424 
L 597.779404 34.124526 
L 594.798953 34.124526 
z
" style="fill:#808080;fill-opacity:0.25;stroke:#808080;stroke-linejoin:miter;stroke-opacity:0.25;"/>
   </g>
   <g id="patch_181">
    <path clip-path="url(#p3c97a07717)" d="M 597.779404 179.424 
L 600.759855 179.424 
L 600.759855 41.543991 
L 597.779404 41.543991 
z
" style="fill:#808080;fill-opacity:0.25;stroke:#808080;stroke-linejoin:miter;stroke-opacity:0.25;"/>
   </g>
   <g id="patch_182">
    <path clip-path="url(#p3c97a07717)" d="M 600.759855 179.424 
L 603.740306 179.424 
L 603.740306 51.456915 
L 600.759855 51.456915 
z
" style="fill:#808080;fill-opacity:0.25;stroke:#808080;stroke-linejoin:miter;stroke-opacity:0.25;"/>
   </g>
   <g id="patch_183">
    <path clip-path="url(#p3c97a07717)" d="M 603.740306 179.424 
L 606.720756 179.424 
L 606.720756 64.794122 
L 603.740306 64.794122 
z
" style="fill:#808080;fill-opacity:0.25;stroke:#808080;stroke-linejoin:miter;stroke-opacity:0.25;"/>
   </g>
   <g id="patch_184">
    <path clip-path="url(#p3c97a07717)" d="M 606.720756 179.424 
L 609.701207 179.424 
L 609.701207 79.104237 
L 606.720756 79.104237 
z
" style="fill:#808080;fill-opacity:0.25;stroke:#808080;stroke-linejoin:miter;stroke-opacity:0.25;"/>
   </g>
   <g id="patch_185">
    <path clip-path="url(#p3c97a07717)" d="M 609.701207 179.424 
L 612.681658 179.424 
L 612.681658 94.3856 
L 609.701207 94.3856 
z
" style="fill:#808080;fill-opacity:0.25;stroke:#808080;stroke-linejoin:miter;stroke-opacity:0.25;"/>
   </g>
   <g id="patch_186">
    <path clip-path="url(#p3c97a07717)" d="M 612.681658 179.424 
L 615.662109 179.424 
L 615.662109 109.47371 
L 612.681658 109.47371 
z
" style="fill:#808080;fill-opacity:0.25;stroke:#808080;stroke-linejoin:miter;stroke-opacity:0.25;"/>
   </g>
   <g id="patch_187">
    <path clip-path="url(#p3c97a07717)" d="M 615.662109 179.424 
L 618.64256 179.424 
L 618.64256 123.372402 
L 615.662109 123.372402 
z
" style="fill:#808080;fill-opacity:0.25;stroke:#808080;stroke-linejoin:miter;stroke-opacity:0.25;"/>
   </g>
   <g id="patch_188">
    <path clip-path="url(#p3c97a07717)" d="M 618.64256 179.424 
L 621.62301 179.424 
L 621.62301 135.807579 
L 618.64256 135.807579 
z
" style="fill:#808080;fill-opacity:0.25;stroke:#808080;stroke-linejoin:miter;stroke-opacity:0.25;"/>
   </g>
   <g id="patch_189">
    <path clip-path="url(#p3c97a07717)" d="M 621.62301 179.424 
L 624.603461 179.424 
L 624.603461 146.472471 
L 621.62301 146.472471 
z
" style="fill:#808080;fill-opacity:0.25;stroke:#808080;stroke-linejoin:miter;stroke-opacity:0.25;"/>
   </g>
   <g id="patch_190">
    <path clip-path="url(#p3c97a07717)" d="M 624.603461 179.424 
L 627.583912 179.424 
L 627.583912 155.228647 
L 624.603461 155.228647 
z
" style="fill:#808080;fill-opacity:0.25;stroke:#808080;stroke-linejoin:miter;stroke-opacity:0.25;"/>
   </g>
   <g id="patch_191">
    <path clip-path="url(#p3c97a07717)" d="M 627.583912 179.424 
L 630.564363 179.424 
L 630.564363 162.194605 
L 627.583912 162.194605 
z
" style="fill:#808080;fill-opacity:0.25;stroke:#808080;stroke-linejoin:miter;stroke-opacity:0.25;"/>
   </g>
   <g id="patch_192">
    <path clip-path="url(#p3c97a07717)" d="M 630.564363 179.424 
L 633.544814 179.424 
L 633.544814 167.413537 
L 630.564363 167.413537 
z
" style="fill:#808080;fill-opacity:0.25;stroke:#808080;stroke-linejoin:miter;stroke-opacity:0.25;"/>
   </g>
   <g id="patch_193">
    <path clip-path="url(#p3c97a07717)" d="M 633.544814 179.424 
L 636.525264 179.424 
L 636.525264 171.181134 
L 633.544814 171.181134 
z
" style="fill:#808080;fill-opacity:0.25;stroke:#808080;stroke-linejoin:miter;stroke-opacity:0.25;"/>
   </g>
   <g id="patch_194">
    <path clip-path="url(#p3c97a07717)" d="M 636.525264 179.424 
L 639.505715 179.424 
L 639.505715 173.969732 
L 636.525264 173.969732 
z
" style="fill:#808080;fill-opacity:0.25;stroke:#808080;stroke-linejoin:miter;stroke-opacity:0.25;"/>
   </g>
   <g id="patch_195">
    <path clip-path="url(#p3c97a07717)" d="M 639.505715 179.424 
L 642.486166 179.424 
L 642.486166 175.849655 
L 639.505715 175.849655 
z
" style="fill:#808080;fill-opacity:0.25;stroke:#808080;stroke-linejoin:miter;stroke-opacity:0.25;"/>
   </g>
   <g id="matplotlib.axis_12"/>
   <g id="line2d_41"/>
   <g id="line2d_42"/>
   <g id="patch_196">
    <path d="M 526.695652 179.424 
L 526.695652 24.192 
" style="fill:none;stroke:#000000;stroke-linecap:square;stroke-linejoin:miter;stroke-width:0.8;"/>
   </g>
   <g id="patch_197">
    <path d="M 648 179.424 
L 648 24.192 
" style="fill:none;stroke:#000000;stroke-linecap:square;stroke-linejoin:miter;stroke-width:0.8;"/>
   </g>
   <g id="patch_198">
    <path d="M 526.695652 179.424 
L 648 179.424 
" style="fill:none;stroke:#000000;stroke-linecap:square;stroke-linejoin:miter;stroke-width:0.8;"/>
   </g>
   <g id="patch_199">
    <path d="M 526.695652 24.192 
L 648 24.192 
" style="fill:none;stroke:#000000;stroke-linecap:square;stroke-linejoin:miter;stroke-width:0.8;"/>
   </g>
  </g>
  <g id="text_31">
   <!-- lenet on cifar100 (bn) -->
   <g transform="translate(294.632812 13.150125)scale(0.12 -0.12)">
    <defs>
     <path d="M 9.421875 75.984375 
L 18.40625 75.984375 
L 18.40625 0 
L 9.421875 0 
z
" id="DejaVuSans-108"/>
     <path d="M 56.203125 29.59375 
L 56.203125 25.203125 
L 14.890625 25.203125 
Q 15.484375 15.921875 20.484375 11.0625 
Q 25.484375 6.203125 34.421875 6.203125 
Q 39.59375 6.203125 44.453125 7.46875 
Q 49.3125 8.734375 54.109375 11.28125 
L 54.109375 2.78125 
Q 49.265625 0.734375 44.1875 -0.34375 
Q 39.109375 -1.421875 33.890625 -1.421875 
Q 20.796875 -1.421875 13.15625 6.1875 
Q 5.515625 13.8125 5.515625 26.8125 
Q 5.515625 40.234375 12.765625 48.109375 
Q 20.015625 56 32.328125 56 
Q 43.359375 56 49.78125 48.890625 
Q 56.203125 41.796875 56.203125 29.59375 
z
M 47.21875 32.234375 
Q 47.125 39.59375 43.09375 43.984375 
Q 39.0625 48.390625 32.421875 48.390625 
Q 24.90625 48.390625 20.390625 44.140625 
Q 15.875 39.890625 15.1875 32.171875 
z
" id="DejaVuSans-101"/>
     <path d="M 54.890625 33.015625 
L 54.890625 0 
L 45.90625 0 
L 45.90625 32.71875 
Q 45.90625 40.484375 42.875 44.328125 
Q 39.84375 48.1875 33.796875 48.1875 
Q 26.515625 48.1875 22.3125 43.546875 
Q 18.109375 38.921875 18.109375 30.90625 
L 18.109375 0 
L 9.078125 0 
L 9.078125 54.6875 
L 18.109375 54.6875 
L 18.109375 46.1875 
Q 21.34375 51.125 25.703125 53.5625 
Q 30.078125 56 35.796875 56 
Q 45.21875 56 50.046875 50.171875 
Q 54.890625 44.34375 54.890625 33.015625 
z
" id="DejaVuSans-110"/>
     <path d="M 18.3125 70.21875 
L 18.3125 54.6875 
L 36.8125 54.6875 
L 36.8125 47.703125 
L 18.3125 47.703125 
L 18.3125 18.015625 
Q 18.3125 11.328125 20.140625 9.421875 
Q 21.96875 7.515625 27.59375 7.515625 
L 36.8125 7.515625 
L 36.8125 0 
L 27.59375 0 
Q 17.1875 0 13.234375 3.875 
Q 9.28125 7.765625 9.28125 18.015625 
L 9.28125 47.703125 
L 2.6875 47.703125 
L 2.6875 54.6875 
L 9.28125 54.6875 
L 9.28125 70.21875 
z
" id="DejaVuSans-116"/>
     <path id="DejaVuSans-32"/>
     <path d="M 30.609375 48.390625 
Q 23.390625 48.390625 19.1875 42.75 
Q 14.984375 37.109375 14.984375 27.296875 
Q 14.984375 17.484375 19.15625 11.84375 
Q 23.34375 6.203125 30.609375 6.203125 
Q 37.796875 6.203125 41.984375 11.859375 
Q 46.1875 17.53125 46.1875 27.296875 
Q 46.1875 37.015625 41.984375 42.703125 
Q 37.796875 48.390625 30.609375 48.390625 
z
M 30.609375 56 
Q 42.328125 56 49.015625 48.375 
Q 55.71875 40.765625 55.71875 27.296875 
Q 55.71875 13.875 49.015625 6.21875 
Q 42.328125 -1.421875 30.609375 -1.421875 
Q 18.84375 -1.421875 12.171875 6.21875 
Q 5.515625 13.875 5.515625 27.296875 
Q 5.515625 40.765625 12.171875 48.375 
Q 18.84375 56 30.609375 56 
z
" id="DejaVuSans-111"/>
     <path d="M 48.78125 52.59375 
L 48.78125 44.1875 
Q 44.96875 46.296875 41.140625 47.34375 
Q 37.3125 48.390625 33.40625 48.390625 
Q 24.65625 48.390625 19.8125 42.84375 
Q 14.984375 37.3125 14.984375 27.296875 
Q 14.984375 17.28125 19.8125 11.734375 
Q 24.65625 6.203125 33.40625 6.203125 
Q 37.3125 6.203125 41.140625 7.25 
Q 44.96875 8.296875 48.78125 10.40625 
L 48.78125 2.09375 
Q 45.015625 0.34375 40.984375 -0.53125 
Q 36.96875 -1.421875 32.421875 -1.421875 
Q 20.0625 -1.421875 12.78125 6.34375 
Q 5.515625 14.109375 5.515625 27.296875 
Q 5.515625 40.671875 12.859375 48.328125 
Q 20.21875 56 33.015625 56 
Q 37.15625 56 41.109375 55.140625 
Q 45.0625 54.296875 48.78125 52.59375 
z
" id="DejaVuSans-99"/>
     <path d="M 9.421875 54.6875 
L 18.40625 54.6875 
L 18.40625 0 
L 9.421875 0 
z
M 9.421875 75.984375 
L 18.40625 75.984375 
L 18.40625 64.59375 
L 9.421875 64.59375 
z
" id="DejaVuSans-105"/>
     <path d="M 37.109375 75.984375 
L 37.109375 68.5 
L 28.515625 68.5 
Q 23.6875 68.5 21.796875 66.546875 
Q 19.921875 64.59375 19.921875 59.515625 
L 19.921875 54.6875 
L 34.71875 54.6875 
L 34.71875 47.703125 
L 19.921875 47.703125 
L 19.921875 0 
L 10.890625 0 
L 10.890625 47.703125 
L 2.296875 47.703125 
L 2.296875 54.6875 
L 10.890625 54.6875 
L 10.890625 58.5 
Q 10.890625 67.625 15.140625 71.796875 
Q 19.390625 75.984375 28.609375 75.984375 
z
" id="DejaVuSans-102"/>
     <path d="M 34.28125 27.484375 
Q 23.390625 27.484375 19.1875 25 
Q 14.984375 22.515625 14.984375 16.5 
Q 14.984375 11.71875 18.140625 8.90625 
Q 21.296875 6.109375 26.703125 6.109375 
Q 34.1875 6.109375 38.703125 11.40625 
Q 43.21875 16.703125 43.21875 25.484375 
L 43.21875 27.484375 
z
M 52.203125 31.203125 
L 52.203125 0 
L 43.21875 0 
L 43.21875 8.296875 
Q 40.140625 3.328125 35.546875 0.953125 
Q 30.953125 -1.421875 24.3125 -1.421875 
Q 15.921875 -1.421875 10.953125 3.296875 
Q 6 8.015625 6 15.921875 
Q 6 25.140625 12.171875 29.828125 
Q 18.359375 34.515625 30.609375 34.515625 
L 43.21875 34.515625 
L 43.21875 35.40625 
Q 43.21875 41.609375 39.140625 45 
Q 35.0625 48.390625 27.6875 48.390625 
Q 23 48.390625 18.546875 47.265625 
Q 14.109375 46.140625 10.015625 43.890625 
L 10.015625 52.203125 
Q 14.9375 54.109375 19.578125 55.046875 
Q 24.21875 56 28.609375 56 
Q 40.484375 56 46.34375 49.84375 
Q 52.203125 43.703125 52.203125 31.203125 
z
" id="DejaVuSans-97"/>
     <path d="M 41.109375 46.296875 
Q 39.59375 47.171875 37.8125 47.578125 
Q 36.03125 48 33.890625 48 
Q 26.265625 48 22.1875 43.046875 
Q 18.109375 38.09375 18.109375 28.8125 
L 18.109375 0 
L 9.078125 0 
L 9.078125 54.6875 
L 18.109375 54.6875 
L 18.109375 46.1875 
Q 20.953125 51.171875 25.484375 53.578125 
Q 30.03125 56 36.53125 56 
Q 37.453125 56 38.578125 55.875 
Q 39.703125 55.765625 41.0625 55.515625 
z
" id="DejaVuSans-114"/>
     <path d="M 31 75.875 
Q 24.46875 64.65625 21.28125 53.65625 
Q 18.109375 42.671875 18.109375 31.390625 
Q 18.109375 20.125 21.3125 9.0625 
Q 24.515625 -2 31 -13.1875 
L 23.1875 -13.1875 
Q 15.875 -1.703125 12.234375 9.375 
Q 8.59375 20.453125 8.59375 31.390625 
Q 8.59375 42.28125 12.203125 53.3125 
Q 15.828125 64.359375 23.1875 75.875 
z
" id="DejaVuSans-40"/>
     <path d="M 48.6875 27.296875 
Q 48.6875 37.203125 44.609375 42.84375 
Q 40.53125 48.484375 33.40625 48.484375 
Q 26.265625 48.484375 22.1875 42.84375 
Q 18.109375 37.203125 18.109375 27.296875 
Q 18.109375 17.390625 22.1875 11.75 
Q 26.265625 6.109375 33.40625 6.109375 
Q 40.53125 6.109375 44.609375 11.75 
Q 48.6875 17.390625 48.6875 27.296875 
z
M 18.109375 46.390625 
Q 20.953125 51.265625 25.265625 53.625 
Q 29.59375 56 35.59375 56 
Q 45.5625 56 51.78125 48.09375 
Q 58.015625 40.1875 58.015625 27.296875 
Q 58.015625 14.40625 51.78125 6.484375 
Q 45.5625 -1.421875 35.59375 -1.421875 
Q 29.59375 -1.421875 25.265625 0.953125 
Q 20.953125 3.328125 18.109375 8.203125 
L 18.109375 0 
L 9.078125 0 
L 9.078125 75.984375 
L 18.109375 75.984375 
z
" id="DejaVuSans-98"/>
     <path d="M 8.015625 75.875 
L 15.828125 75.875 
Q 23.140625 64.359375 26.78125 53.3125 
Q 30.421875 42.28125 30.421875 31.390625 
Q 30.421875 20.453125 26.78125 9.375 
Q 23.140625 -1.703125 15.828125 -13.1875 
L 8.015625 -13.1875 
Q 14.5 -2 17.703125 9.0625 
Q 20.90625 20.125 20.90625 31.390625 
Q 20.90625 42.671875 17.703125 53.65625 
Q 14.5 64.65625 8.015625 75.875 
z
" id="DejaVuSans-41"/>
    </defs>
    <use xlink:href="#DejaVuSans-108"/>
    <use x="27.783203" xlink:href="#DejaVuSans-101"/>
    <use x="89.306641" xlink:href="#DejaVuSans-110"/>
    <use x="152.685547" xlink:href="#DejaVuSans-101"/>
    <use x="214.208984" xlink:href="#DejaVuSans-116"/>
    <use x="253.417969" xlink:href="#DejaVuSans-32"/>
    <use x="285.205078" xlink:href="#DejaVuSans-111"/>
    <use x="346.386719" xlink:href="#DejaVuSans-110"/>
    <use x="409.765625" xlink:href="#DejaVuSans-32"/>
    <use x="441.552734" xlink:href="#DejaVuSans-99"/>
    <use x="496.533203" xlink:href="#DejaVuSans-105"/>
    <use x="524.316406" xlink:href="#DejaVuSans-102"/>
    <use x="559.521484" xlink:href="#DejaVuSans-97"/>
    <use x="620.800781" xlink:href="#DejaVuSans-114"/>
    <use x="661.914062" xlink:href="#DejaVuSans-49"/>
    <use x="725.537109" xlink:href="#DejaVuSans-48"/>
    <use x="789.160156" xlink:href="#DejaVuSans-48"/>
    <use x="852.783203" xlink:href="#DejaVuSans-32"/>
    <use x="884.570312" xlink:href="#DejaVuSans-40"/>
    <use x="923.583984" xlink:href="#DejaVuSans-98"/>
    <use x="987.060547" xlink:href="#DejaVuSans-110"/>
    <use x="1050.439453" xlink:href="#DejaVuSans-41"/>
   </g>
  </g>
 </g>
 <defs>
  <clipPath id="p44fe8464f3">
   <rect height="155.232" width="121.304348" x="90" y="24.192"/>
  </clipPath>
  <clipPath id="p0697a2c6eb">
   <rect height="155.232" width="121.304348" x="235.565217" y="24.192"/>
  </clipPath>
  <clipPath id="pdc758e25f4">
   <rect height="155.232" width="121.304348" x="381.130435" y="24.192"/>
  </clipPath>
  <clipPath id="p3c97a07717">
   <rect height="155.232" width="121.304348" x="526.695652" y="24.192"/>
  </clipPath>
 </defs>
</svg>
