<?xml version="1.0" encoding="utf-8" standalone="no"?>
<!DOCTYPE svg PUBLIC "-//W3C//DTD SVG 1.1//EN"
  "http://www.w3.org/Graphics/SVG/1.1/DTD/svg11.dtd">
<!-- Created with matplotlib (https://matplotlib.org/) -->
<svg height="201.6pt" version="1.1" viewBox="0 0 900 201.6" width="900pt" xmlns="http://www.w3.org/2000/svg" xmlns:xlink="http://www.w3.org/1999/xlink">
 <metadata>
  <rdf:RDF xmlns:cc="http://creativecommons.org/ns#" xmlns:dc="http://purl.org/dc/elements/1.1/" xmlns:rdf="http://www.w3.org/1999/02/22-rdf-syntax-ns#">
   <cc:Work>
    <dc:type rdf:resource="http://purl.org/dc/dcmitype/StillImage"/>
    <dc:date>2021-01-23T14:19:48.254190</dc:date>
    <dc:format>image/svg+xml</dc:format>
    <dc:creator>
     <cc:Agent>
      <dc:title>Matplotlib v3.3.3, https://matplotlib.org/</dc:title>
     </cc:Agent>
    </dc:creator>
   </cc:Work>
  </rdf:RDF>
 </metadata>
 <defs>
  <style type="text/css">*{stroke-linecap:butt;stroke-linejoin:round;}</style>
 </defs>
 <g id="figure_1">
  <g id="patch_1">
   <path d="M 0 201.6 
L 900 201.6 
L 900 0 
L 0 0 
z
" style="fill:#ffffff;"/>
  </g>
  <g id="axes_1">
   <g id="patch_2">
    <path d="M 112.5 179.424 
L 232.758621 179.424 
L 232.758621 24.192 
L 112.5 24.192 
z
" style="fill:#ffffff;"/>
   </g>
   <g id="matplotlib.axis_1">
    <g id="xtick_1">
     <g id="line2d_1">
      <defs>
       <path d="M 0 0 
L 0 3.5 
" id="m0fc578d6c5" style="stroke:#000000;stroke-width:0.8;"/>
      </defs>
      <g>
       <use style="stroke:#000000;stroke-width:0.8;" x="119.332876" xlink:href="#m0fc578d6c5" y="179.424"/>
      </g>
     </g>
     <g id="text_1">
      <!-- −2 -->
      <g transform="translate(111.961782 194.022437)scale(0.1 -0.1)">
       <defs>
        <path d="M 10.59375 35.5 
L 73.1875 35.5 
L 73.1875 27.203125 
L 10.59375 27.203125 
z
" id="DejaVuSans-8722"/>
        <path d="M 19.1875 8.296875 
L 53.609375 8.296875 
L 53.609375 0 
L 7.328125 0 
L 7.328125 8.296875 
Q 12.9375 14.109375 22.625 23.890625 
Q 32.328125 33.6875 34.8125 36.53125 
Q 39.546875 41.84375 41.421875 45.53125 
Q 43.3125 49.21875 43.3125 52.78125 
Q 43.3125 58.59375 39.234375 62.25 
Q 35.15625 65.921875 28.609375 65.921875 
Q 23.96875 65.921875 18.8125 64.3125 
Q 13.671875 62.703125 7.8125 59.421875 
L 7.8125 69.390625 
Q 13.765625 71.78125 18.9375 73 
Q 24.125 74.21875 28.421875 74.21875 
Q 39.75 74.21875 46.484375 68.546875 
Q 53.21875 62.890625 53.21875 53.421875 
Q 53.21875 48.921875 51.53125 44.890625 
Q 49.859375 40.875 45.40625 35.40625 
Q 44.1875 33.984375 37.640625 27.21875 
Q 31.109375 20.453125 19.1875 8.296875 
z
" id="DejaVuSans-50"/>
       </defs>
       <use xlink:href="#DejaVuSans-8722"/>
       <use x="83.789062" xlink:href="#DejaVuSans-50"/>
      </g>
     </g>
    </g>
    <g id="xtick_2">
     <g id="line2d_2">
      <g>
       <use style="stroke:#000000;stroke-width:0.8;" x="173.995886" xlink:href="#m0fc578d6c5" y="179.424"/>
      </g>
     </g>
     <g id="text_2">
      <!-- 0 -->
      <g transform="translate(170.814636 194.022437)scale(0.1 -0.1)">
       <defs>
        <path d="M 31.78125 66.40625 
Q 24.171875 66.40625 20.328125 58.90625 
Q 16.5 51.421875 16.5 36.375 
Q 16.5 21.390625 20.328125 13.890625 
Q 24.171875 6.390625 31.78125 6.390625 
Q 39.453125 6.390625 43.28125 13.890625 
Q 47.125 21.390625 47.125 36.375 
Q 47.125 51.421875 43.28125 58.90625 
Q 39.453125 66.40625 31.78125 66.40625 
z
M 31.78125 74.21875 
Q 44.046875 74.21875 50.515625 64.515625 
Q 56.984375 54.828125 56.984375 36.375 
Q 56.984375 17.96875 50.515625 8.265625 
Q 44.046875 -1.421875 31.78125 -1.421875 
Q 19.53125 -1.421875 13.0625 8.265625 
Q 6.59375 17.96875 6.59375 36.375 
Q 6.59375 54.828125 13.0625 64.515625 
Q 19.53125 74.21875 31.78125 74.21875 
z
" id="DejaVuSans-48"/>
       </defs>
       <use xlink:href="#DejaVuSans-48"/>
      </g>
     </g>
    </g>
    <g id="xtick_3">
     <g id="line2d_3">
      <g>
       <use style="stroke:#000000;stroke-width:0.8;" x="228.658895" xlink:href="#m0fc578d6c5" y="179.424"/>
      </g>
     </g>
     <g id="text_3">
      <!-- 2 -->
      <g transform="translate(225.477645 194.022437)scale(0.1 -0.1)">
       <use xlink:href="#DejaVuSans-50"/>
      </g>
     </g>
    </g>
   </g>
   <g id="matplotlib.axis_2">
    <g id="ytick_1">
     <g id="line2d_4">
      <defs>
       <path d="M 0 0 
L -3.5 0 
" id="m97d7f64029" style="stroke:#000000;stroke-width:0.8;"/>
      </defs>
      <g>
       <use style="stroke:#000000;stroke-width:0.8;" x="112.5" xlink:href="#m97d7f64029" y="171.913053"/>
      </g>
     </g>
     <g id="text_4">
      <!-- −0.4 -->
      <g transform="translate(81.217187 175.712272)scale(0.1 -0.1)">
       <defs>
        <path d="M 10.6875 12.40625 
L 21 12.40625 
L 21 0 
L 10.6875 0 
z
" id="DejaVuSans-46"/>
        <path d="M 37.796875 64.3125 
L 12.890625 25.390625 
L 37.796875 25.390625 
z
M 35.203125 72.90625 
L 47.609375 72.90625 
L 47.609375 25.390625 
L 58.015625 25.390625 
L 58.015625 17.1875 
L 47.609375 17.1875 
L 47.609375 0 
L 37.796875 0 
L 37.796875 17.1875 
L 4.890625 17.1875 
L 4.890625 26.703125 
z
" id="DejaVuSans-52"/>
       </defs>
       <use xlink:href="#DejaVuSans-8722"/>
       <use x="83.789062" xlink:href="#DejaVuSans-48"/>
       <use x="147.412109" xlink:href="#DejaVuSans-46"/>
       <use x="179.199219" xlink:href="#DejaVuSans-52"/>
      </g>
     </g>
    </g>
    <g id="ytick_2">
     <g id="line2d_5">
      <g>
       <use style="stroke:#000000;stroke-width:0.8;" x="112.5" xlink:href="#m97d7f64029" y="141.068166"/>
      </g>
     </g>
     <g id="text_5">
      <!-- −0.2 -->
      <g transform="translate(81.217187 144.867385)scale(0.1 -0.1)">
       <use xlink:href="#DejaVuSans-8722"/>
       <use x="83.789062" xlink:href="#DejaVuSans-48"/>
       <use x="147.412109" xlink:href="#DejaVuSans-46"/>
       <use x="179.199219" xlink:href="#DejaVuSans-50"/>
      </g>
     </g>
    </g>
    <g id="ytick_3">
     <g id="line2d_6">
      <g>
       <use style="stroke:#000000;stroke-width:0.8;" x="112.5" xlink:href="#m97d7f64029" y="110.223279"/>
      </g>
     </g>
     <g id="text_6">
      <!-- 0.0 -->
      <g transform="translate(89.596875 114.022498)scale(0.1 -0.1)">
       <use xlink:href="#DejaVuSans-48"/>
       <use x="63.623047" xlink:href="#DejaVuSans-46"/>
       <use x="95.410156" xlink:href="#DejaVuSans-48"/>
      </g>
     </g>
    </g>
    <g id="ytick_4">
     <g id="line2d_7">
      <g>
       <use style="stroke:#000000;stroke-width:0.8;" x="112.5" xlink:href="#m97d7f64029" y="79.378392"/>
      </g>
     </g>
     <g id="text_7">
      <!-- 0.2 -->
      <g transform="translate(89.596875 83.17761)scale(0.1 -0.1)">
       <use xlink:href="#DejaVuSans-48"/>
       <use x="63.623047" xlink:href="#DejaVuSans-46"/>
       <use x="95.410156" xlink:href="#DejaVuSans-50"/>
      </g>
     </g>
    </g>
    <g id="ytick_5">
     <g id="line2d_8">
      <g>
       <use style="stroke:#000000;stroke-width:0.8;" x="112.5" xlink:href="#m97d7f64029" y="48.533505"/>
      </g>
     </g>
     <g id="text_8">
      <!-- 0.4 -->
      <g transform="translate(89.596875 52.332723)scale(0.1 -0.1)">
       <use xlink:href="#DejaVuSans-48"/>
       <use x="63.623047" xlink:href="#DejaVuSans-46"/>
       <use x="95.410156" xlink:href="#DejaVuSans-52"/>
      </g>
     </g>
    </g>
   </g>
   <g id="line2d_9">
    <path clip-path="url(#p6897938a52)" d="M 119.332876 69.322455 
L 122.066027 71.410511 
L 124.799178 73.474113 
L 127.532326 75.520812 
L 130.265477 77.564533 
L 132.998629 79.628443 
L 135.73178 81.748926 
L 138.464931 83.980737 
L 141.198079 86.403561 
L 143.93123 89.129723 
L 146.664381 92.312286 
L 149.397532 96.151381 
L 152.130681 100.894677 
L 154.863833 106.82424 
L 157.596982 114.217535 
L 160.330133 123.265993 
L 163.063284 133.933558 
L 165.796434 145.749182 
L 168.529585 157.562898 
L 171.262735 167.366158 
L 173.995886 172.368 
L 176.729036 159.870838 
L 179.462187 143.210711 
L 182.195337 124.712977 
L 184.928488 106.312494 
L 187.661638 89.345379 
L 190.394789 74.565264 
L 193.127939 62.267846 
L 195.86109 52.439357 
L 198.594239 44.885624 
L 201.32739 39.32685 
L 204.060541 35.459476 
L 206.793693 32.992064 
L 209.52684 31.66317 
L 212.259992 31.248 
L 214.993143 31.558642 
L 217.726294 32.440974 
L 220.459445 33.770268 
L 223.192593 35.446533 
L 225.925744 37.39012 
" style="fill:none;stroke:#1f77b4;stroke-linecap:square;stroke-width:1.5;"/>
   </g>
   <g id="patch_3">
    <path d="M 112.5 179.424 
L 112.5 24.192 
" style="fill:none;stroke:#000000;stroke-linecap:square;stroke-linejoin:miter;stroke-width:0.8;"/>
   </g>
   <g id="patch_4">
    <path d="M 232.758621 179.424 
L 232.758621 24.192 
" style="fill:none;stroke:#000000;stroke-linecap:square;stroke-linejoin:miter;stroke-width:0.8;"/>
   </g>
   <g id="patch_5">
    <path d="M 112.5 179.424 
L 232.758621 179.424 
" style="fill:none;stroke:#000000;stroke-linecap:square;stroke-linejoin:miter;stroke-width:0.8;"/>
   </g>
   <g id="patch_6">
    <path d="M 112.5 24.192 
L 232.758621 24.192 
" style="fill:none;stroke:#000000;stroke-linecap:square;stroke-linejoin:miter;stroke-width:0.8;"/>
   </g>
  </g>
  <g id="axes_2">
   <g id="patch_7">
    <path d="M 256.810345 179.424 
L 377.068966 179.424 
L 377.068966 24.192 
L 256.810345 24.192 
z
" style="fill:#ffffff;"/>
   </g>
   <g id="matplotlib.axis_3">
    <g id="xtick_4">
     <g id="line2d_10">
      <g>
       <use style="stroke:#000000;stroke-width:0.8;" x="283.010891" xlink:href="#m0fc578d6c5" y="179.424"/>
      </g>
     </g>
     <g id="text_9">
      <!-- −1 -->
      <g transform="translate(275.639797 194.022437)scale(0.1 -0.1)">
       <defs>
        <path d="M 12.40625 8.296875 
L 28.515625 8.296875 
L 28.515625 63.921875 
L 10.984375 60.40625 
L 10.984375 69.390625 
L 28.421875 72.90625 
L 38.28125 72.90625 
L 38.28125 8.296875 
L 54.390625 8.296875 
L 54.390625 0 
L 12.40625 0 
z
" id="DejaVuSans-49"/>
       </defs>
       <use xlink:href="#DejaVuSans-8722"/>
       <use x="83.789062" xlink:href="#DejaVuSans-49"/>
      </g>
     </g>
    </g>
    <g id="xtick_5">
     <g id="line2d_11">
      <g>
       <use style="stroke:#000000;stroke-width:0.8;" x="320.709518" xlink:href="#m0fc578d6c5" y="179.424"/>
      </g>
     </g>
     <g id="text_10">
      <!-- 0 -->
      <g transform="translate(317.528268 194.022437)scale(0.1 -0.1)">
       <use xlink:href="#DejaVuSans-48"/>
      </g>
     </g>
    </g>
    <g id="xtick_6">
     <g id="line2d_12">
      <g>
       <use style="stroke:#000000;stroke-width:0.8;" x="358.408145" xlink:href="#m0fc578d6c5" y="179.424"/>
      </g>
     </g>
     <g id="text_11">
      <!-- 1 -->
      <g transform="translate(355.226895 194.022437)scale(0.1 -0.1)">
       <use xlink:href="#DejaVuSans-49"/>
      </g>
     </g>
    </g>
   </g>
   <g id="matplotlib.axis_4">
    <g id="ytick_6">
     <g id="line2d_13">
      <g>
       <use style="stroke:#000000;stroke-width:0.8;" x="256.810345" xlink:href="#m97d7f64029" y="177.136593"/>
      </g>
     </g>
     <g id="text_12">
      <!-- −0.2 -->
      <g transform="translate(225.527532 180.935812)scale(0.1 -0.1)">
       <use xlink:href="#DejaVuSans-8722"/>
       <use x="83.789062" xlink:href="#DejaVuSans-48"/>
       <use x="147.412109" xlink:href="#DejaVuSans-46"/>
       <use x="179.199219" xlink:href="#DejaVuSans-50"/>
      </g>
     </g>
    </g>
    <g id="ytick_7">
     <g id="line2d_14">
      <g>
       <use style="stroke:#000000;stroke-width:0.8;" x="256.810345" xlink:href="#m97d7f64029" y="151.399396"/>
      </g>
     </g>
     <g id="text_13">
      <!-- 0.0 -->
      <g transform="translate(233.90722 155.198614)scale(0.1 -0.1)">
       <use xlink:href="#DejaVuSans-48"/>
       <use x="63.623047" xlink:href="#DejaVuSans-46"/>
       <use x="95.410156" xlink:href="#DejaVuSans-48"/>
      </g>
     </g>
    </g>
    <g id="ytick_8">
     <g id="line2d_15">
      <g>
       <use style="stroke:#000000;stroke-width:0.8;" x="256.810345" xlink:href="#m97d7f64029" y="125.662198"/>
      </g>
     </g>
     <g id="text_14">
      <!-- 0.2 -->
      <g transform="translate(233.90722 129.461417)scale(0.1 -0.1)">
       <use xlink:href="#DejaVuSans-48"/>
       <use x="63.623047" xlink:href="#DejaVuSans-46"/>
       <use x="95.410156" xlink:href="#DejaVuSans-50"/>
      </g>
     </g>
    </g>
    <g id="ytick_9">
     <g id="line2d_16">
      <g>
       <use style="stroke:#000000;stroke-width:0.8;" x="256.810345" xlink:href="#m97d7f64029" y="99.925"/>
      </g>
     </g>
     <g id="text_15">
      <!-- 0.4 -->
      <g transform="translate(233.90722 103.724219)scale(0.1 -0.1)">
       <use xlink:href="#DejaVuSans-48"/>
       <use x="63.623047" xlink:href="#DejaVuSans-46"/>
       <use x="95.410156" xlink:href="#DejaVuSans-52"/>
      </g>
     </g>
    </g>
    <g id="ytick_10">
     <g id="line2d_17">
      <g>
       <use style="stroke:#000000;stroke-width:0.8;" x="256.810345" xlink:href="#m97d7f64029" y="74.187802"/>
      </g>
     </g>
     <g id="text_16">
      <!-- 0.6 -->
      <g transform="translate(233.90722 77.987021)scale(0.1 -0.1)">
       <defs>
        <path d="M 33.015625 40.375 
Q 26.375 40.375 22.484375 35.828125 
Q 18.609375 31.296875 18.609375 23.390625 
Q 18.609375 15.53125 22.484375 10.953125 
Q 26.375 6.390625 33.015625 6.390625 
Q 39.65625 6.390625 43.53125 10.953125 
Q 47.40625 15.53125 47.40625 23.390625 
Q 47.40625 31.296875 43.53125 35.828125 
Q 39.65625 40.375 33.015625 40.375 
z
M 52.59375 71.296875 
L 52.59375 62.3125 
Q 48.875 64.0625 45.09375 64.984375 
Q 41.3125 65.921875 37.59375 65.921875 
Q 27.828125 65.921875 22.671875 59.328125 
Q 17.53125 52.734375 16.796875 39.40625 
Q 19.671875 43.65625 24.015625 45.921875 
Q 28.375 48.1875 33.59375 48.1875 
Q 44.578125 48.1875 50.953125 41.515625 
Q 57.328125 34.859375 57.328125 23.390625 
Q 57.328125 12.15625 50.6875 5.359375 
Q 44.046875 -1.421875 33.015625 -1.421875 
Q 20.359375 -1.421875 13.671875 8.265625 
Q 6.984375 17.96875 6.984375 36.375 
Q 6.984375 53.65625 15.1875 63.9375 
Q 23.390625 74.21875 37.203125 74.21875 
Q 40.921875 74.21875 44.703125 73.484375 
Q 48.484375 72.75 52.59375 71.296875 
z
" id="DejaVuSans-54"/>
       </defs>
       <use xlink:href="#DejaVuSans-48"/>
       <use x="63.623047" xlink:href="#DejaVuSans-46"/>
       <use x="95.410156" xlink:href="#DejaVuSans-54"/>
      </g>
     </g>
    </g>
    <g id="ytick_11">
     <g id="line2d_18">
      <g>
       <use style="stroke:#000000;stroke-width:0.8;" x="256.810345" xlink:href="#m97d7f64029" y="48.450605"/>
      </g>
     </g>
     <g id="text_17">
      <!-- 0.8 -->
      <g transform="translate(233.90722 52.249823)scale(0.1 -0.1)">
       <defs>
        <path d="M 31.78125 34.625 
Q 24.75 34.625 20.71875 30.859375 
Q 16.703125 27.09375 16.703125 20.515625 
Q 16.703125 13.921875 20.71875 10.15625 
Q 24.75 6.390625 31.78125 6.390625 
Q 38.8125 6.390625 42.859375 10.171875 
Q 46.921875 13.96875 46.921875 20.515625 
Q 46.921875 27.09375 42.890625 30.859375 
Q 38.875 34.625 31.78125 34.625 
z
M 21.921875 38.8125 
Q 15.578125 40.375 12.03125 44.71875 
Q 8.5 49.078125 8.5 55.328125 
Q 8.5 64.0625 14.71875 69.140625 
Q 20.953125 74.21875 31.78125 74.21875 
Q 42.671875 74.21875 48.875 69.140625 
Q 55.078125 64.0625 55.078125 55.328125 
Q 55.078125 49.078125 51.53125 44.71875 
Q 48 40.375 41.703125 38.8125 
Q 48.828125 37.15625 52.796875 32.3125 
Q 56.78125 27.484375 56.78125 20.515625 
Q 56.78125 9.90625 50.3125 4.234375 
Q 43.84375 -1.421875 31.78125 -1.421875 
Q 19.734375 -1.421875 13.25 4.234375 
Q 6.78125 9.90625 6.78125 20.515625 
Q 6.78125 27.484375 10.78125 32.3125 
Q 14.796875 37.15625 21.921875 38.8125 
z
M 18.3125 54.390625 
Q 18.3125 48.734375 21.84375 45.5625 
Q 25.390625 42.390625 31.78125 42.390625 
Q 38.140625 42.390625 41.71875 45.5625 
Q 45.3125 48.734375 45.3125 54.390625 
Q 45.3125 60.0625 41.71875 63.234375 
Q 38.140625 66.40625 31.78125 66.40625 
Q 25.390625 66.40625 21.84375 63.234375 
Q 18.3125 60.0625 18.3125 54.390625 
z
" id="DejaVuSans-56"/>
       </defs>
       <use xlink:href="#DejaVuSans-48"/>
       <use x="63.623047" xlink:href="#DejaVuSans-46"/>
       <use x="95.410156" xlink:href="#DejaVuSans-56"/>
      </g>
     </g>
    </g>
   </g>
   <g id="line2d_19">
    <path clip-path="url(#p4402170b2f)" d="M 264.161577 40.283271 
L 267.931441 58.009823 
L 271.701304 74.873584 
L 275.471163 90.709726 
L 279.241027 105.354455 
L 283.010891 118.656232 
L 286.780754 130.490353 
L 290.550616 140.775448 
L 294.320479 149.489021 
L 298.090341 156.67608 
L 301.860204 162.441662 
L 305.630067 166.914577 
L 309.399929 170.170959 
L 313.169792 172.117864 
L 316.939655 172.368 
L 320.709518 170.182777 
L 324.479381 163.218794 
L 328.249243 154.080296 
L 332.019106 143.07337 
L 335.788969 130.631455 
L 339.558831 117.272824 
L 343.328695 103.543214 
L 347.098556 89.963339 
L 350.86842 76.991111 
L 354.638281 65.000434 
L 358.408145 54.274073 
L 362.178009 45.006715 
L 365.947872 37.314572 
L 369.717731 31.248 
" style="fill:none;stroke:#1f77b4;stroke-linecap:square;stroke-width:1.5;"/>
   </g>
   <g id="patch_8">
    <path d="M 256.810345 179.424 
L 256.810345 24.192 
" style="fill:none;stroke:#000000;stroke-linecap:square;stroke-linejoin:miter;stroke-width:0.8;"/>
   </g>
   <g id="patch_9">
    <path d="M 377.068966 179.424 
L 377.068966 24.192 
" style="fill:none;stroke:#000000;stroke-linecap:square;stroke-linejoin:miter;stroke-width:0.8;"/>
   </g>
   <g id="patch_10">
    <path d="M 256.810345 179.424 
L 377.068966 179.424 
" style="fill:none;stroke:#000000;stroke-linecap:square;stroke-linejoin:miter;stroke-width:0.8;"/>
   </g>
   <g id="patch_11">
    <path d="M 256.810345 24.192 
L 377.068966 24.192 
" style="fill:none;stroke:#000000;stroke-linecap:square;stroke-linejoin:miter;stroke-width:0.8;"/>
   </g>
  </g>
  <g id="axes_3">
   <g id="patch_12">
    <path d="M 401.12069 179.424 
L 521.37931 179.424 
L 521.37931 24.192 
L 401.12069 24.192 
z
" style="fill:#ffffff;"/>
   </g>
   <g id="matplotlib.axis_5">
    <g id="xtick_7">
     <g id="line2d_20">
      <g>
       <use style="stroke:#000000;stroke-width:0.8;" x="423.551373" xlink:href="#m0fc578d6c5" y="179.424"/>
      </g>
     </g>
     <g id="text_18">
      <!-- −1 -->
      <g transform="translate(416.180279 194.022437)scale(0.1 -0.1)">
       <use xlink:href="#DejaVuSans-8722"/>
       <use x="83.789062" xlink:href="#DejaVuSans-49"/>
      </g>
     </g>
    </g>
    <g id="xtick_8">
     <g id="line2d_21">
      <g>
       <use style="stroke:#000000;stroke-width:0.8;" x="461.25" xlink:href="#m0fc578d6c5" y="179.424"/>
      </g>
     </g>
     <g id="text_19">
      <!-- 0 -->
      <g transform="translate(458.06875 194.022437)scale(0.1 -0.1)">
       <use xlink:href="#DejaVuSans-48"/>
      </g>
     </g>
    </g>
    <g id="xtick_9">
     <g id="line2d_22">
      <g>
       <use style="stroke:#000000;stroke-width:0.8;" x="498.948627" xlink:href="#m0fc578d6c5" y="179.424"/>
      </g>
     </g>
     <g id="text_20">
      <!-- 1 -->
      <g transform="translate(495.767377 194.022437)scale(0.1 -0.1)">
       <use xlink:href="#DejaVuSans-49"/>
      </g>
     </g>
    </g>
   </g>
   <g id="matplotlib.axis_6">
    <g id="ytick_12">
     <g id="line2d_23">
      <g>
       <use style="stroke:#000000;stroke-width:0.8;" x="401.12069" xlink:href="#m97d7f64029" y="146.361031"/>
      </g>
     </g>
     <g id="text_21">
      <!-- 0.0 -->
      <g transform="translate(378.217565 150.16025)scale(0.1 -0.1)">
       <use xlink:href="#DejaVuSans-48"/>
       <use x="63.623047" xlink:href="#DejaVuSans-46"/>
       <use x="95.410156" xlink:href="#DejaVuSans-48"/>
      </g>
     </g>
    </g>
    <g id="ytick_13">
     <g id="line2d_24">
      <g>
       <use style="stroke:#000000;stroke-width:0.8;" x="401.12069" xlink:href="#m97d7f64029" y="112.756093"/>
      </g>
     </g>
     <g id="text_22">
      <!-- 0.5 -->
      <g transform="translate(378.217565 116.555312)scale(0.1 -0.1)">
       <defs>
        <path d="M 10.796875 72.90625 
L 49.515625 72.90625 
L 49.515625 64.59375 
L 19.828125 64.59375 
L 19.828125 46.734375 
Q 21.96875 47.46875 24.109375 47.828125 
Q 26.265625 48.1875 28.421875 48.1875 
Q 40.625 48.1875 47.75 41.5 
Q 54.890625 34.8125 54.890625 23.390625 
Q 54.890625 11.625 47.5625 5.09375 
Q 40.234375 -1.421875 26.90625 -1.421875 
Q 22.3125 -1.421875 17.546875 -0.640625 
Q 12.796875 0.140625 7.71875 1.703125 
L 7.71875 11.625 
Q 12.109375 9.234375 16.796875 8.0625 
Q 21.484375 6.890625 26.703125 6.890625 
Q 35.15625 6.890625 40.078125 11.328125 
Q 45.015625 15.765625 45.015625 23.390625 
Q 45.015625 31 40.078125 35.4375 
Q 35.15625 39.890625 26.703125 39.890625 
Q 22.75 39.890625 18.8125 39.015625 
Q 14.890625 38.140625 10.796875 36.28125 
z
" id="DejaVuSans-53"/>
       </defs>
       <use xlink:href="#DejaVuSans-48"/>
       <use x="63.623047" xlink:href="#DejaVuSans-46"/>
       <use x="95.410156" xlink:href="#DejaVuSans-53"/>
      </g>
     </g>
    </g>
    <g id="ytick_14">
     <g id="line2d_25">
      <g>
       <use style="stroke:#000000;stroke-width:0.8;" x="401.12069" xlink:href="#m97d7f64029" y="79.151155"/>
      </g>
     </g>
     <g id="text_23">
      <!-- 1.0 -->
      <g transform="translate(378.217565 82.950374)scale(0.1 -0.1)">
       <use xlink:href="#DejaVuSans-49"/>
       <use x="63.623047" xlink:href="#DejaVuSans-46"/>
       <use x="95.410156" xlink:href="#DejaVuSans-48"/>
      </g>
     </g>
    </g>
    <g id="ytick_15">
     <g id="line2d_26">
      <g>
       <use style="stroke:#000000;stroke-width:0.8;" x="401.12069" xlink:href="#m97d7f64029" y="45.546217"/>
      </g>
     </g>
     <g id="text_24">
      <!-- 1.5 -->
      <g transform="translate(378.217565 49.345436)scale(0.1 -0.1)">
       <use xlink:href="#DejaVuSans-49"/>
       <use x="63.623047" xlink:href="#DejaVuSans-46"/>
       <use x="95.410156" xlink:href="#DejaVuSans-53"/>
      </g>
     </g>
    </g>
   </g>
   <g id="line2d_27">
    <path clip-path="url(#p0e3278661c)" d="M 408.471923 120.083025 
L 412.241786 124.008811 
L 416.011646 127.980751 
L 419.781509 131.945784 
L 423.551373 135.857618 
L 427.321236 139.681962 
L 431.091098 143.402383 
L 434.860961 147.026065 
L 438.630823 150.587647 
L 442.400686 154.147785 
L 446.170549 157.78047 
L 449.940411 161.540513 
L 453.710274 165.402109 
L 457.480137 169.167316 
L 461.25 172.368 
L 465.019863 170.603596 
L 468.789726 167.336007 
L 472.559589 162.63473 
L 476.329451 156.560462 
L 480.099314 149.160773 
L 483.869177 140.475553 
L 487.639039 130.54476 
L 491.408902 119.41451 
L 495.178764 107.140545 
L 498.948627 93.789243 
L 502.718491 79.436993 
L 506.488354 64.168405 
L 510.258214 48.074064 
L 514.028077 31.248 
" style="fill:none;stroke:#1f77b4;stroke-linecap:square;stroke-width:1.5;"/>
   </g>
   <g id="patch_13">
    <path d="M 401.12069 179.424 
L 401.12069 24.192 
" style="fill:none;stroke:#000000;stroke-linecap:square;stroke-linejoin:miter;stroke-width:0.8;"/>
   </g>
   <g id="patch_14">
    <path d="M 521.37931 179.424 
L 521.37931 24.192 
" style="fill:none;stroke:#000000;stroke-linecap:square;stroke-linejoin:miter;stroke-width:0.8;"/>
   </g>
   <g id="patch_15">
    <path d="M 401.12069 179.424 
L 521.37931 179.424 
" style="fill:none;stroke:#000000;stroke-linecap:square;stroke-linejoin:miter;stroke-width:0.8;"/>
   </g>
   <g id="patch_16">
    <path d="M 401.12069 24.192 
L 521.37931 24.192 
" style="fill:none;stroke:#000000;stroke-linecap:square;stroke-linejoin:miter;stroke-width:0.8;"/>
   </g>
  </g>
  <g id="axes_4">
   <g id="patch_17">
    <path d="M 545.431034 179.424 
L 665.689655 179.424 
L 665.689655 24.192 
L 545.431034 24.192 
z
" style="fill:#ffffff;"/>
   </g>
   <g id="matplotlib.axis_7">
    <g id="xtick_10">
     <g id="line2d_28">
      <g>
       <use style="stroke:#000000;stroke-width:0.8;" x="570.940439" xlink:href="#m0fc578d6c5" y="179.424"/>
      </g>
     </g>
     <g id="text_25">
      <!-- −1 -->
      <g transform="translate(563.569345 194.022437)scale(0.1 -0.1)">
       <use xlink:href="#DejaVuSans-8722"/>
       <use x="83.789062" xlink:href="#DejaVuSans-49"/>
      </g>
     </g>
    </g>
    <g id="xtick_11">
     <g id="line2d_29">
      <g>
       <use style="stroke:#000000;stroke-width:0.8;" x="607.382445" xlink:href="#m0fc578d6c5" y="179.424"/>
      </g>
     </g>
     <g id="text_26">
      <!-- 0 -->
      <g transform="translate(604.201195 194.022437)scale(0.1 -0.1)">
       <use xlink:href="#DejaVuSans-48"/>
      </g>
     </g>
    </g>
    <g id="xtick_12">
     <g id="line2d_30">
      <g>
       <use style="stroke:#000000;stroke-width:0.8;" x="643.824451" xlink:href="#m0fc578d6c5" y="179.424"/>
      </g>
     </g>
     <g id="text_27">
      <!-- 1 -->
      <g transform="translate(640.643201 194.022437)scale(0.1 -0.1)">
       <use xlink:href="#DejaVuSans-49"/>
      </g>
     </g>
    </g>
   </g>
   <g id="matplotlib.axis_8">
    <g id="ytick_16">
     <g id="line2d_31">
      <g>
       <use style="stroke:#000000;stroke-width:0.8;" x="545.431034" xlink:href="#m97d7f64029" y="153.579005"/>
      </g>
     </g>
     <g id="text_28">
      <!-- 0.0 -->
      <g transform="translate(522.527909 157.378223)scale(0.1 -0.1)">
       <use xlink:href="#DejaVuSans-48"/>
       <use x="63.623047" xlink:href="#DejaVuSans-46"/>
       <use x="95.410156" xlink:href="#DejaVuSans-48"/>
      </g>
     </g>
    </g>
    <g id="ytick_17">
     <g id="line2d_32">
      <g>
       <use style="stroke:#000000;stroke-width:0.8;" x="545.431034" xlink:href="#m97d7f64029" y="121.120219"/>
      </g>
     </g>
     <g id="text_29">
      <!-- 0.5 -->
      <g transform="translate(522.527909 124.919438)scale(0.1 -0.1)">
       <use xlink:href="#DejaVuSans-48"/>
       <use x="63.623047" xlink:href="#DejaVuSans-46"/>
       <use x="95.410156" xlink:href="#DejaVuSans-53"/>
      </g>
     </g>
    </g>
    <g id="ytick_18">
     <g id="line2d_33">
      <g>
       <use style="stroke:#000000;stroke-width:0.8;" x="545.431034" xlink:href="#m97d7f64029" y="88.661433"/>
      </g>
     </g>
     <g id="text_30">
      <!-- 1.0 -->
      <g transform="translate(522.527909 92.460652)scale(0.1 -0.1)">
       <use xlink:href="#DejaVuSans-49"/>
       <use x="63.623047" xlink:href="#DejaVuSans-46"/>
       <use x="95.410156" xlink:href="#DejaVuSans-48"/>
      </g>
     </g>
    </g>
    <g id="ytick_19">
     <g id="line2d_34">
      <g>
       <use style="stroke:#000000;stroke-width:0.8;" x="545.431034" xlink:href="#m97d7f64029" y="56.202648"/>
      </g>
     </g>
     <g id="text_31">
      <!-- 1.5 -->
      <g transform="translate(522.527909 60.001867)scale(0.1 -0.1)">
       <use xlink:href="#DejaVuSans-49"/>
       <use x="63.623047" xlink:href="#DejaVuSans-46"/>
       <use x="95.410156" xlink:href="#DejaVuSans-53"/>
      </g>
     </g>
    </g>
   </g>
   <g id="line2d_35">
    <path clip-path="url(#pc4607fb37f)" d="M 552.719436 152.01094 
L 556.363637 148.272189 
L 560.007839 145.475378 
L 563.652036 143.57194 
L 567.296237 142.506713 
L 570.940439 142.220865 
L 574.58464 142.655927 
L 578.22884 143.758803 
L 581.873041 145.487222 
L 585.517241 147.814231 
L 589.161442 150.728823 
L 592.805642 154.22728 
L 596.449843 158.286774 
L 600.094044 162.811296 
L 603.738244 167.546115 
L 607.382445 171.979842 
L 611.026646 172.368 
L 614.670847 170.917059 
L 618.315047 167.744144 
L 621.959248 162.966019 
L 625.603448 156.659181 
L 629.24765 148.855008 
L 632.891849 139.551689 
L 636.536051 128.729898 
L 640.18025 116.366346 
L 643.824451 102.443248 
L 647.468653 86.954321 
L 651.112854 69.907551 
L 654.757052 51.326173 
L 658.401253 31.248 
" style="fill:none;stroke:#1f77b4;stroke-linecap:square;stroke-width:1.5;"/>
   </g>
   <g id="patch_18">
    <path d="M 545.431034 179.424 
L 545.431034 24.192 
" style="fill:none;stroke:#000000;stroke-linecap:square;stroke-linejoin:miter;stroke-width:0.8;"/>
   </g>
   <g id="patch_19">
    <path d="M 665.689655 179.424 
L 665.689655 24.192 
" style="fill:none;stroke:#000000;stroke-linecap:square;stroke-linejoin:miter;stroke-width:0.8;"/>
   </g>
   <g id="patch_20">
    <path d="M 545.431034 179.424 
L 665.689655 179.424 
" style="fill:none;stroke:#000000;stroke-linecap:square;stroke-linejoin:miter;stroke-width:0.8;"/>
   </g>
   <g id="patch_21">
    <path d="M 545.431034 24.192 
L 665.689655 24.192 
" style="fill:none;stroke:#000000;stroke-linecap:square;stroke-linejoin:miter;stroke-width:0.8;"/>
   </g>
  </g>
  <g id="axes_5">
   <g id="patch_22">
    <path d="M 689.741379 179.424 
L 810 179.424 
L 810 24.192 
L 689.741379 24.192 
z
" style="fill:#ffffff;"/>
   </g>
   <g id="matplotlib.axis_9">
    <g id="xtick_13">
     <g id="line2d_36">
      <g>
       <use style="stroke:#000000;stroke-width:0.8;" x="713.99809" xlink:href="#m0fc578d6c5" y="179.424"/>
      </g>
     </g>
     <g id="text_32">
      <!-- −1 -->
      <g transform="translate(706.626996 194.022437)scale(0.1 -0.1)">
       <use xlink:href="#DejaVuSans-8722"/>
       <use x="83.789062" xlink:href="#DejaVuSans-49"/>
      </g>
     </g>
    </g>
    <g id="xtick_14">
     <g id="line2d_37">
      <g>
       <use style="stroke:#000000;stroke-width:0.8;" x="748.162471" xlink:href="#m0fc578d6c5" y="179.424"/>
      </g>
     </g>
     <g id="text_33">
      <!-- 0 -->
      <g transform="translate(744.981221 194.022437)scale(0.1 -0.1)">
       <use xlink:href="#DejaVuSans-48"/>
      </g>
     </g>
    </g>
    <g id="xtick_15">
     <g id="line2d_38">
      <g>
       <use style="stroke:#000000;stroke-width:0.8;" x="782.326851" xlink:href="#m0fc578d6c5" y="179.424"/>
      </g>
     </g>
     <g id="text_34">
      <!-- 1 -->
      <g transform="translate(779.145601 194.022437)scale(0.1 -0.1)">
       <use xlink:href="#DejaVuSans-49"/>
      </g>
     </g>
    </g>
   </g>
   <g id="matplotlib.axis_10">
    <g id="ytick_20">
     <g id="line2d_39">
      <g>
       <use style="stroke:#000000;stroke-width:0.8;" x="689.741379" xlink:href="#m97d7f64029" y="160.172446"/>
      </g>
     </g>
     <g id="text_35">
      <!-- −1.0 -->
      <g transform="translate(658.458567 163.971665)scale(0.1 -0.1)">
       <use xlink:href="#DejaVuSans-8722"/>
       <use x="83.789062" xlink:href="#DejaVuSans-49"/>
       <use x="147.412109" xlink:href="#DejaVuSans-46"/>
       <use x="179.199219" xlink:href="#DejaVuSans-48"/>
      </g>
     </g>
    </g>
    <g id="ytick_21">
     <g id="line2d_40">
      <g>
       <use style="stroke:#000000;stroke-width:0.8;" x="689.741379" xlink:href="#m97d7f64029" y="130.457145"/>
      </g>
     </g>
     <g id="text_36">
      <!-- −0.5 -->
      <g transform="translate(658.458567 134.256364)scale(0.1 -0.1)">
       <use xlink:href="#DejaVuSans-8722"/>
       <use x="83.789062" xlink:href="#DejaVuSans-48"/>
       <use x="147.412109" xlink:href="#DejaVuSans-46"/>
       <use x="179.199219" xlink:href="#DejaVuSans-53"/>
      </g>
     </g>
    </g>
    <g id="ytick_22">
     <g id="line2d_41">
      <g>
       <use style="stroke:#000000;stroke-width:0.8;" x="689.741379" xlink:href="#m97d7f64029" y="100.741844"/>
      </g>
     </g>
     <g id="text_37">
      <!-- 0.0 -->
      <g transform="translate(666.838254 104.541063)scale(0.1 -0.1)">
       <use xlink:href="#DejaVuSans-48"/>
       <use x="63.623047" xlink:href="#DejaVuSans-46"/>
       <use x="95.410156" xlink:href="#DejaVuSans-48"/>
      </g>
     </g>
    </g>
    <g id="ytick_23">
     <g id="line2d_42">
      <g>
       <use style="stroke:#000000;stroke-width:0.8;" x="689.741379" xlink:href="#m97d7f64029" y="71.026543"/>
      </g>
     </g>
     <g id="text_38">
      <!-- 0.5 -->
      <g transform="translate(666.838254 74.825762)scale(0.1 -0.1)">
       <use xlink:href="#DejaVuSans-48"/>
       <use x="63.623047" xlink:href="#DejaVuSans-46"/>
       <use x="95.410156" xlink:href="#DejaVuSans-53"/>
      </g>
     </g>
    </g>
    <g id="ytick_24">
     <g id="line2d_43">
      <g>
       <use style="stroke:#000000;stroke-width:0.8;" x="689.741379" xlink:href="#m97d7f64029" y="41.311242"/>
      </g>
     </g>
     <g id="text_39">
      <!-- 1.0 -->
      <g transform="translate(666.838254 45.110461)scale(0.1 -0.1)">
       <use xlink:href="#DejaVuSans-49"/>
       <use x="63.623047" xlink:href="#DejaVuSans-46"/>
       <use x="95.410156" xlink:href="#DejaVuSans-48"/>
      </g>
     </g>
    </g>
   </g>
   <g id="line2d_44">
    <path clip-path="url(#p50ac9944a2)" d="M 696.915899 130.946385 
L 700.332338 131.909384 
L 703.748777 133.112561 
L 707.165212 134.624382 
L 710.581651 136.528801 
L 713.99809 138.923908 
L 717.414529 141.914946 
L 720.830966 145.596631 
L 724.247404 150.01733 
L 727.663841 155.116861 
L 731.08028 160.635593 
L 734.496718 166.011852 
L 737.913156 170.323794 
L 741.329594 172.368 
L 744.746032 170.942853 
L 748.162471 165.267273 
L 751.578909 154.239544 
L 754.995347 140.01232 
L 758.411785 123.996812 
L 761.828223 107.770108 
L 765.244661 92.612362 
L 768.6611 79.29174 
L 772.077537 68.09514 
L 775.493976 58.977341 
L 778.910413 51.716341 
L 782.326851 46.025438 
L 785.74329 41.618058 
L 789.159729 38.238029 
L 792.576164 35.66957 
L 795.992603 33.737018 
L 799.409042 32.300089 
L 802.825481 31.248 
" style="fill:none;stroke:#1f77b4;stroke-linecap:square;stroke-width:1.5;"/>
   </g>
   <g id="patch_23">
    <path d="M 689.741379 179.424 
L 689.741379 24.192 
" style="fill:none;stroke:#000000;stroke-linecap:square;stroke-linejoin:miter;stroke-width:0.8;"/>
   </g>
   <g id="patch_24">
    <path d="M 810 179.424 
L 810 24.192 
" style="fill:none;stroke:#000000;stroke-linecap:square;stroke-linejoin:miter;stroke-width:0.8;"/>
   </g>
   <g id="patch_25">
    <path d="M 689.741379 179.424 
L 810 179.424 
" style="fill:none;stroke:#000000;stroke-linecap:square;stroke-linejoin:miter;stroke-width:0.8;"/>
   </g>
   <g id="patch_26">
    <path d="M 689.741379 24.192 
L 810 24.192 
" style="fill:none;stroke:#000000;stroke-linecap:square;stroke-linejoin:miter;stroke-width:0.8;"/>
   </g>
  </g>
  <g id="axes_6">
   <g id="patch_27">
    <path clip-path="url(#p6897938a52)" d="M 117.966301 179.424 
L 120.699451 179.424 
L 120.699451 178.185023 
L 117.966301 178.185023 
z
" style="fill:#808080;fill-opacity:0.25;stroke:#808080;stroke-linejoin:miter;stroke-opacity:0.25;"/>
   </g>
   <g id="patch_28">
    <path clip-path="url(#p6897938a52)" d="M 120.699451 179.424 
L 123.432602 179.424 
L 123.432602 178.110455 
L 120.699451 178.110455 
z
" style="fill:#808080;fill-opacity:0.25;stroke:#808080;stroke-linejoin:miter;stroke-opacity:0.25;"/>
   </g>
   <g id="patch_29">
    <path clip-path="url(#p6897938a52)" d="M 123.432602 179.424 
L 126.165752 179.424 
L 126.165752 177.870592 
L 123.432602 177.870592 
z
" style="fill:#808080;fill-opacity:0.25;stroke:#808080;stroke-linejoin:miter;stroke-opacity:0.25;"/>
   </g>
   <g id="patch_30">
    <path clip-path="url(#p6897938a52)" d="M 126.165752 179.424 
L 128.898903 179.424 
L 128.898903 177.863542 
L 126.165752 177.863542 
z
" style="fill:#808080;fill-opacity:0.25;stroke:#808080;stroke-linejoin:miter;stroke-opacity:0.25;"/>
   </g>
   <g id="patch_31">
    <path clip-path="url(#p6897938a52)" d="M 128.898903 179.424 
L 131.632053 179.424 
L 131.632053 177.186368 
L 128.898903 177.186368 
z
" style="fill:#808080;fill-opacity:0.25;stroke:#808080;stroke-linejoin:miter;stroke-opacity:0.25;"/>
   </g>
   <g id="patch_32">
    <path clip-path="url(#p6897938a52)" d="M 131.632053 179.424 
L 134.365204 179.424 
L 134.365204 176.760951 
L 131.632053 176.760951 
z
" style="fill:#808080;fill-opacity:0.25;stroke:#808080;stroke-linejoin:miter;stroke-opacity:0.25;"/>
   </g>
   <g id="patch_33">
    <path clip-path="url(#p6897938a52)" d="M 134.365204 179.424 
L 137.098354 179.424 
L 137.098354 176.719594 
L 134.365204 176.719594 
z
" style="fill:#808080;fill-opacity:0.25;stroke:#808080;stroke-linejoin:miter;stroke-opacity:0.25;"/>
   </g>
   <g id="patch_34">
    <path clip-path="url(#p6897938a52)" d="M 137.098354 179.424 
L 139.831505 179.424 
L 139.831505 176.174772 
L 137.098354 176.174772 
z
" style="fill:#808080;fill-opacity:0.25;stroke:#808080;stroke-linejoin:miter;stroke-opacity:0.25;"/>
   </g>
   <g id="patch_35">
    <path clip-path="url(#p6897938a52)" d="M 139.831505 179.424 
L 142.564655 179.424 
L 142.564655 175.046046 
L 139.831505 175.046046 
z
" style="fill:#808080;fill-opacity:0.25;stroke:#808080;stroke-linejoin:miter;stroke-opacity:0.25;"/>
   </g>
   <g id="patch_36">
    <path clip-path="url(#p6897938a52)" d="M 142.564655 179.424 
L 145.297806 179.424 
L 145.297806 173.355678 
L 142.564655 173.355678 
z
" style="fill:#808080;fill-opacity:0.25;stroke:#808080;stroke-linejoin:miter;stroke-opacity:0.25;"/>
   </g>
   <g id="patch_37">
    <path clip-path="url(#p6897938a52)" d="M 145.297806 179.424 
L 148.030956 179.424 
L 148.030956 171.715545 
L 145.297806 171.715545 
z
" style="fill:#808080;fill-opacity:0.25;stroke:#808080;stroke-linejoin:miter;stroke-opacity:0.25;"/>
   </g>
   <g id="patch_38">
    <path clip-path="url(#p6897938a52)" d="M 148.030956 179.424 
L 150.764107 179.424 
L 150.764107 169.07687 
L 148.030956 169.07687 
z
" style="fill:#808080;fill-opacity:0.25;stroke:#808080;stroke-linejoin:miter;stroke-opacity:0.25;"/>
   </g>
   <g id="patch_39">
    <path clip-path="url(#p6897938a52)" d="M 150.764107 179.424 
L 153.497257 179.424 
L 153.497257 164.928338 
L 150.764107 164.928338 
z
" style="fill:#808080;fill-opacity:0.25;stroke:#808080;stroke-linejoin:miter;stroke-opacity:0.25;"/>
   </g>
   <g id="patch_40">
    <path clip-path="url(#p6897938a52)" d="M 153.497257 179.424 
L 156.230408 179.424 
L 156.230408 159.142356 
L 153.497257 159.142356 
z
" style="fill:#808080;fill-opacity:0.25;stroke:#808080;stroke-linejoin:miter;stroke-opacity:0.25;"/>
   </g>
   <g id="patch_41">
    <path clip-path="url(#p6897938a52)" d="M 156.230408 179.424 
L 158.963558 179.424 
L 158.963558 149.630524 
L 156.230408 149.630524 
z
" style="fill:#808080;fill-opacity:0.25;stroke:#808080;stroke-linejoin:miter;stroke-opacity:0.25;"/>
   </g>
   <g id="patch_42">
    <path clip-path="url(#p6897938a52)" d="M 158.963558 179.424 
L 161.696708 179.424 
L 161.696708 138.245124 
L 158.963558 138.245124 
z
" style="fill:#808080;fill-opacity:0.25;stroke:#808080;stroke-linejoin:miter;stroke-opacity:0.25;"/>
   </g>
   <g id="patch_43">
    <path clip-path="url(#p6897938a52)" d="M 161.696708 179.424 
L 164.429859 179.424 
L 164.429859 122.394729 
L 161.696708 122.394729 
z
" style="fill:#808080;fill-opacity:0.25;stroke:#808080;stroke-linejoin:miter;stroke-opacity:0.25;"/>
   </g>
   <g id="patch_44">
    <path clip-path="url(#p6897938a52)" d="M 164.429859 179.424 
L 167.163009 179.424 
L 167.163009 98.125352 
L 164.429859 98.125352 
z
" style="fill:#808080;fill-opacity:0.25;stroke:#808080;stroke-linejoin:miter;stroke-opacity:0.25;"/>
   </g>
   <g id="patch_45">
    <path clip-path="url(#p6897938a52)" d="M 167.163009 179.424 
L 169.89616 179.424 
L 169.89616 71.080343 
L 167.163009 71.080343 
z
" style="fill:#808080;fill-opacity:0.25;stroke:#808080;stroke-linejoin:miter;stroke-opacity:0.25;"/>
   </g>
   <g id="patch_46">
    <path clip-path="url(#p6897938a52)" d="M 169.89616 179.424 
L 172.62931 179.424 
L 172.62931 35.772601 
L 169.89616 35.772601 
z
" style="fill:#808080;fill-opacity:0.25;stroke:#808080;stroke-linejoin:miter;stroke-opacity:0.25;"/>
   </g>
   <g id="patch_47">
    <path clip-path="url(#p6897938a52)" d="M 172.62931 179.424 
L 175.362461 179.424 
L 175.362461 31.584 
L 172.62931 31.584 
z
" style="fill:#808080;fill-opacity:0.25;stroke:#808080;stroke-linejoin:miter;stroke-opacity:0.25;"/>
   </g>
   <g id="patch_48">
    <path clip-path="url(#p6897938a52)" d="M 175.362461 179.424 
L 178.095611 179.424 
L 178.095611 48.837758 
L 175.362461 48.837758 
z
" style="fill:#808080;fill-opacity:0.25;stroke:#808080;stroke-linejoin:miter;stroke-opacity:0.25;"/>
   </g>
   <g id="patch_49">
    <path clip-path="url(#p6897938a52)" d="M 178.095611 179.424 
L 180.828762 179.424 
L 180.828762 71.523535 
L 178.095611 71.523535 
z
" style="fill:#808080;fill-opacity:0.25;stroke:#808080;stroke-linejoin:miter;stroke-opacity:0.25;"/>
   </g>
   <g id="patch_50">
    <path clip-path="url(#p6897938a52)" d="M 180.828762 179.424 
L 183.561912 179.424 
L 183.561912 99.836438 
L 180.828762 99.836438 
z
" style="fill:#808080;fill-opacity:0.25;stroke:#808080;stroke-linejoin:miter;stroke-opacity:0.25;"/>
   </g>
   <g id="patch_51">
    <path clip-path="url(#p6897938a52)" d="M 183.561912 179.424 
L 186.295063 179.424 
L 186.295063 121.94613 
L 183.561912 121.94613 
z
" style="fill:#808080;fill-opacity:0.25;stroke:#808080;stroke-linejoin:miter;stroke-opacity:0.25;"/>
   </g>
   <g id="patch_52">
    <path clip-path="url(#p6897938a52)" d="M 186.295063 179.424 
L 189.028213 179.424 
L 189.028213 138.585394 
L 186.295063 138.585394 
z
" style="fill:#808080;fill-opacity:0.25;stroke:#808080;stroke-linejoin:miter;stroke-opacity:0.25;"/>
   </g>
   <g id="patch_53">
    <path clip-path="url(#p6897938a52)" d="M 189.028213 179.424 
L 191.761364 179.424 
L 191.761364 152.331173 
L 189.028213 152.331173 
z
" style="fill:#808080;fill-opacity:0.25;stroke:#808080;stroke-linejoin:miter;stroke-opacity:0.25;"/>
   </g>
   <g id="patch_54">
    <path clip-path="url(#p6897938a52)" d="M 191.761364 179.424 
L 194.494514 179.424 
L 194.494514 160.024 
L 191.761364 160.024 
z
" style="fill:#808080;fill-opacity:0.25;stroke:#808080;stroke-linejoin:miter;stroke-opacity:0.25;"/>
   </g>
   <g id="patch_55">
    <path clip-path="url(#p6897938a52)" d="M 194.494514 179.424 
L 197.227665 179.424 
L 197.227665 165.872876 
L 194.494514 165.872876 
z
" style="fill:#808080;fill-opacity:0.25;stroke:#808080;stroke-linejoin:miter;stroke-opacity:0.25;"/>
   </g>
   <g id="patch_56">
    <path clip-path="url(#p6897938a52)" d="M 197.227665 179.424 
L 199.960815 179.424 
L 199.960815 170.189127 
L 197.227665 170.189127 
z
" style="fill:#808080;fill-opacity:0.25;stroke:#808080;stroke-linejoin:miter;stroke-opacity:0.25;"/>
   </g>
   <g id="patch_57">
    <path clip-path="url(#p6897938a52)" d="M 199.960815 179.424 
L 202.693966 179.424 
L 202.693966 171.79378 
L 199.960815 171.79378 
z
" style="fill:#808080;fill-opacity:0.25;stroke:#808080;stroke-linejoin:miter;stroke-opacity:0.25;"/>
   </g>
   <g id="patch_58">
    <path clip-path="url(#p6897938a52)" d="M 202.693966 179.424 
L 205.427116 179.424 
L 205.427116 174.00644 
L 202.693966 174.00644 
z
" style="fill:#808080;fill-opacity:0.25;stroke:#808080;stroke-linejoin:miter;stroke-opacity:0.25;"/>
   </g>
   <g id="patch_59">
    <path clip-path="url(#p6897938a52)" d="M 205.427116 179.424 
L 208.160266 179.424 
L 208.160266 175.28566 
L 205.427116 175.28566 
z
" style="fill:#808080;fill-opacity:0.25;stroke:#808080;stroke-linejoin:miter;stroke-opacity:0.25;"/>
   </g>
   <g id="patch_60">
    <path clip-path="url(#p6897938a52)" d="M 208.160266 179.424 
L 210.893417 179.424 
L 210.893417 175.896676 
L 208.160266 175.896676 
z
" style="fill:#808080;fill-opacity:0.25;stroke:#808080;stroke-linejoin:miter;stroke-opacity:0.25;"/>
   </g>
   <g id="patch_61">
    <path clip-path="url(#p6897938a52)" d="M 210.893417 179.424 
L 213.626567 179.424 
L 213.626567 176.695411 
L 210.893417 176.695411 
z
" style="fill:#808080;fill-opacity:0.25;stroke:#808080;stroke-linejoin:miter;stroke-opacity:0.25;"/>
   </g>
   <g id="patch_62">
    <path clip-path="url(#p6897938a52)" d="M 213.626567 179.424 
L 216.359718 179.424 
L 216.359718 177.25712 
L 213.626567 177.25712 
z
" style="fill:#808080;fill-opacity:0.25;stroke:#808080;stroke-linejoin:miter;stroke-opacity:0.25;"/>
   </g>
   <g id="patch_63">
    <path clip-path="url(#p6897938a52)" d="M 216.359718 179.424 
L 219.092868 179.424 
L 219.092868 177.652305 
L 216.359718 177.652305 
z
" style="fill:#808080;fill-opacity:0.25;stroke:#808080;stroke-linejoin:miter;stroke-opacity:0.25;"/>
   </g>
   <g id="patch_64">
    <path clip-path="url(#p6897938a52)" d="M 219.092868 179.424 
L 221.826019 179.424 
L 221.826019 177.873896 
L 219.092868 177.873896 
z
" style="fill:#808080;fill-opacity:0.25;stroke:#808080;stroke-linejoin:miter;stroke-opacity:0.25;"/>
   </g>
   <g id="patch_65">
    <path clip-path="url(#p6897938a52)" d="M 221.826019 179.424 
L 224.559169 179.424 
L 224.559169 178.100423 
L 221.826019 178.100423 
z
" style="fill:#808080;fill-opacity:0.25;stroke:#808080;stroke-linejoin:miter;stroke-opacity:0.25;"/>
   </g>
   <g id="patch_66">
    <path clip-path="url(#p6897938a52)" d="M 224.559169 179.424 
L 227.29232 179.424 
L 227.29232 178.103521 
L 224.559169 178.103521 
z
" style="fill:#808080;fill-opacity:0.25;stroke:#808080;stroke-linejoin:miter;stroke-opacity:0.25;"/>
   </g>
   <g id="matplotlib.axis_11"/>
   <g id="patch_67">
    <path d="M 112.5 179.424 
L 112.5 24.192 
" style="fill:none;stroke:#000000;stroke-linecap:square;stroke-linejoin:miter;stroke-width:0.8;"/>
   </g>
   <g id="patch_68">
    <path d="M 232.758621 179.424 
L 232.758621 24.192 
" style="fill:none;stroke:#000000;stroke-linecap:square;stroke-linejoin:miter;stroke-width:0.8;"/>
   </g>
   <g id="patch_69">
    <path d="M 112.5 179.424 
L 232.758621 179.424 
" style="fill:none;stroke:#000000;stroke-linecap:square;stroke-linejoin:miter;stroke-width:0.8;"/>
   </g>
   <g id="patch_70">
    <path d="M 112.5 24.192 
L 232.758621 24.192 
" style="fill:none;stroke:#000000;stroke-linecap:square;stroke-linejoin:miter;stroke-width:0.8;"/>
   </g>
  </g>
  <g id="axes_7">
   <g id="patch_71">
    <path clip-path="url(#p4402170b2f)" d="M 262.276646 179.424 
L 266.046508 179.424 
L 266.046508 177.657764 
L 262.276646 177.657764 
z
" style="fill:#808080;fill-opacity:0.25;stroke:#808080;stroke-linejoin:miter;stroke-opacity:0.25;"/>
   </g>
   <g id="patch_72">
    <path clip-path="url(#p4402170b2f)" d="M 266.046508 179.424 
L 269.816371 179.424 
L 269.816371 176.382862 
L 266.046508 176.382862 
z
" style="fill:#808080;fill-opacity:0.25;stroke:#808080;stroke-linejoin:miter;stroke-opacity:0.25;"/>
   </g>
   <g id="patch_73">
    <path clip-path="url(#p4402170b2f)" d="M 269.816371 179.424 
L 273.586234 179.424 
L 273.586234 174.25615 
L 269.816371 174.25615 
z
" style="fill:#808080;fill-opacity:0.25;stroke:#808080;stroke-linejoin:miter;stroke-opacity:0.25;"/>
   </g>
   <g id="patch_74">
    <path clip-path="url(#p4402170b2f)" d="M 273.586234 179.424 
L 277.356097 179.424 
L 277.356097 171.036372 
L 273.586234 171.036372 
z
" style="fill:#808080;fill-opacity:0.25;stroke:#808080;stroke-linejoin:miter;stroke-opacity:0.25;"/>
   </g>
   <g id="patch_75">
    <path clip-path="url(#p4402170b2f)" d="M 277.356097 179.424 
L 281.125959 179.424 
L 281.125959 166.35408 
L 277.356097 166.35408 
z
" style="fill:#808080;fill-opacity:0.25;stroke:#808080;stroke-linejoin:miter;stroke-opacity:0.25;"/>
   </g>
   <g id="patch_76">
    <path clip-path="url(#p4402170b2f)" d="M 281.125959 179.424 
L 284.895822 179.424 
L 284.895822 159.672484 
L 281.125959 159.672484 
z
" style="fill:#808080;fill-opacity:0.25;stroke:#808080;stroke-linejoin:miter;stroke-opacity:0.25;"/>
   </g>
   <g id="patch_77">
    <path clip-path="url(#p4402170b2f)" d="M 284.895822 179.424 
L 288.665685 179.424 
L 288.665685 150.606919 
L 284.895822 150.606919 
z
" style="fill:#808080;fill-opacity:0.25;stroke:#808080;stroke-linejoin:miter;stroke-opacity:0.25;"/>
   </g>
   <g id="patch_78">
    <path clip-path="url(#p4402170b2f)" d="M 288.665685 179.424 
L 292.435548 179.424 
L 292.435548 139.155495 
L 288.665685 139.155495 
z
" style="fill:#808080;fill-opacity:0.25;stroke:#808080;stroke-linejoin:miter;stroke-opacity:0.25;"/>
   </g>
   <g id="patch_79">
    <path clip-path="url(#p4402170b2f)" d="M 292.435548 179.424 
L 296.20541 179.424 
L 296.20541 124.740473 
L 292.435548 124.740473 
z
" style="fill:#808080;fill-opacity:0.25;stroke:#808080;stroke-linejoin:miter;stroke-opacity:0.25;"/>
   </g>
   <g id="patch_80">
    <path clip-path="url(#p4402170b2f)" d="M 296.20541 179.424 
L 299.975273 179.424 
L 299.975273 107.440219 
L 296.20541 107.440219 
z
" style="fill:#808080;fill-opacity:0.25;stroke:#808080;stroke-linejoin:miter;stroke-opacity:0.25;"/>
   </g>
   <g id="patch_81">
    <path clip-path="url(#p4402170b2f)" d="M 299.975273 179.424 
L 303.745136 179.424 
L 303.745136 88.541786 
L 299.975273 88.541786 
z
" style="fill:#808080;fill-opacity:0.25;stroke:#808080;stroke-linejoin:miter;stroke-opacity:0.25;"/>
   </g>
   <g id="patch_82">
    <path clip-path="url(#p4402170b2f)" d="M 303.745136 179.424 
L 307.514998 179.424 
L 307.514998 69.725325 
L 303.745136 69.725325 
z
" style="fill:#808080;fill-opacity:0.25;stroke:#808080;stroke-linejoin:miter;stroke-opacity:0.25;"/>
   </g>
   <g id="patch_83">
    <path clip-path="url(#p4402170b2f)" d="M 307.514998 179.424 
L 311.284861 179.424 
L 311.284861 53.13207 
L 307.514998 53.13207 
z
" style="fill:#808080;fill-opacity:0.25;stroke:#808080;stroke-linejoin:miter;stroke-opacity:0.25;"/>
   </g>
   <g id="patch_84">
    <path clip-path="url(#p4402170b2f)" d="M 311.284861 179.424 
L 315.054724 179.424 
L 315.054724 39.417315 
L 311.284861 39.417315 
z
" style="fill:#808080;fill-opacity:0.25;stroke:#808080;stroke-linejoin:miter;stroke-opacity:0.25;"/>
   </g>
   <g id="patch_85">
    <path clip-path="url(#p4402170b2f)" d="M 315.054724 179.424 
L 318.824587 179.424 
L 318.824587 32.031448 
L 315.054724 32.031448 
z
" style="fill:#808080;fill-opacity:0.25;stroke:#808080;stroke-linejoin:miter;stroke-opacity:0.25;"/>
   </g>
   <g id="patch_86">
    <path clip-path="url(#p4402170b2f)" d="M 318.824587 179.424 
L 322.594449 179.424 
L 322.594449 31.584 
L 318.824587 31.584 
z
" style="fill:#808080;fill-opacity:0.25;stroke:#808080;stroke-linejoin:miter;stroke-opacity:0.25;"/>
   </g>
   <g id="patch_87">
    <path clip-path="url(#p4402170b2f)" d="M 322.594449 179.424 
L 326.364312 179.424 
L 326.364312 39.295933 
L 322.594449 39.295933 
z
" style="fill:#808080;fill-opacity:0.25;stroke:#808080;stroke-linejoin:miter;stroke-opacity:0.25;"/>
   </g>
   <g id="patch_88">
    <path clip-path="url(#p4402170b2f)" d="M 326.364312 179.424 
L 330.134175 179.424 
L 330.134175 53.684152 
L 326.364312 53.684152 
z
" style="fill:#808080;fill-opacity:0.25;stroke:#808080;stroke-linejoin:miter;stroke-opacity:0.25;"/>
   </g>
   <g id="patch_89">
    <path clip-path="url(#p4402170b2f)" d="M 330.134175 179.424 
L 333.904037 179.424 
L 333.904037 71.50915 
L 330.134175 71.50915 
z
" style="fill:#808080;fill-opacity:0.25;stroke:#808080;stroke-linejoin:miter;stroke-opacity:0.25;"/>
   </g>
   <g id="patch_90">
    <path clip-path="url(#p4402170b2f)" d="M 333.904037 179.424 
L 337.6739 179.424 
L 337.6739 91.219063 
L 333.904037 91.219063 
z
" style="fill:#808080;fill-opacity:0.25;stroke:#808080;stroke-linejoin:miter;stroke-opacity:0.25;"/>
   </g>
   <g id="patch_91">
    <path clip-path="url(#p4402170b2f)" d="M 337.6739 179.424 
L 341.443763 179.424 
L 341.443763 110.491376 
L 337.6739 110.491376 
z
" style="fill:#808080;fill-opacity:0.25;stroke:#808080;stroke-linejoin:miter;stroke-opacity:0.25;"/>
   </g>
   <g id="patch_92">
    <path clip-path="url(#p4402170b2f)" d="M 341.443763 179.424 
L 345.213626 179.424 
L 345.213626 127.774787 
L 341.443763 127.774787 
z
" style="fill:#808080;fill-opacity:0.25;stroke:#808080;stroke-linejoin:miter;stroke-opacity:0.25;"/>
   </g>
   <g id="patch_93">
    <path clip-path="url(#p4402170b2f)" d="M 345.213626 179.424 
L 348.983488 179.424 
L 348.983488 142.214135 
L 345.213626 142.214135 
z
" style="fill:#808080;fill-opacity:0.25;stroke:#808080;stroke-linejoin:miter;stroke-opacity:0.25;"/>
   </g>
   <g id="patch_94">
    <path clip-path="url(#p4402170b2f)" d="M 348.983488 179.424 
L 352.753351 179.424 
L 352.753351 153.749191 
L 348.983488 153.749191 
z
" style="fill:#808080;fill-opacity:0.25;stroke:#808080;stroke-linejoin:miter;stroke-opacity:0.25;"/>
   </g>
   <g id="patch_95">
    <path clip-path="url(#p4402170b2f)" d="M 352.753351 179.424 
L 356.523214 179.424 
L 356.523214 162.361429 
L 352.753351 162.361429 
z
" style="fill:#808080;fill-opacity:0.25;stroke:#808080;stroke-linejoin:miter;stroke-opacity:0.25;"/>
   </g>
   <g id="patch_96">
    <path clip-path="url(#p4402170b2f)" d="M 356.523214 179.424 
L 360.293076 179.424 
L 360.293076 168.442691 
L 356.523214 168.442691 
z
" style="fill:#808080;fill-opacity:0.25;stroke:#808080;stroke-linejoin:miter;stroke-opacity:0.25;"/>
   </g>
   <g id="patch_97">
    <path clip-path="url(#p4402170b2f)" d="M 360.293076 179.424 
L 364.062939 179.424 
L 364.062939 172.555358 
L 360.293076 172.555358 
z
" style="fill:#808080;fill-opacity:0.25;stroke:#808080;stroke-linejoin:miter;stroke-opacity:0.25;"/>
   </g>
   <g id="patch_98">
    <path clip-path="url(#p4402170b2f)" d="M 364.062939 179.424 
L 367.832802 179.424 
L 367.832802 175.211766 
L 364.062939 175.211766 
z
" style="fill:#808080;fill-opacity:0.25;stroke:#808080;stroke-linejoin:miter;stroke-opacity:0.25;"/>
   </g>
   <g id="patch_99">
    <path clip-path="url(#p4402170b2f)" d="M 367.832802 179.424 
L 371.602665 179.424 
L 371.602665 176.870512 
L 367.832802 176.870512 
z
" style="fill:#808080;fill-opacity:0.25;stroke:#808080;stroke-linejoin:miter;stroke-opacity:0.25;"/>
   </g>
   <g id="matplotlib.axis_12"/>
   <g id="patch_100">
    <path d="M 256.810345 179.424 
L 256.810345 24.192 
" style="fill:none;stroke:#000000;stroke-linecap:square;stroke-linejoin:miter;stroke-width:0.8;"/>
   </g>
   <g id="patch_101">
    <path d="M 377.068966 179.424 
L 377.068966 24.192 
" style="fill:none;stroke:#000000;stroke-linecap:square;stroke-linejoin:miter;stroke-width:0.8;"/>
   </g>
   <g id="patch_102">
    <path d="M 256.810345 179.424 
L 377.068966 179.424 
" style="fill:none;stroke:#000000;stroke-linecap:square;stroke-linejoin:miter;stroke-width:0.8;"/>
   </g>
   <g id="patch_103">
    <path d="M 256.810345 24.192 
L 377.068966 24.192 
" style="fill:none;stroke:#000000;stroke-linecap:square;stroke-linejoin:miter;stroke-width:0.8;"/>
   </g>
  </g>
  <g id="axes_8">
   <g id="patch_104">
    <path clip-path="url(#p0e3278661c)" d="M 406.586991 179.424 
L 410.356853 179.424 
L 410.356853 176.82018 
L 406.586991 176.82018 
z
" style="fill:#808080;fill-opacity:0.25;stroke:#808080;stroke-linejoin:miter;stroke-opacity:0.25;"/>
   </g>
   <g id="patch_105">
    <path clip-path="url(#p0e3278661c)" d="M 410.356853 179.424 
L 414.126716 179.424 
L 414.126716 175.130169 
L 410.356853 175.130169 
z
" style="fill:#808080;fill-opacity:0.25;stroke:#808080;stroke-linejoin:miter;stroke-opacity:0.25;"/>
   </g>
   <g id="patch_106">
    <path clip-path="url(#p0e3278661c)" d="M 414.126716 179.424 
L 417.896579 179.424 
L 417.896579 172.546913 
L 414.126716 172.546913 
z
" style="fill:#808080;fill-opacity:0.25;stroke:#808080;stroke-linejoin:miter;stroke-opacity:0.25;"/>
   </g>
   <g id="patch_107">
    <path clip-path="url(#p0e3278661c)" d="M 417.896579 179.424 
L 421.666441 179.424 
L 421.666441 168.741983 
L 417.896579 168.741983 
z
" style="fill:#808080;fill-opacity:0.25;stroke:#808080;stroke-linejoin:miter;stroke-opacity:0.25;"/>
   </g>
   <g id="patch_108">
    <path clip-path="url(#p0e3278661c)" d="M 421.666441 179.424 
L 425.436304 179.424 
L 425.436304 163.244745 
L 421.666441 163.244745 
z
" style="fill:#808080;fill-opacity:0.25;stroke:#808080;stroke-linejoin:miter;stroke-opacity:0.25;"/>
   </g>
   <g id="patch_109">
    <path clip-path="url(#p0e3278661c)" d="M 425.436304 179.424 
L 429.206167 179.424 
L 429.206167 155.605039 
L 425.436304 155.605039 
z
" style="fill:#808080;fill-opacity:0.25;stroke:#808080;stroke-linejoin:miter;stroke-opacity:0.25;"/>
   </g>
   <g id="patch_110">
    <path clip-path="url(#p0e3278661c)" d="M 429.206167 179.424 
L 432.97603 179.424 
L 432.97603 145.309302 
L 429.206167 145.309302 
z
" style="fill:#808080;fill-opacity:0.25;stroke:#808080;stroke-linejoin:miter;stroke-opacity:0.25;"/>
   </g>
   <g id="patch_111">
    <path clip-path="url(#p0e3278661c)" d="M 432.97603 179.424 
L 436.745892 179.424 
L 436.745892 131.943168 
L 432.97603 131.943168 
z
" style="fill:#808080;fill-opacity:0.25;stroke:#808080;stroke-linejoin:miter;stroke-opacity:0.25;"/>
   </g>
   <g id="patch_112">
    <path clip-path="url(#p0e3278661c)" d="M 436.745892 179.424 
L 440.515755 179.424 
L 440.515755 115.3339 
L 436.745892 115.3339 
z
" style="fill:#808080;fill-opacity:0.25;stroke:#808080;stroke-linejoin:miter;stroke-opacity:0.25;"/>
   </g>
   <g id="patch_113">
    <path clip-path="url(#p0e3278661c)" d="M 440.515755 179.424 
L 444.285618 179.424 
L 444.285618 95.936797 
L 440.515755 95.936797 
z
" style="fill:#808080;fill-opacity:0.25;stroke:#808080;stroke-linejoin:miter;stroke-opacity:0.25;"/>
   </g>
   <g id="patch_114">
    <path clip-path="url(#p0e3278661c)" d="M 444.285618 179.424 
L 448.05548 179.424 
L 448.05548 75.039011 
L 444.285618 75.039011 
z
" style="fill:#808080;fill-opacity:0.25;stroke:#808080;stroke-linejoin:miter;stroke-opacity:0.25;"/>
   </g>
   <g id="patch_115">
    <path clip-path="url(#p0e3278661c)" d="M 448.05548 179.424 
L 451.825343 179.424 
L 451.825343 55.130258 
L 448.05548 55.130258 
z
" style="fill:#808080;fill-opacity:0.25;stroke:#808080;stroke-linejoin:miter;stroke-opacity:0.25;"/>
   </g>
   <g id="patch_116">
    <path clip-path="url(#p0e3278661c)" d="M 451.825343 179.424 
L 455.595206 179.424 
L 455.595206 39.556096 
L 451.825343 39.556096 
z
" style="fill:#808080;fill-opacity:0.25;stroke:#808080;stroke-linejoin:miter;stroke-opacity:0.25;"/>
   </g>
   <g id="patch_117">
    <path clip-path="url(#p0e3278661c)" d="M 455.595206 179.424 
L 459.365069 179.424 
L 459.365069 31.584 
L 455.595206 31.584 
z
" style="fill:#808080;fill-opacity:0.25;stroke:#808080;stroke-linejoin:miter;stroke-opacity:0.25;"/>
   </g>
   <g id="patch_118">
    <path clip-path="url(#p0e3278661c)" d="M 459.365069 179.424 
L 463.134931 179.424 
L 463.134931 33.191503 
L 459.365069 33.191503 
z
" style="fill:#808080;fill-opacity:0.25;stroke:#808080;stroke-linejoin:miter;stroke-opacity:0.25;"/>
   </g>
   <g id="patch_119">
    <path clip-path="url(#p0e3278661c)" d="M 463.134931 179.424 
L 466.904794 179.424 
L 466.904794 44.202153 
L 463.134931 44.202153 
z
" style="fill:#808080;fill-opacity:0.25;stroke:#808080;stroke-linejoin:miter;stroke-opacity:0.25;"/>
   </g>
   <g id="patch_120">
    <path clip-path="url(#p0e3278661c)" d="M 466.904794 179.424 
L 470.674657 179.424 
L 470.674657 61.827088 
L 466.904794 61.827088 
z
" style="fill:#808080;fill-opacity:0.25;stroke:#808080;stroke-linejoin:miter;stroke-opacity:0.25;"/>
   </g>
   <g id="patch_121">
    <path clip-path="url(#p0e3278661c)" d="M 470.674657 179.424 
L 474.44452 179.424 
L 474.44452 82.607945 
L 470.674657 82.607945 
z
" style="fill:#808080;fill-opacity:0.25;stroke:#808080;stroke-linejoin:miter;stroke-opacity:0.25;"/>
   </g>
   <g id="patch_122">
    <path clip-path="url(#p0e3278661c)" d="M 474.44452 179.424 
L 478.214382 179.424 
L 478.214382 103.19118 
L 474.44452 103.19118 
z
" style="fill:#808080;fill-opacity:0.25;stroke:#808080;stroke-linejoin:miter;stroke-opacity:0.25;"/>
   </g>
   <g id="patch_123">
    <path clip-path="url(#p0e3278661c)" d="M 478.214382 179.424 
L 481.984245 179.424 
L 481.984245 121.573065 
L 478.214382 121.573065 
z
" style="fill:#808080;fill-opacity:0.25;stroke:#808080;stroke-linejoin:miter;stroke-opacity:0.25;"/>
   </g>
   <g id="patch_124">
    <path clip-path="url(#p0e3278661c)" d="M 481.984245 179.424 
L 485.754108 179.424 
L 485.754108 136.795773 
L 481.984245 136.795773 
z
" style="fill:#808080;fill-opacity:0.25;stroke:#808080;stroke-linejoin:miter;stroke-opacity:0.25;"/>
   </g>
   <g id="patch_125">
    <path clip-path="url(#p0e3278661c)" d="M 485.754108 179.424 
L 489.52397 179.424 
L 489.52397 148.79071 
L 485.754108 148.79071 
z
" style="fill:#808080;fill-opacity:0.25;stroke:#808080;stroke-linejoin:miter;stroke-opacity:0.25;"/>
   </g>
   <g id="patch_126">
    <path clip-path="url(#p0e3278661c)" d="M 489.52397 179.424 
L 493.293833 179.424 
L 493.293833 157.870303 
L 489.52397 157.870303 
z
" style="fill:#808080;fill-opacity:0.25;stroke:#808080;stroke-linejoin:miter;stroke-opacity:0.25;"/>
   </g>
   <g id="patch_127">
    <path clip-path="url(#p0e3278661c)" d="M 493.293833 179.424 
L 497.063696 179.424 
L 497.063696 164.544548 
L 493.293833 164.544548 
z
" style="fill:#808080;fill-opacity:0.25;stroke:#808080;stroke-linejoin:miter;stroke-opacity:0.25;"/>
   </g>
   <g id="patch_128">
    <path clip-path="url(#p0e3278661c)" d="M 497.063696 179.424 
L 500.833559 179.424 
L 500.833559 169.351444 
L 497.063696 169.351444 
z
" style="fill:#808080;fill-opacity:0.25;stroke:#808080;stroke-linejoin:miter;stroke-opacity:0.25;"/>
   </g>
   <g id="patch_129">
    <path clip-path="url(#p0e3278661c)" d="M 500.833559 179.424 
L 504.603421 179.424 
L 504.603421 172.702533 
L 500.833559 172.702533 
z
" style="fill:#808080;fill-opacity:0.25;stroke:#808080;stroke-linejoin:miter;stroke-opacity:0.25;"/>
   </g>
   <g id="patch_130">
    <path clip-path="url(#p0e3278661c)" d="M 504.603421 179.424 
L 508.373284 179.424 
L 508.373284 175.014345 
L 504.603421 175.014345 
z
" style="fill:#808080;fill-opacity:0.25;stroke:#808080;stroke-linejoin:miter;stroke-opacity:0.25;"/>
   </g>
   <g id="patch_131">
    <path clip-path="url(#p0e3278661c)" d="M 508.373284 179.424 
L 512.143147 179.424 
L 512.143147 176.575632 
L 508.373284 176.575632 
z
" style="fill:#808080;fill-opacity:0.25;stroke:#808080;stroke-linejoin:miter;stroke-opacity:0.25;"/>
   </g>
   <g id="patch_132">
    <path clip-path="url(#p0e3278661c)" d="M 512.143147 179.424 
L 515.913009 179.424 
L 515.913009 177.603952 
L 512.143147 177.603952 
z
" style="fill:#808080;fill-opacity:0.25;stroke:#808080;stroke-linejoin:miter;stroke-opacity:0.25;"/>
   </g>
   <g id="matplotlib.axis_13"/>
   <g id="patch_133">
    <path d="M 401.12069 179.424 
L 401.12069 24.192 
" style="fill:none;stroke:#000000;stroke-linecap:square;stroke-linejoin:miter;stroke-width:0.8;"/>
   </g>
   <g id="patch_134">
    <path d="M 521.37931 179.424 
L 521.37931 24.192 
" style="fill:none;stroke:#000000;stroke-linecap:square;stroke-linejoin:miter;stroke-width:0.8;"/>
   </g>
   <g id="patch_135">
    <path d="M 401.12069 179.424 
L 521.37931 179.424 
" style="fill:none;stroke:#000000;stroke-linecap:square;stroke-linejoin:miter;stroke-width:0.8;"/>
   </g>
   <g id="patch_136">
    <path d="M 401.12069 24.192 
L 521.37931 24.192 
" style="fill:none;stroke:#000000;stroke-linecap:square;stroke-linejoin:miter;stroke-width:0.8;"/>
   </g>
  </g>
  <g id="axes_9">
   <g id="patch_137">
    <path clip-path="url(#pc4607fb37f)" d="M 550.897335 179.424 
L 554.541536 179.424 
L 554.541536 177.324215 
L 550.897335 177.324215 
z
" style="fill:#808080;fill-opacity:0.25;stroke:#808080;stroke-linejoin:miter;stroke-opacity:0.25;"/>
   </g>
   <g id="patch_138">
    <path clip-path="url(#pc4607fb37f)" d="M 554.541536 179.424 
L 558.185737 179.424 
L 558.185737 176.313717 
L 554.541536 176.313717 
z
" style="fill:#808080;fill-opacity:0.25;stroke:#808080;stroke-linejoin:miter;stroke-opacity:0.25;"/>
   </g>
   <g id="patch_139">
    <path clip-path="url(#pc4607fb37f)" d="M 558.185737 179.424 
L 561.829937 179.424 
L 561.829937 174.865887 
L 558.185737 174.865887 
z
" style="fill:#808080;fill-opacity:0.25;stroke:#808080;stroke-linejoin:miter;stroke-opacity:0.25;"/>
   </g>
   <g id="patch_140">
    <path clip-path="url(#pc4607fb37f)" d="M 561.829937 179.424 
L 565.474138 179.424 
L 565.474138 172.800672 
L 561.829937 172.800672 
z
" style="fill:#808080;fill-opacity:0.25;stroke:#808080;stroke-linejoin:miter;stroke-opacity:0.25;"/>
   </g>
   <g id="patch_141">
    <path clip-path="url(#pc4607fb37f)" d="M 565.474138 179.424 
L 569.118339 179.424 
L 569.118339 169.91254 
L 565.474138 169.91254 
z
" style="fill:#808080;fill-opacity:0.25;stroke:#808080;stroke-linejoin:miter;stroke-opacity:0.25;"/>
   </g>
   <g id="patch_142">
    <path clip-path="url(#pc4607fb37f)" d="M 569.118339 179.424 
L 572.762539 179.424 
L 572.762539 165.866317 
L 569.118339 165.866317 
z
" style="fill:#808080;fill-opacity:0.25;stroke:#808080;stroke-linejoin:miter;stroke-opacity:0.25;"/>
   </g>
   <g id="patch_143">
    <path clip-path="url(#pc4607fb37f)" d="M 572.762539 179.424 
L 576.40674 179.424 
L 576.40674 160.268404 
L 572.762539 160.268404 
z
" style="fill:#808080;fill-opacity:0.25;stroke:#808080;stroke-linejoin:miter;stroke-opacity:0.25;"/>
   </g>
   <g id="patch_144">
    <path clip-path="url(#pc4607fb37f)" d="M 576.40674 179.424 
L 580.05094 179.424 
L 580.05094 152.624917 
L 576.40674 152.624917 
z
" style="fill:#808080;fill-opacity:0.25;stroke:#808080;stroke-linejoin:miter;stroke-opacity:0.25;"/>
   </g>
   <g id="patch_145">
    <path clip-path="url(#pc4607fb37f)" d="M 580.05094 179.424 
L 583.695141 179.424 
L 583.695141 142.359296 
L 580.05094 142.359296 
z
" style="fill:#808080;fill-opacity:0.25;stroke:#808080;stroke-linejoin:miter;stroke-opacity:0.25;"/>
   </g>
   <g id="patch_146">
    <path clip-path="url(#pc4607fb37f)" d="M 583.695141 179.424 
L 587.339342 179.424 
L 587.339342 128.869485 
L 583.695141 128.869485 
z
" style="fill:#808080;fill-opacity:0.25;stroke:#808080;stroke-linejoin:miter;stroke-opacity:0.25;"/>
   </g>
   <g id="patch_147">
    <path clip-path="url(#pc4607fb37f)" d="M 587.339342 179.424 
L 590.983542 179.424 
L 590.983542 111.732528 
L 587.339342 111.732528 
z
" style="fill:#808080;fill-opacity:0.25;stroke:#808080;stroke-linejoin:miter;stroke-opacity:0.25;"/>
   </g>
   <g id="patch_148">
    <path clip-path="url(#pc4607fb37f)" d="M 590.983542 179.424 
L 594.627743 179.424 
L 594.627743 91.235377 
L 590.983542 91.235377 
z
" style="fill:#808080;fill-opacity:0.25;stroke:#808080;stroke-linejoin:miter;stroke-opacity:0.25;"/>
   </g>
   <g id="patch_149">
    <path clip-path="url(#pc4607fb37f)" d="M 594.627743 179.424 
L 598.271944 179.424 
L 598.271944 68.82866 
L 594.627743 68.82866 
z
" style="fill:#808080;fill-opacity:0.25;stroke:#808080;stroke-linejoin:miter;stroke-opacity:0.25;"/>
   </g>
   <g id="patch_150">
    <path clip-path="url(#pc4607fb37f)" d="M 598.271944 179.424 
L 601.916144 179.424 
L 601.916144 47.971363 
L 598.271944 47.971363 
z
" style="fill:#808080;fill-opacity:0.25;stroke:#808080;stroke-linejoin:miter;stroke-opacity:0.25;"/>
   </g>
   <g id="patch_151">
    <path clip-path="url(#pc4607fb37f)" d="M 601.916144 179.424 
L 605.560345 179.424 
L 605.560345 33.885189 
L 601.916144 33.885189 
z
" style="fill:#808080;fill-opacity:0.25;stroke:#808080;stroke-linejoin:miter;stroke-opacity:0.25;"/>
   </g>
   <g id="patch_152">
    <path clip-path="url(#pc4607fb37f)" d="M 605.560345 179.424 
L 609.204545 179.424 
L 609.204545 31.584 
L 605.560345 31.584 
z
" style="fill:#808080;fill-opacity:0.25;stroke:#808080;stroke-linejoin:miter;stroke-opacity:0.25;"/>
   </g>
   <g id="patch_153">
    <path clip-path="url(#pc4607fb37f)" d="M 609.204545 179.424 
L 612.848746 179.424 
L 612.848746 42.294271 
L 609.204545 42.294271 
z
" style="fill:#808080;fill-opacity:0.25;stroke:#808080;stroke-linejoin:miter;stroke-opacity:0.25;"/>
   </g>
   <g id="patch_154">
    <path clip-path="url(#pc4607fb37f)" d="M 612.848746 179.424 
L 616.492947 179.424 
L 616.492947 62.726582 
L 612.848746 62.726582 
z
" style="fill:#808080;fill-opacity:0.25;stroke:#808080;stroke-linejoin:miter;stroke-opacity:0.25;"/>
   </g>
   <g id="patch_155">
    <path clip-path="url(#pc4607fb37f)" d="M 616.492947 179.424 
L 620.137147 179.424 
L 620.137147 86.914325 
L 616.492947 86.914325 
z
" style="fill:#808080;fill-opacity:0.25;stroke:#808080;stroke-linejoin:miter;stroke-opacity:0.25;"/>
   </g>
   <g id="patch_156">
    <path clip-path="url(#pc4607fb37f)" d="M 620.137147 179.424 
L 623.781348 179.424 
L 623.781348 109.900574 
L 620.137147 109.900574 
z
" style="fill:#808080;fill-opacity:0.25;stroke:#808080;stroke-linejoin:miter;stroke-opacity:0.25;"/>
   </g>
   <g id="patch_157">
    <path clip-path="url(#pc4607fb37f)" d="M 623.781348 179.424 
L 627.425549 179.424 
L 627.425549 129.122233 
L 623.781348 129.122233 
z
" style="fill:#808080;fill-opacity:0.25;stroke:#808080;stroke-linejoin:miter;stroke-opacity:0.25;"/>
   </g>
   <g id="patch_158">
    <path clip-path="url(#pc4607fb37f)" d="M 627.425549 179.424 
L 631.069749 179.424 
L 631.069749 143.932897 
L 627.425549 143.932897 
z
" style="fill:#808080;fill-opacity:0.25;stroke:#808080;stroke-linejoin:miter;stroke-opacity:0.25;"/>
   </g>
   <g id="patch_159">
    <path clip-path="url(#pc4607fb37f)" d="M 631.069749 179.424 
L 634.71395 179.424 
L 634.71395 154.830097 
L 631.069749 154.830097 
z
" style="fill:#808080;fill-opacity:0.25;stroke:#808080;stroke-linejoin:miter;stroke-opacity:0.25;"/>
   </g>
   <g id="patch_160">
    <path clip-path="url(#pc4607fb37f)" d="M 634.71395 179.424 
L 638.35815 179.424 
L 638.35815 162.558512 
L 634.71395 162.558512 
z
" style="fill:#808080;fill-opacity:0.25;stroke:#808080;stroke-linejoin:miter;stroke-opacity:0.25;"/>
   </g>
   <g id="patch_161">
    <path clip-path="url(#pc4607fb37f)" d="M 638.35815 179.424 
L 642.002351 179.424 
L 642.002351 167.967961 
L 638.35815 167.967961 
z
" style="fill:#808080;fill-opacity:0.25;stroke:#808080;stroke-linejoin:miter;stroke-opacity:0.25;"/>
   </g>
   <g id="patch_162">
    <path clip-path="url(#pc4607fb37f)" d="M 642.002351 179.424 
L 645.646552 179.424 
L 645.646552 171.6643 
L 642.002351 171.6643 
z
" style="fill:#808080;fill-opacity:0.25;stroke:#808080;stroke-linejoin:miter;stroke-opacity:0.25;"/>
   </g>
   <g id="patch_163">
    <path clip-path="url(#pc4607fb37f)" d="M 645.646552 179.424 
L 649.290752 179.424 
L 649.290752 174.190774 
L 645.646552 174.190774 
z
" style="fill:#808080;fill-opacity:0.25;stroke:#808080;stroke-linejoin:miter;stroke-opacity:0.25;"/>
   </g>
   <g id="patch_164">
    <path clip-path="url(#pc4607fb37f)" d="M 649.290752 179.424 
L 652.934953 179.424 
L 652.934953 175.895371 
L 649.290752 175.895371 
z
" style="fill:#808080;fill-opacity:0.25;stroke:#808080;stroke-linejoin:miter;stroke-opacity:0.25;"/>
   </g>
   <g id="patch_165">
    <path clip-path="url(#pc4607fb37f)" d="M 652.934953 179.424 
L 656.579154 179.424 
L 656.579154 177.046345 
L 652.934953 177.046345 
z
" style="fill:#808080;fill-opacity:0.25;stroke:#808080;stroke-linejoin:miter;stroke-opacity:0.25;"/>
   </g>
   <g id="patch_166">
    <path clip-path="url(#pc4607fb37f)" d="M 656.579154 179.424 
L 660.223354 179.424 
L 660.223354 177.819065 
L 656.579154 177.819065 
z
" style="fill:#808080;fill-opacity:0.25;stroke:#808080;stroke-linejoin:miter;stroke-opacity:0.25;"/>
   </g>
   <g id="matplotlib.axis_14"/>
   <g id="patch_167">
    <path d="M 545.431034 179.424 
L 545.431034 24.192 
" style="fill:none;stroke:#000000;stroke-linecap:square;stroke-linejoin:miter;stroke-width:0.8;"/>
   </g>
   <g id="patch_168">
    <path d="M 665.689655 179.424 
L 665.689655 24.192 
" style="fill:none;stroke:#000000;stroke-linecap:square;stroke-linejoin:miter;stroke-width:0.8;"/>
   </g>
   <g id="patch_169">
    <path d="M 545.431034 179.424 
L 665.689655 179.424 
" style="fill:none;stroke:#000000;stroke-linecap:square;stroke-linejoin:miter;stroke-width:0.8;"/>
   </g>
   <g id="patch_170">
    <path d="M 545.431034 24.192 
L 665.689655 24.192 
" style="fill:none;stroke:#000000;stroke-linecap:square;stroke-linejoin:miter;stroke-width:0.8;"/>
   </g>
  </g>
  <g id="axes_10">
   <g id="patch_171">
    <path clip-path="url(#p50ac9944a2)" d="M 695.20768 179.424 
L 698.624118 179.424 
L 698.624118 177.842493 
L 695.20768 177.842493 
z
" style="fill:#808080;fill-opacity:0.25;stroke:#808080;stroke-linejoin:miter;stroke-opacity:0.25;"/>
   </g>
   <g id="patch_172">
    <path clip-path="url(#p50ac9944a2)" d="M 698.624118 179.424 
L 702.040556 179.424 
L 702.040556 177.22194 
L 698.624118 177.22194 
z
" style="fill:#808080;fill-opacity:0.25;stroke:#808080;stroke-linejoin:miter;stroke-opacity:0.25;"/>
   </g>
   <g id="patch_173">
    <path clip-path="url(#p50ac9944a2)" d="M 702.040556 179.424 
L 705.456995 179.424 
L 705.456995 176.35736 
L 702.040556 176.35736 
z
" style="fill:#808080;fill-opacity:0.25;stroke:#808080;stroke-linejoin:miter;stroke-opacity:0.25;"/>
   </g>
   <g id="patch_174">
    <path clip-path="url(#p50ac9944a2)" d="M 705.456995 179.424 
L 708.873433 179.424 
L 708.873433 175.098369 
L 705.456995 175.098369 
z
" style="fill:#808080;fill-opacity:0.25;stroke:#808080;stroke-linejoin:miter;stroke-opacity:0.25;"/>
   </g>
   <g id="patch_175">
    <path clip-path="url(#p50ac9944a2)" d="M 708.873433 179.424 
L 712.289871 179.424 
L 712.289871 173.283585 
L 708.873433 173.283585 
z
" style="fill:#808080;fill-opacity:0.25;stroke:#808080;stroke-linejoin:miter;stroke-opacity:0.25;"/>
   </g>
   <g id="patch_176">
    <path clip-path="url(#p50ac9944a2)" d="M 712.289871 179.424 
L 715.706309 179.424 
L 715.706309 170.644711 
L 712.289871 170.644711 
z
" style="fill:#808080;fill-opacity:0.25;stroke:#808080;stroke-linejoin:miter;stroke-opacity:0.25;"/>
   </g>
   <g id="patch_177">
    <path clip-path="url(#p50ac9944a2)" d="M 715.706309 179.424 
L 719.122747 179.424 
L 719.122747 166.701011 
L 715.706309 166.701011 
z
" style="fill:#808080;fill-opacity:0.25;stroke:#808080;stroke-linejoin:miter;stroke-opacity:0.25;"/>
   </g>
   <g id="patch_178">
    <path clip-path="url(#p50ac9944a2)" d="M 719.122747 179.424 
L 722.539185 179.424 
L 722.539185 160.855691 
L 719.122747 160.855691 
z
" style="fill:#808080;fill-opacity:0.25;stroke:#808080;stroke-linejoin:miter;stroke-opacity:0.25;"/>
   </g>
   <g id="patch_179">
    <path clip-path="url(#p50ac9944a2)" d="M 722.539185 179.424 
L 725.955623 179.424 
L 725.955623 152.107191 
L 722.539185 152.107191 
z
" style="fill:#808080;fill-opacity:0.25;stroke:#808080;stroke-linejoin:miter;stroke-opacity:0.25;"/>
   </g>
   <g id="patch_180">
    <path clip-path="url(#p50ac9944a2)" d="M 725.955623 179.424 
L 729.372061 179.424 
L 729.372061 139.041021 
L 725.955623 139.041021 
z
" style="fill:#808080;fill-opacity:0.25;stroke:#808080;stroke-linejoin:miter;stroke-opacity:0.25;"/>
   </g>
   <g id="patch_181">
    <path clip-path="url(#p50ac9944a2)" d="M 729.372061 179.424 
L 732.788499 179.424 
L 732.788499 120.37919 
L 729.372061 120.37919 
z
" style="fill:#808080;fill-opacity:0.25;stroke:#808080;stroke-linejoin:miter;stroke-opacity:0.25;"/>
   </g>
   <g id="patch_182">
    <path clip-path="url(#p50ac9944a2)" d="M 732.788499 179.424 
L 736.204937 179.424 
L 736.204937 95.487817 
L 732.788499 95.487817 
z
" style="fill:#808080;fill-opacity:0.25;stroke:#808080;stroke-linejoin:miter;stroke-opacity:0.25;"/>
   </g>
   <g id="patch_183">
    <path clip-path="url(#p50ac9944a2)" d="M 736.204937 179.424 
L 739.621375 179.424 
L 739.621375 66.648402 
L 736.204937 66.648402 
z
" style="fill:#808080;fill-opacity:0.25;stroke:#808080;stroke-linejoin:miter;stroke-opacity:0.25;"/>
   </g>
   <g id="patch_184">
    <path clip-path="url(#p50ac9944a2)" d="M 739.621375 179.424 
L 743.037813 179.424 
L 743.037813 41.756879 
L 739.621375 41.756879 
z
" style="fill:#808080;fill-opacity:0.25;stroke:#808080;stroke-linejoin:miter;stroke-opacity:0.25;"/>
   </g>
   <g id="patch_185">
    <path clip-path="url(#p50ac9944a2)" d="M 743.037813 179.424 
L 746.454252 179.424 
L 746.454252 31.584 
L 743.037813 31.584 
z
" style="fill:#808080;fill-opacity:0.25;stroke:#808080;stroke-linejoin:miter;stroke-opacity:0.25;"/>
   </g>
   <g id="patch_186">
    <path clip-path="url(#p50ac9944a2)" d="M 746.454252 179.424 
L 749.87069 179.424 
L 749.87069 41.267459 
L 746.454252 41.267459 
z
" style="fill:#808080;fill-opacity:0.25;stroke:#808080;stroke-linejoin:miter;stroke-opacity:0.25;"/>
   </g>
   <g id="patch_187">
    <path clip-path="url(#p50ac9944a2)" d="M 749.87069 179.424 
L 753.287128 179.424 
L 753.287128 64.701785 
L 749.87069 64.701785 
z
" style="fill:#808080;fill-opacity:0.25;stroke:#808080;stroke-linejoin:miter;stroke-opacity:0.25;"/>
   </g>
   <g id="patch_188">
    <path clip-path="url(#p50ac9944a2)" d="M 753.287128 179.424 
L 756.703566 179.424 
L 756.703566 90.811283 
L 753.287128 90.811283 
z
" style="fill:#808080;fill-opacity:0.25;stroke:#808080;stroke-linejoin:miter;stroke-opacity:0.25;"/>
   </g>
   <g id="patch_189">
    <path clip-path="url(#p50ac9944a2)" d="M 756.703566 179.424 
L 760.120004 179.424 
L 760.120004 112.966931 
L 756.703566 112.966931 
z
" style="fill:#808080;fill-opacity:0.25;stroke:#808080;stroke-linejoin:miter;stroke-opacity:0.25;"/>
   </g>
   <g id="patch_190">
    <path clip-path="url(#p50ac9944a2)" d="M 760.120004 179.424 
L 763.536442 179.424 
L 763.536442 129.635747 
L 760.120004 129.635747 
z
" style="fill:#808080;fill-opacity:0.25;stroke:#808080;stroke-linejoin:miter;stroke-opacity:0.25;"/>
   </g>
   <g id="patch_191">
    <path clip-path="url(#p50ac9944a2)" d="M 763.536442 179.424 
L 766.95288 179.424 
L 766.95288 141.799187 
L 763.536442 141.799187 
z
" style="fill:#808080;fill-opacity:0.25;stroke:#808080;stroke-linejoin:miter;stroke-opacity:0.25;"/>
   </g>
   <g id="patch_192">
    <path clip-path="url(#p50ac9944a2)" d="M 766.95288 179.424 
L 770.369318 179.424 
L 770.369318 150.769186 
L 766.95288 150.769186 
z
" style="fill:#808080;fill-opacity:0.25;stroke:#808080;stroke-linejoin:miter;stroke-opacity:0.25;"/>
   </g>
   <g id="patch_193">
    <path clip-path="url(#p50ac9944a2)" d="M 770.369318 179.424 
L 773.785756 179.424 
L 773.785756 157.544096 
L 770.369318 157.544096 
z
" style="fill:#808080;fill-opacity:0.25;stroke:#808080;stroke-linejoin:miter;stroke-opacity:0.25;"/>
   </g>
   <g id="patch_194">
    <path clip-path="url(#p50ac9944a2)" d="M 773.785756 179.424 
L 777.202194 179.424 
L 777.202194 162.737887 
L 773.785756 162.737887 
z
" style="fill:#808080;fill-opacity:0.25;stroke:#808080;stroke-linejoin:miter;stroke-opacity:0.25;"/>
   </g>
   <g id="patch_195">
    <path clip-path="url(#p50ac9944a2)" d="M 777.202194 179.424 
L 780.618632 179.424 
L 780.618632 166.785095 
L 777.202194 166.785095 
z
" style="fill:#808080;fill-opacity:0.25;stroke:#808080;stroke-linejoin:miter;stroke-opacity:0.25;"/>
   </g>
   <g id="patch_196">
    <path clip-path="url(#p50ac9944a2)" d="M 780.618632 179.424 
L 784.035071 179.424 
L 784.035071 169.937997 
L 780.618632 169.937997 
z
" style="fill:#808080;fill-opacity:0.25;stroke:#808080;stroke-linejoin:miter;stroke-opacity:0.25;"/>
   </g>
   <g id="patch_197">
    <path clip-path="url(#p50ac9944a2)" d="M 784.035071 179.424 
L 787.451509 179.424 
L 787.451509 172.361042 
L 784.035071 172.361042 
z
" style="fill:#808080;fill-opacity:0.25;stroke:#808080;stroke-linejoin:miter;stroke-opacity:0.25;"/>
   </g>
   <g id="patch_198">
    <path clip-path="url(#p50ac9944a2)" d="M 787.451509 179.424 
L 790.867947 179.424 
L 790.867947 174.185789 
L 787.451509 174.185789 
z
" style="fill:#808080;fill-opacity:0.25;stroke:#808080;stroke-linejoin:miter;stroke-opacity:0.25;"/>
   </g>
   <g id="patch_199">
    <path clip-path="url(#p50ac9944a2)" d="M 790.867947 179.424 
L 794.284385 179.424 
L 794.284385 175.566762 
L 790.867947 175.566762 
z
" style="fill:#808080;fill-opacity:0.25;stroke:#808080;stroke-linejoin:miter;stroke-opacity:0.25;"/>
   </g>
   <g id="patch_200">
    <path clip-path="url(#p50ac9944a2)" d="M 794.284385 179.424 
L 797.700823 179.424 
L 797.700823 176.603591 
L 794.284385 176.603591 
z
" style="fill:#808080;fill-opacity:0.25;stroke:#808080;stroke-linejoin:miter;stroke-opacity:0.25;"/>
   </g>
   <g id="patch_201">
    <path clip-path="url(#p50ac9944a2)" d="M 797.700823 179.424 
L 801.117261 179.424 
L 801.117261 177.359042 
L 797.700823 177.359042 
z
" style="fill:#808080;fill-opacity:0.25;stroke:#808080;stroke-linejoin:miter;stroke-opacity:0.25;"/>
   </g>
   <g id="patch_202">
    <path clip-path="url(#p50ac9944a2)" d="M 801.117261 179.424 
L 804.533699 179.424 
L 804.533699 177.931495 
L 801.117261 177.931495 
z
" style="fill:#808080;fill-opacity:0.25;stroke:#808080;stroke-linejoin:miter;stroke-opacity:0.25;"/>
   </g>
   <g id="matplotlib.axis_15"/>
   <g id="patch_203">
    <path d="M 689.741379 179.424 
L 689.741379 24.192 
" style="fill:none;stroke:#000000;stroke-linecap:square;stroke-linejoin:miter;stroke-width:0.8;"/>
   </g>
   <g id="patch_204">
    <path d="M 810 179.424 
L 810 24.192 
" style="fill:none;stroke:#000000;stroke-linecap:square;stroke-linejoin:miter;stroke-width:0.8;"/>
   </g>
   <g id="patch_205">
    <path d="M 689.741379 179.424 
L 810 179.424 
" style="fill:none;stroke:#000000;stroke-linecap:square;stroke-linejoin:miter;stroke-width:0.8;"/>
   </g>
   <g id="patch_206">
    <path d="M 689.741379 24.192 
L 810 24.192 
" style="fill:none;stroke:#000000;stroke-linecap:square;stroke-linejoin:miter;stroke-width:0.8;"/>
   </g>
  </g>
  <g id="text_40">
   <!-- vgg8 on cifar10 (bn) -->
   <g transform="translate(388.66875 13.150125)scale(0.12 -0.12)">
    <defs>
     <path d="M 2.984375 54.6875 
L 12.5 54.6875 
L 29.59375 8.796875 
L 46.6875 54.6875 
L 56.203125 54.6875 
L 35.6875 0 
L 23.484375 0 
z
" id="DejaVuSans-118"/>
     <path d="M 45.40625 27.984375 
Q 45.40625 37.75 41.375 43.109375 
Q 37.359375 48.484375 30.078125 48.484375 
Q 22.859375 48.484375 18.828125 43.109375 
Q 14.796875 37.75 14.796875 27.984375 
Q 14.796875 18.265625 18.828125 12.890625 
Q 22.859375 7.515625 30.078125 7.515625 
Q 37.359375 7.515625 41.375 12.890625 
Q 45.40625 18.265625 45.40625 27.984375 
z
M 54.390625 6.78125 
Q 54.390625 -7.171875 48.1875 -13.984375 
Q 42 -20.796875 29.203125 -20.796875 
Q 24.46875 -20.796875 20.265625 -20.09375 
Q 16.0625 -19.390625 12.109375 -17.921875 
L 12.109375 -9.1875 
Q 16.0625 -11.328125 19.921875 -12.34375 
Q 23.78125 -13.375 27.78125 -13.375 
Q 36.625 -13.375 41.015625 -8.765625 
Q 45.40625 -4.15625 45.40625 5.171875 
L 45.40625 9.625 
Q 42.625 4.78125 38.28125 2.390625 
Q 33.9375 0 27.875 0 
Q 17.828125 0 11.671875 7.65625 
Q 5.515625 15.328125 5.515625 27.984375 
Q 5.515625 40.671875 11.671875 48.328125 
Q 17.828125 56 27.875 56 
Q 33.9375 56 38.28125 53.609375 
Q 42.625 51.21875 45.40625 46.390625 
L 45.40625 54.6875 
L 54.390625 54.6875 
z
" id="DejaVuSans-103"/>
     <path id="DejaVuSans-32"/>
     <path d="M 30.609375 48.390625 
Q 23.390625 48.390625 19.1875 42.75 
Q 14.984375 37.109375 14.984375 27.296875 
Q 14.984375 17.484375 19.15625 11.84375 
Q 23.34375 6.203125 30.609375 6.203125 
Q 37.796875 6.203125 41.984375 11.859375 
Q 46.1875 17.53125 46.1875 27.296875 
Q 46.1875 37.015625 41.984375 42.703125 
Q 37.796875 48.390625 30.609375 48.390625 
z
M 30.609375 56 
Q 42.328125 56 49.015625 48.375 
Q 55.71875 40.765625 55.71875 27.296875 
Q 55.71875 13.875 49.015625 6.21875 
Q 42.328125 -1.421875 30.609375 -1.421875 
Q 18.84375 -1.421875 12.171875 6.21875 
Q 5.515625 13.875 5.515625 27.296875 
Q 5.515625 40.765625 12.171875 48.375 
Q 18.84375 56 30.609375 56 
z
" id="DejaVuSans-111"/>
     <path d="M 54.890625 33.015625 
L 54.890625 0 
L 45.90625 0 
L 45.90625 32.71875 
Q 45.90625 40.484375 42.875 44.328125 
Q 39.84375 48.1875 33.796875 48.1875 
Q 26.515625 48.1875 22.3125 43.546875 
Q 18.109375 38.921875 18.109375 30.90625 
L 18.109375 0 
L 9.078125 0 
L 9.078125 54.6875 
L 18.109375 54.6875 
L 18.109375 46.1875 
Q 21.34375 51.125 25.703125 53.5625 
Q 30.078125 56 35.796875 56 
Q 45.21875 56 50.046875 50.171875 
Q 54.890625 44.34375 54.890625 33.015625 
z
" id="DejaVuSans-110"/>
     <path d="M 48.78125 52.59375 
L 48.78125 44.1875 
Q 44.96875 46.296875 41.140625 47.34375 
Q 37.3125 48.390625 33.40625 48.390625 
Q 24.65625 48.390625 19.8125 42.84375 
Q 14.984375 37.3125 14.984375 27.296875 
Q 14.984375 17.28125 19.8125 11.734375 
Q 24.65625 6.203125 33.40625 6.203125 
Q 37.3125 6.203125 41.140625 7.25 
Q 44.96875 8.296875 48.78125 10.40625 
L 48.78125 2.09375 
Q 45.015625 0.34375 40.984375 -0.53125 
Q 36.96875 -1.421875 32.421875 -1.421875 
Q 20.0625 -1.421875 12.78125 6.34375 
Q 5.515625 14.109375 5.515625 27.296875 
Q 5.515625 40.671875 12.859375 48.328125 
Q 20.21875 56 33.015625 56 
Q 37.15625 56 41.109375 55.140625 
Q 45.0625 54.296875 48.78125 52.59375 
z
" id="DejaVuSans-99"/>
     <path d="M 9.421875 54.6875 
L 18.40625 54.6875 
L 18.40625 0 
L 9.421875 0 
z
M 9.421875 75.984375 
L 18.40625 75.984375 
L 18.40625 64.59375 
L 9.421875 64.59375 
z
" id="DejaVuSans-105"/>
     <path d="M 37.109375 75.984375 
L 37.109375 68.5 
L 28.515625 68.5 
Q 23.6875 68.5 21.796875 66.546875 
Q 19.921875 64.59375 19.921875 59.515625 
L 19.921875 54.6875 
L 34.71875 54.6875 
L 34.71875 47.703125 
L 19.921875 47.703125 
L 19.921875 0 
L 10.890625 0 
L 10.890625 47.703125 
L 2.296875 47.703125 
L 2.296875 54.6875 
L 10.890625 54.6875 
L 10.890625 58.5 
Q 10.890625 67.625 15.140625 71.796875 
Q 19.390625 75.984375 28.609375 75.984375 
z
" id="DejaVuSans-102"/>
     <path d="M 34.28125 27.484375 
Q 23.390625 27.484375 19.1875 25 
Q 14.984375 22.515625 14.984375 16.5 
Q 14.984375 11.71875 18.140625 8.90625 
Q 21.296875 6.109375 26.703125 6.109375 
Q 34.1875 6.109375 38.703125 11.40625 
Q 43.21875 16.703125 43.21875 25.484375 
L 43.21875 27.484375 
z
M 52.203125 31.203125 
L 52.203125 0 
L 43.21875 0 
L 43.21875 8.296875 
Q 40.140625 3.328125 35.546875 0.953125 
Q 30.953125 -1.421875 24.3125 -1.421875 
Q 15.921875 -1.421875 10.953125 3.296875 
Q 6 8.015625 6 15.921875 
Q 6 25.140625 12.171875 29.828125 
Q 18.359375 34.515625 30.609375 34.515625 
L 43.21875 34.515625 
L 43.21875 35.40625 
Q 43.21875 41.609375 39.140625 45 
Q 35.0625 48.390625 27.6875 48.390625 
Q 23 48.390625 18.546875 47.265625 
Q 14.109375 46.140625 10.015625 43.890625 
L 10.015625 52.203125 
Q 14.9375 54.109375 19.578125 55.046875 
Q 24.21875 56 28.609375 56 
Q 40.484375 56 46.34375 49.84375 
Q 52.203125 43.703125 52.203125 31.203125 
z
" id="DejaVuSans-97"/>
     <path d="M 41.109375 46.296875 
Q 39.59375 47.171875 37.8125 47.578125 
Q 36.03125 48 33.890625 48 
Q 26.265625 48 22.1875 43.046875 
Q 18.109375 38.09375 18.109375 28.8125 
L 18.109375 0 
L 9.078125 0 
L 9.078125 54.6875 
L 18.109375 54.6875 
L 18.109375 46.1875 
Q 20.953125 51.171875 25.484375 53.578125 
Q 30.03125 56 36.53125 56 
Q 37.453125 56 38.578125 55.875 
Q 39.703125 55.765625 41.0625 55.515625 
z
" id="DejaVuSans-114"/>
     <path d="M 31 75.875 
Q 24.46875 64.65625 21.28125 53.65625 
Q 18.109375 42.671875 18.109375 31.390625 
Q 18.109375 20.125 21.3125 9.0625 
Q 24.515625 -2 31 -13.1875 
L 23.1875 -13.1875 
Q 15.875 -1.703125 12.234375 9.375 
Q 8.59375 20.453125 8.59375 31.390625 
Q 8.59375 42.28125 12.203125 53.3125 
Q 15.828125 64.359375 23.1875 75.875 
z
" id="DejaVuSans-40"/>
     <path d="M 48.6875 27.296875 
Q 48.6875 37.203125 44.609375 42.84375 
Q 40.53125 48.484375 33.40625 48.484375 
Q 26.265625 48.484375 22.1875 42.84375 
Q 18.109375 37.203125 18.109375 27.296875 
Q 18.109375 17.390625 22.1875 11.75 
Q 26.265625 6.109375 33.40625 6.109375 
Q 40.53125 6.109375 44.609375 11.75 
Q 48.6875 17.390625 48.6875 27.296875 
z
M 18.109375 46.390625 
Q 20.953125 51.265625 25.265625 53.625 
Q 29.59375 56 35.59375 56 
Q 45.5625 56 51.78125 48.09375 
Q 58.015625 40.1875 58.015625 27.296875 
Q 58.015625 14.40625 51.78125 6.484375 
Q 45.5625 -1.421875 35.59375 -1.421875 
Q 29.59375 -1.421875 25.265625 0.953125 
Q 20.953125 3.328125 18.109375 8.203125 
L 18.109375 0 
L 9.078125 0 
L 9.078125 75.984375 
L 18.109375 75.984375 
z
" id="DejaVuSans-98"/>
     <path d="M 8.015625 75.875 
L 15.828125 75.875 
Q 23.140625 64.359375 26.78125 53.3125 
Q 30.421875 42.28125 30.421875 31.390625 
Q 30.421875 20.453125 26.78125 9.375 
Q 23.140625 -1.703125 15.828125 -13.1875 
L 8.015625 -13.1875 
Q 14.5 -2 17.703125 9.0625 
Q 20.90625 20.125 20.90625 31.390625 
Q 20.90625 42.671875 17.703125 53.65625 
Q 14.5 64.65625 8.015625 75.875 
z
" id="DejaVuSans-41"/>
    </defs>
    <use xlink:href="#DejaVuSans-118"/>
    <use x="59.179688" xlink:href="#DejaVuSans-103"/>
    <use x="122.65625" xlink:href="#DejaVuSans-103"/>
    <use x="186.132812" xlink:href="#DejaVuSans-56"/>
    <use x="249.755859" xlink:href="#DejaVuSans-32"/>
    <use x="281.542969" xlink:href="#DejaVuSans-111"/>
    <use x="342.724609" xlink:href="#DejaVuSans-110"/>
    <use x="406.103516" xlink:href="#DejaVuSans-32"/>
    <use x="437.890625" xlink:href="#DejaVuSans-99"/>
    <use x="492.871094" xlink:href="#DejaVuSans-105"/>
    <use x="520.654297" xlink:href="#DejaVuSans-102"/>
    <use x="555.859375" xlink:href="#DejaVuSans-97"/>
    <use x="617.138672" xlink:href="#DejaVuSans-114"/>
    <use x="658.251953" xlink:href="#DejaVuSans-49"/>
    <use x="721.875" xlink:href="#DejaVuSans-48"/>
    <use x="785.498047" xlink:href="#DejaVuSans-32"/>
    <use x="817.285156" xlink:href="#DejaVuSans-40"/>
    <use x="856.298828" xlink:href="#DejaVuSans-98"/>
    <use x="919.775391" xlink:href="#DejaVuSans-110"/>
    <use x="983.154297" xlink:href="#DejaVuSans-41"/>
   </g>
  </g>
 </g>
 <defs>
  <clipPath id="p6897938a52">
   <rect height="155.232" width="120.258621" x="112.5" y="24.192"/>
  </clipPath>
  <clipPath id="p4402170b2f">
   <rect height="155.232" width="120.258621" x="256.810345" y="24.192"/>
  </clipPath>
  <clipPath id="p0e3278661c">
   <rect height="155.232" width="120.258621" x="401.12069" y="24.192"/>
  </clipPath>
  <clipPath id="pc4607fb37f">
   <rect height="155.232" width="120.258621" x="545.431034" y="24.192"/>
  </clipPath>
  <clipPath id="p50ac9944a2">
   <rect height="155.232" width="120.258621" x="689.741379" y="24.192"/>
  </clipPath>
 </defs>
</svg>
