<?xml version="1.0" encoding="utf-8" standalone="no"?>
<!DOCTYPE svg PUBLIC "-//W3C//DTD SVG 1.1//EN"
  "http://www.w3.org/Graphics/SVG/1.1/DTD/svg11.dtd">
<!-- Created with matplotlib (https://matplotlib.org/) -->
<svg height="201.6pt" version="1.1" viewBox="0 0 900 201.6" width="900pt" xmlns="http://www.w3.org/2000/svg" xmlns:xlink="http://www.w3.org/1999/xlink">
 <metadata>
  <rdf:RDF xmlns:cc="http://creativecommons.org/ns#" xmlns:dc="http://purl.org/dc/elements/1.1/" xmlns:rdf="http://www.w3.org/1999/02/22-rdf-syntax-ns#">
   <cc:Work>
    <dc:type rdf:resource="http://purl.org/dc/dcmitype/StillImage"/>
    <dc:date>2021-01-23T14:24:59.004355</dc:date>
    <dc:format>image/svg+xml</dc:format>
    <dc:creator>
     <cc:Agent>
      <dc:title>Matplotlib v3.3.3, https://matplotlib.org/</dc:title>
     </cc:Agent>
    </dc:creator>
   </cc:Work>
  </rdf:RDF>
 </metadata>
 <defs>
  <style type="text/css">*{stroke-linecap:butt;stroke-linejoin:round;}</style>
 </defs>
 <g id="figure_1">
  <g id="patch_1">
   <path d="M 0 201.6 
L 900 201.6 
L 900 0 
L 0 0 
z
" style="fill:#ffffff;"/>
  </g>
  <g id="axes_1">
   <g id="patch_2">
    <path d="M 112.5 179.424 
L 232.758621 179.424 
L 232.758621 24.192 
L 112.5 24.192 
z
" style="fill:#ffffff;"/>
   </g>
   <g id="matplotlib.axis_1">
    <g id="xtick_1">
     <g id="line2d_1">
      <defs>
       <path d="M 0 0 
L 0 3.5 
" id="m4471a7bfd6" style="stroke:#000000;stroke-width:0.8;"/>
      </defs>
      <g>
       <use style="stroke:#000000;stroke-width:0.8;" x="113.761454" xlink:href="#m4471a7bfd6" y="179.424"/>
      </g>
     </g>
     <g id="text_1">
      <!-- −2 -->
      <g transform="translate(106.39036 194.022437)scale(0.1 -0.1)">
       <defs>
        <path d="M 10.59375 35.5 
L 73.1875 35.5 
L 73.1875 27.203125 
L 10.59375 27.203125 
z
" id="DejaVuSans-8722"/>
        <path d="M 19.1875 8.296875 
L 53.609375 8.296875 
L 53.609375 0 
L 7.328125 0 
L 7.328125 8.296875 
Q 12.9375 14.109375 22.625 23.890625 
Q 32.328125 33.6875 34.8125 36.53125 
Q 39.546875 41.84375 41.421875 45.53125 
Q 43.3125 49.21875 43.3125 52.78125 
Q 43.3125 58.59375 39.234375 62.25 
Q 35.15625 65.921875 28.609375 65.921875 
Q 23.96875 65.921875 18.8125 64.3125 
Q 13.671875 62.703125 7.8125 59.421875 
L 7.8125 69.390625 
Q 13.765625 71.78125 18.9375 73 
Q 24.125 74.21875 28.421875 74.21875 
Q 39.75 74.21875 46.484375 68.546875 
Q 53.21875 62.890625 53.21875 53.421875 
Q 53.21875 48.921875 51.53125 44.890625 
Q 49.859375 40.875 45.40625 35.40625 
Q 44.1875 33.984375 37.640625 27.21875 
Q 31.109375 20.453125 19.1875 8.296875 
z
" id="DejaVuSans-50"/>
       </defs>
       <use xlink:href="#DejaVuSans-8722"/>
       <use x="83.789062" xlink:href="#DejaVuSans-50"/>
      </g>
     </g>
    </g>
    <g id="xtick_2">
     <g id="line2d_2">
      <g>
       <use style="stroke:#000000;stroke-width:0.8;" x="169.826079" xlink:href="#m4471a7bfd6" y="179.424"/>
      </g>
     </g>
     <g id="text_2">
      <!-- 0 -->
      <g transform="translate(166.644829 194.022437)scale(0.1 -0.1)">
       <defs>
        <path d="M 31.78125 66.40625 
Q 24.171875 66.40625 20.328125 58.90625 
Q 16.5 51.421875 16.5 36.375 
Q 16.5 21.390625 20.328125 13.890625 
Q 24.171875 6.390625 31.78125 6.390625 
Q 39.453125 6.390625 43.28125 13.890625 
Q 47.125 21.390625 47.125 36.375 
Q 47.125 51.421875 43.28125 58.90625 
Q 39.453125 66.40625 31.78125 66.40625 
z
M 31.78125 74.21875 
Q 44.046875 74.21875 50.515625 64.515625 
Q 56.984375 54.828125 56.984375 36.375 
Q 56.984375 17.96875 50.515625 8.265625 
Q 44.046875 -1.421875 31.78125 -1.421875 
Q 19.53125 -1.421875 13.0625 8.265625 
Q 6.59375 17.96875 6.59375 36.375 
Q 6.59375 54.828125 13.0625 64.515625 
Q 19.53125 74.21875 31.78125 74.21875 
z
" id="DejaVuSans-48"/>
       </defs>
       <use xlink:href="#DejaVuSans-48"/>
      </g>
     </g>
    </g>
    <g id="xtick_3">
     <g id="line2d_3">
      <g>
       <use style="stroke:#000000;stroke-width:0.8;" x="225.890704" xlink:href="#m4471a7bfd6" y="179.424"/>
      </g>
     </g>
     <g id="text_3">
      <!-- 2 -->
      <g transform="translate(222.709454 194.022437)scale(0.1 -0.1)">
       <use xlink:href="#DejaVuSans-50"/>
      </g>
     </g>
    </g>
   </g>
   <g id="matplotlib.axis_2">
    <g id="ytick_1">
     <g id="line2d_4">
      <defs>
       <path d="M 0 0 
L -3.5 0 
" id="m360711e8be" style="stroke:#000000;stroke-width:0.8;"/>
      </defs>
      <g>
       <use style="stroke:#000000;stroke-width:0.8;" x="112.5" xlink:href="#m360711e8be" y="171.958669"/>
      </g>
     </g>
     <g id="text_4">
      <!-- −0.4 -->
      <g transform="translate(81.217187 175.757888)scale(0.1 -0.1)">
       <defs>
        <path d="M 10.6875 12.40625 
L 21 12.40625 
L 21 0 
L 10.6875 0 
z
" id="DejaVuSans-46"/>
        <path d="M 37.796875 64.3125 
L 12.890625 25.390625 
L 37.796875 25.390625 
z
M 35.203125 72.90625 
L 47.609375 72.90625 
L 47.609375 25.390625 
L 58.015625 25.390625 
L 58.015625 17.1875 
L 47.609375 17.1875 
L 47.609375 0 
L 37.796875 0 
L 37.796875 17.1875 
L 4.890625 17.1875 
L 4.890625 26.703125 
z
" id="DejaVuSans-52"/>
       </defs>
       <use xlink:href="#DejaVuSans-8722"/>
       <use x="83.789062" xlink:href="#DejaVuSans-48"/>
       <use x="147.412109" xlink:href="#DejaVuSans-46"/>
       <use x="179.199219" xlink:href="#DejaVuSans-52"/>
      </g>
     </g>
    </g>
    <g id="ytick_2">
     <g id="line2d_5">
      <g>
       <use style="stroke:#000000;stroke-width:0.8;" x="112.5" xlink:href="#m360711e8be" y="147.340488"/>
      </g>
     </g>
     <g id="text_5">
      <!-- −0.2 -->
      <g transform="translate(81.217187 151.139707)scale(0.1 -0.1)">
       <use xlink:href="#DejaVuSans-8722"/>
       <use x="83.789062" xlink:href="#DejaVuSans-48"/>
       <use x="147.412109" xlink:href="#DejaVuSans-46"/>
       <use x="179.199219" xlink:href="#DejaVuSans-50"/>
      </g>
     </g>
    </g>
    <g id="ytick_3">
     <g id="line2d_6">
      <g>
       <use style="stroke:#000000;stroke-width:0.8;" x="112.5" xlink:href="#m360711e8be" y="122.722307"/>
      </g>
     </g>
     <g id="text_6">
      <!-- 0.0 -->
      <g transform="translate(89.596875 126.521526)scale(0.1 -0.1)">
       <use xlink:href="#DejaVuSans-48"/>
       <use x="63.623047" xlink:href="#DejaVuSans-46"/>
       <use x="95.410156" xlink:href="#DejaVuSans-48"/>
      </g>
     </g>
    </g>
    <g id="ytick_4">
     <g id="line2d_7">
      <g>
       <use style="stroke:#000000;stroke-width:0.8;" x="112.5" xlink:href="#m360711e8be" y="98.104127"/>
      </g>
     </g>
     <g id="text_7">
      <!-- 0.2 -->
      <g transform="translate(89.596875 101.903345)scale(0.1 -0.1)">
       <use xlink:href="#DejaVuSans-48"/>
       <use x="63.623047" xlink:href="#DejaVuSans-46"/>
       <use x="95.410156" xlink:href="#DejaVuSans-50"/>
      </g>
     </g>
    </g>
    <g id="ytick_5">
     <g id="line2d_8">
      <g>
       <use style="stroke:#000000;stroke-width:0.8;" x="112.5" xlink:href="#m360711e8be" y="73.485946"/>
      </g>
     </g>
     <g id="text_8">
      <!-- 0.4 -->
      <g transform="translate(89.596875 77.285165)scale(0.1 -0.1)">
       <use xlink:href="#DejaVuSans-48"/>
       <use x="63.623047" xlink:href="#DejaVuSans-46"/>
       <use x="95.410156" xlink:href="#DejaVuSans-52"/>
      </g>
     </g>
    </g>
    <g id="ytick_6">
     <g id="line2d_9">
      <g>
       <use style="stroke:#000000;stroke-width:0.8;" x="112.5" xlink:href="#m360711e8be" y="48.867765"/>
      </g>
     </g>
     <g id="text_9">
      <!-- 0.6 -->
      <g transform="translate(89.596875 52.666984)scale(0.1 -0.1)">
       <defs>
        <path d="M 33.015625 40.375 
Q 26.375 40.375 22.484375 35.828125 
Q 18.609375 31.296875 18.609375 23.390625 
Q 18.609375 15.53125 22.484375 10.953125 
Q 26.375 6.390625 33.015625 6.390625 
Q 39.65625 6.390625 43.53125 10.953125 
Q 47.40625 15.53125 47.40625 23.390625 
Q 47.40625 31.296875 43.53125 35.828125 
Q 39.65625 40.375 33.015625 40.375 
z
M 52.59375 71.296875 
L 52.59375 62.3125 
Q 48.875 64.0625 45.09375 64.984375 
Q 41.3125 65.921875 37.59375 65.921875 
Q 27.828125 65.921875 22.671875 59.328125 
Q 17.53125 52.734375 16.796875 39.40625 
Q 19.671875 43.65625 24.015625 45.921875 
Q 28.375 48.1875 33.59375 48.1875 
Q 44.578125 48.1875 50.953125 41.515625 
Q 57.328125 34.859375 57.328125 23.390625 
Q 57.328125 12.15625 50.6875 5.359375 
Q 44.046875 -1.421875 33.015625 -1.421875 
Q 20.359375 -1.421875 13.671875 8.265625 
Q 6.984375 17.96875 6.984375 36.375 
Q 6.984375 53.65625 15.1875 63.9375 
Q 23.390625 74.21875 37.203125 74.21875 
Q 40.921875 74.21875 44.703125 73.484375 
Q 48.484375 72.75 52.59375 71.296875 
z
" id="DejaVuSans-54"/>
       </defs>
       <use xlink:href="#DejaVuSans-48"/>
       <use x="63.623047" xlink:href="#DejaVuSans-46"/>
       <use x="95.410156" xlink:href="#DejaVuSans-54"/>
      </g>
     </g>
    </g>
    <g id="ytick_7">
     <g id="line2d_10">
      <g>
       <use style="stroke:#000000;stroke-width:0.8;" x="112.5" xlink:href="#m360711e8be" y="24.249585"/>
      </g>
     </g>
     <g id="text_10">
      <!-- 0.8 -->
      <g transform="translate(89.596875 28.048803)scale(0.1 -0.1)">
       <defs>
        <path d="M 31.78125 34.625 
Q 24.75 34.625 20.71875 30.859375 
Q 16.703125 27.09375 16.703125 20.515625 
Q 16.703125 13.921875 20.71875 10.15625 
Q 24.75 6.390625 31.78125 6.390625 
Q 38.8125 6.390625 42.859375 10.171875 
Q 46.921875 13.96875 46.921875 20.515625 
Q 46.921875 27.09375 42.890625 30.859375 
Q 38.875 34.625 31.78125 34.625 
z
M 21.921875 38.8125 
Q 15.578125 40.375 12.03125 44.71875 
Q 8.5 49.078125 8.5 55.328125 
Q 8.5 64.0625 14.71875 69.140625 
Q 20.953125 74.21875 31.78125 74.21875 
Q 42.671875 74.21875 48.875 69.140625 
Q 55.078125 64.0625 55.078125 55.328125 
Q 55.078125 49.078125 51.53125 44.71875 
Q 48 40.375 41.703125 38.8125 
Q 48.828125 37.15625 52.796875 32.3125 
Q 56.78125 27.484375 56.78125 20.515625 
Q 56.78125 9.90625 50.3125 4.234375 
Q 43.84375 -1.421875 31.78125 -1.421875 
Q 19.734375 -1.421875 13.25 4.234375 
Q 6.78125 9.90625 6.78125 20.515625 
Q 6.78125 27.484375 10.78125 32.3125 
Q 14.796875 37.15625 21.921875 38.8125 
z
M 18.3125 54.390625 
Q 18.3125 48.734375 21.84375 45.5625 
Q 25.390625 42.390625 31.78125 42.390625 
Q 38.140625 42.390625 41.71875 45.5625 
Q 45.3125 48.734375 45.3125 54.390625 
Q 45.3125 60.0625 41.71875 63.234375 
Q 38.140625 66.40625 31.78125 66.40625 
Q 25.390625 66.40625 21.84375 63.234375 
Q 18.3125 60.0625 18.3125 54.390625 
z
" id="DejaVuSans-56"/>
       </defs>
       <use xlink:href="#DejaVuSans-48"/>
       <use x="63.623047" xlink:href="#DejaVuSans-46"/>
       <use x="95.410156" xlink:href="#DejaVuSans-56"/>
      </g>
     </g>
    </g>
   </g>
   <g id="line2d_11">
    <path clip-path="url(#p4061b1f36b)" d="M 119.367918 78.685077 
L 122.171146 80.101151 
L 124.974378 81.646737 
L 127.77761 83.353421 
L 130.580842 85.263231 
L 133.384074 87.431968 
L 136.187303 89.933307 
L 138.990535 92.863388 
L 141.793767 96.345291 
L 144.596998 100.531773 
L 147.400229 105.603233 
L 150.203461 111.755144 
L 153.006691 119.165871 
L 155.809923 127.931949 
L 158.613154 137.956285 
L 161.416385 148.782224 
L 164.219617 159.393071 
L 167.022848 168.055413 
L 169.826079 172.368 
L 172.62931 161.740543 
L 175.432542 147.524557 
L 178.235773 131.763025 
L 181.039004 116.050656 
L 183.842235 101.423523 
L 186.645467 88.427992 
L 189.448698 77.254619 
L 192.251929 67.869677 
L 195.05516 60.117768 
L 197.858392 53.791401 
L 200.661624 48.673301 
L 203.464855 44.55935 
L 206.268084 41.269013 
L 209.071316 38.648356 
L 211.874548 36.569271 
L 214.67778 34.926762 
L 217.481012 33.635611 
L 220.28424 32.627082 
L 223.087472 31.84597 
L 225.890704 31.248 
" style="fill:none;stroke:#1f77b4;stroke-linecap:square;stroke-width:1.5;"/>
   </g>
   <g id="patch_3">
    <path d="M 112.5 179.424 
L 112.5 24.192 
" style="fill:none;stroke:#000000;stroke-linecap:square;stroke-linejoin:miter;stroke-width:0.8;"/>
   </g>
   <g id="patch_4">
    <path d="M 232.758621 179.424 
L 232.758621 24.192 
" style="fill:none;stroke:#000000;stroke-linecap:square;stroke-linejoin:miter;stroke-width:0.8;"/>
   </g>
   <g id="patch_5">
    <path d="M 112.5 179.424 
L 232.758621 179.424 
" style="fill:none;stroke:#000000;stroke-linecap:square;stroke-linejoin:miter;stroke-width:0.8;"/>
   </g>
   <g id="patch_6">
    <path d="M 112.5 24.192 
L 232.758621 24.192 
" style="fill:none;stroke:#000000;stroke-linecap:square;stroke-linejoin:miter;stroke-width:0.8;"/>
   </g>
  </g>
  <g id="axes_2">
   <g id="patch_7">
    <path d="M 256.810345 179.424 
L 377.068966 179.424 
L 377.068966 24.192 
L 256.810345 24.192 
z
" style="fill:#ffffff;"/>
   </g>
   <g id="matplotlib.axis_3">
    <g id="xtick_4">
     <g id="line2d_12">
      <g>
       <use style="stroke:#000000;stroke-width:0.8;" x="282.319749" xlink:href="#m4471a7bfd6" y="179.424"/>
      </g>
     </g>
     <g id="text_11">
      <!-- −1 -->
      <g transform="translate(274.948655 194.022437)scale(0.1 -0.1)">
       <defs>
        <path d="M 12.40625 8.296875 
L 28.515625 8.296875 
L 28.515625 63.921875 
L 10.984375 60.40625 
L 10.984375 69.390625 
L 28.421875 72.90625 
L 38.28125 72.90625 
L 38.28125 8.296875 
L 54.390625 8.296875 
L 54.390625 0 
L 12.40625 0 
z
" id="DejaVuSans-49"/>
       </defs>
       <use xlink:href="#DejaVuSans-8722"/>
       <use x="83.789062" xlink:href="#DejaVuSans-49"/>
      </g>
     </g>
    </g>
    <g id="xtick_5">
     <g id="line2d_13">
      <g>
       <use style="stroke:#000000;stroke-width:0.8;" x="318.761755" xlink:href="#m4471a7bfd6" y="179.424"/>
      </g>
     </g>
     <g id="text_12">
      <!-- 0 -->
      <g transform="translate(315.580505 194.022437)scale(0.1 -0.1)">
       <use xlink:href="#DejaVuSans-48"/>
      </g>
     </g>
    </g>
    <g id="xtick_6">
     <g id="line2d_14">
      <g>
       <use style="stroke:#000000;stroke-width:0.8;" x="355.203762" xlink:href="#m4471a7bfd6" y="179.424"/>
      </g>
     </g>
     <g id="text_13">
      <!-- 1 -->
      <g transform="translate(352.022512 194.022437)scale(0.1 -0.1)">
       <use xlink:href="#DejaVuSans-49"/>
      </g>
     </g>
    </g>
   </g>
   <g id="matplotlib.axis_4">
    <g id="ytick_8">
     <g id="line2d_15">
      <g>
       <use style="stroke:#000000;stroke-width:0.8;" x="256.810345" xlink:href="#m360711e8be" y="157.741414"/>
      </g>
     </g>
     <g id="text_14">
      <!-- 0.00 -->
      <g transform="translate(227.54472 161.540633)scale(0.1 -0.1)">
       <use xlink:href="#DejaVuSans-48"/>
       <use x="63.623047" xlink:href="#DejaVuSans-46"/>
       <use x="95.410156" xlink:href="#DejaVuSans-48"/>
       <use x="159.033203" xlink:href="#DejaVuSans-48"/>
      </g>
     </g>
    </g>
    <g id="ytick_9">
     <g id="line2d_16">
      <g>
       <use style="stroke:#000000;stroke-width:0.8;" x="256.810345" xlink:href="#m360711e8be" y="132.076937"/>
      </g>
     </g>
     <g id="text_15">
      <!-- 0.25 -->
      <g transform="translate(227.54472 135.876156)scale(0.1 -0.1)">
       <defs>
        <path d="M 10.796875 72.90625 
L 49.515625 72.90625 
L 49.515625 64.59375 
L 19.828125 64.59375 
L 19.828125 46.734375 
Q 21.96875 47.46875 24.109375 47.828125 
Q 26.265625 48.1875 28.421875 48.1875 
Q 40.625 48.1875 47.75 41.5 
Q 54.890625 34.8125 54.890625 23.390625 
Q 54.890625 11.625 47.5625 5.09375 
Q 40.234375 -1.421875 26.90625 -1.421875 
Q 22.3125 -1.421875 17.546875 -0.640625 
Q 12.796875 0.140625 7.71875 1.703125 
L 7.71875 11.625 
Q 12.109375 9.234375 16.796875 8.0625 
Q 21.484375 6.890625 26.703125 6.890625 
Q 35.15625 6.890625 40.078125 11.328125 
Q 45.015625 15.765625 45.015625 23.390625 
Q 45.015625 31 40.078125 35.4375 
Q 35.15625 39.890625 26.703125 39.890625 
Q 22.75 39.890625 18.8125 39.015625 
Q 14.890625 38.140625 10.796875 36.28125 
z
" id="DejaVuSans-53"/>
       </defs>
       <use xlink:href="#DejaVuSans-48"/>
       <use x="63.623047" xlink:href="#DejaVuSans-46"/>
       <use x="95.410156" xlink:href="#DejaVuSans-50"/>
       <use x="159.033203" xlink:href="#DejaVuSans-53"/>
      </g>
     </g>
    </g>
    <g id="ytick_10">
     <g id="line2d_17">
      <g>
       <use style="stroke:#000000;stroke-width:0.8;" x="256.810345" xlink:href="#m360711e8be" y="106.41246"/>
      </g>
     </g>
     <g id="text_16">
      <!-- 0.50 -->
      <g transform="translate(227.54472 110.211678)scale(0.1 -0.1)">
       <use xlink:href="#DejaVuSans-48"/>
       <use x="63.623047" xlink:href="#DejaVuSans-46"/>
       <use x="95.410156" xlink:href="#DejaVuSans-53"/>
       <use x="159.033203" xlink:href="#DejaVuSans-48"/>
      </g>
     </g>
    </g>
    <g id="ytick_11">
     <g id="line2d_18">
      <g>
       <use style="stroke:#000000;stroke-width:0.8;" x="256.810345" xlink:href="#m360711e8be" y="80.747982"/>
      </g>
     </g>
     <g id="text_17">
      <!-- 0.75 -->
      <g transform="translate(227.54472 84.547201)scale(0.1 -0.1)">
       <defs>
        <path d="M 8.203125 72.90625 
L 55.078125 72.90625 
L 55.078125 68.703125 
L 28.609375 0 
L 18.3125 0 
L 43.21875 64.59375 
L 8.203125 64.59375 
z
" id="DejaVuSans-55"/>
       </defs>
       <use xlink:href="#DejaVuSans-48"/>
       <use x="63.623047" xlink:href="#DejaVuSans-46"/>
       <use x="95.410156" xlink:href="#DejaVuSans-55"/>
       <use x="159.033203" xlink:href="#DejaVuSans-53"/>
      </g>
     </g>
    </g>
    <g id="ytick_12">
     <g id="line2d_19">
      <g>
       <use style="stroke:#000000;stroke-width:0.8;" x="256.810345" xlink:href="#m360711e8be" y="55.083505"/>
      </g>
     </g>
     <g id="text_18">
      <!-- 1.00 -->
      <g transform="translate(227.54472 58.882724)scale(0.1 -0.1)">
       <use xlink:href="#DejaVuSans-49"/>
       <use x="63.623047" xlink:href="#DejaVuSans-46"/>
       <use x="95.410156" xlink:href="#DejaVuSans-48"/>
       <use x="159.033203" xlink:href="#DejaVuSans-48"/>
      </g>
     </g>
    </g>
    <g id="ytick_13">
     <g id="line2d_20">
      <g>
       <use style="stroke:#000000;stroke-width:0.8;" x="256.810345" xlink:href="#m360711e8be" y="29.419028"/>
      </g>
     </g>
     <g id="text_19">
      <!-- 1.25 -->
      <g transform="translate(227.54472 33.218246)scale(0.1 -0.1)">
       <use xlink:href="#DejaVuSans-49"/>
       <use x="63.623047" xlink:href="#DejaVuSans-46"/>
       <use x="95.410156" xlink:href="#DejaVuSans-50"/>
       <use x="159.033203" xlink:href="#DejaVuSans-53"/>
      </g>
     </g>
    </g>
   </g>
   <g id="line2d_21">
    <path clip-path="url(#pceeab2c05b)" d="M 264.098746 83.063186 
L 267.742948 94.137511 
L 271.387149 105.029634 
L 275.031346 115.613368 
L 278.675548 125.74379 
L 282.319749 135.261189 
L 285.963951 143.998671 
L 289.60815 151.792802 
L 293.252352 158.496352 
L 296.896551 163.989421 
L 300.540752 168.182911 
L 304.184953 171.005737 
L 307.829153 172.368 
L 311.473354 172.100084 
L 315.117555 169.886533 
L 318.761755 165.241643 
L 322.405956 157.606907 
L 326.050157 148.67234 
L 329.694358 138.647255 
L 333.338558 127.759128 
L 336.982759 116.280516 
L 340.62696 104.523259 
L 344.271159 92.812111 
L 347.915361 81.453313 
L 351.55956 70.709175 
L 355.203762 60.783359 
L 358.847963 51.816679 
L 362.492165 43.890884 
L 366.136362 37.037435 
L 369.780563 31.248 
" style="fill:none;stroke:#1f77b4;stroke-linecap:square;stroke-width:1.5;"/>
   </g>
   <g id="patch_8">
    <path d="M 256.810345 179.424 
L 256.810345 24.192 
" style="fill:none;stroke:#000000;stroke-linecap:square;stroke-linejoin:miter;stroke-width:0.8;"/>
   </g>
   <g id="patch_9">
    <path d="M 377.068966 179.424 
L 377.068966 24.192 
" style="fill:none;stroke:#000000;stroke-linecap:square;stroke-linejoin:miter;stroke-width:0.8;"/>
   </g>
   <g id="patch_10">
    <path d="M 256.810345 179.424 
L 377.068966 179.424 
" style="fill:none;stroke:#000000;stroke-linecap:square;stroke-linejoin:miter;stroke-width:0.8;"/>
   </g>
   <g id="patch_11">
    <path d="M 256.810345 24.192 
L 377.068966 24.192 
" style="fill:none;stroke:#000000;stroke-linecap:square;stroke-linejoin:miter;stroke-width:0.8;"/>
   </g>
  </g>
  <g id="axes_3">
   <g id="patch_12">
    <path d="M 401.12069 179.424 
L 521.37931 179.424 
L 521.37931 24.192 
L 401.12069 24.192 
z
" style="fill:#ffffff;"/>
   </g>
   <g id="matplotlib.axis_5">
    <g id="xtick_7">
     <g id="line2d_22">
      <g>
       <use style="stroke:#000000;stroke-width:0.8;" x="426.630094" xlink:href="#m4471a7bfd6" y="179.424"/>
      </g>
     </g>
     <g id="text_20">
      <!-- −1 -->
      <g transform="translate(419.259 194.022437)scale(0.1 -0.1)">
       <use xlink:href="#DejaVuSans-8722"/>
       <use x="83.789062" xlink:href="#DejaVuSans-49"/>
      </g>
     </g>
    </g>
    <g id="xtick_8">
     <g id="line2d_23">
      <g>
       <use style="stroke:#000000;stroke-width:0.8;" x="463.0721" xlink:href="#m4471a7bfd6" y="179.424"/>
      </g>
     </g>
     <g id="text_21">
      <!-- 0 -->
      <g transform="translate(459.89085 194.022437)scale(0.1 -0.1)">
       <use xlink:href="#DejaVuSans-48"/>
      </g>
     </g>
    </g>
    <g id="xtick_9">
     <g id="line2d_24">
      <g>
       <use style="stroke:#000000;stroke-width:0.8;" x="499.514107" xlink:href="#m4471a7bfd6" y="179.424"/>
      </g>
     </g>
     <g id="text_22">
      <!-- 1 -->
      <g transform="translate(496.332857 194.022437)scale(0.1 -0.1)">
       <use xlink:href="#DejaVuSans-49"/>
      </g>
     </g>
    </g>
   </g>
   <g id="matplotlib.axis_6">
    <g id="ytick_14">
     <g id="line2d_25">
      <g>
       <use style="stroke:#000000;stroke-width:0.8;" x="401.12069" xlink:href="#m360711e8be" y="176.987232"/>
      </g>
     </g>
     <g id="text_23">
      <!-- −0.5 -->
      <g transform="translate(369.837877 180.786451)scale(0.1 -0.1)">
       <use xlink:href="#DejaVuSans-8722"/>
       <use x="83.789062" xlink:href="#DejaVuSans-48"/>
       <use x="147.412109" xlink:href="#DejaVuSans-46"/>
       <use x="179.199219" xlink:href="#DejaVuSans-53"/>
      </g>
     </g>
    </g>
    <g id="ytick_15">
     <g id="line2d_26">
      <g>
       <use style="stroke:#000000;stroke-width:0.8;" x="401.12069" xlink:href="#m360711e8be" y="142.025943"/>
      </g>
     </g>
     <g id="text_24">
      <!-- 0.0 -->
      <g transform="translate(378.217565 145.825162)scale(0.1 -0.1)">
       <use xlink:href="#DejaVuSans-48"/>
       <use x="63.623047" xlink:href="#DejaVuSans-46"/>
       <use x="95.410156" xlink:href="#DejaVuSans-48"/>
      </g>
     </g>
    </g>
    <g id="ytick_16">
     <g id="line2d_27">
      <g>
       <use style="stroke:#000000;stroke-width:0.8;" x="401.12069" xlink:href="#m360711e8be" y="107.064654"/>
      </g>
     </g>
     <g id="text_25">
      <!-- 0.5 -->
      <g transform="translate(378.217565 110.863873)scale(0.1 -0.1)">
       <use xlink:href="#DejaVuSans-48"/>
       <use x="63.623047" xlink:href="#DejaVuSans-46"/>
       <use x="95.410156" xlink:href="#DejaVuSans-53"/>
      </g>
     </g>
    </g>
    <g id="ytick_17">
     <g id="line2d_28">
      <g>
       <use style="stroke:#000000;stroke-width:0.8;" x="401.12069" xlink:href="#m360711e8be" y="72.103365"/>
      </g>
     </g>
     <g id="text_26">
      <!-- 1.0 -->
      <g transform="translate(378.217565 75.902584)scale(0.1 -0.1)">
       <use xlink:href="#DejaVuSans-49"/>
       <use x="63.623047" xlink:href="#DejaVuSans-46"/>
       <use x="95.410156" xlink:href="#DejaVuSans-48"/>
      </g>
     </g>
    </g>
    <g id="ytick_18">
     <g id="line2d_29">
      <g>
       <use style="stroke:#000000;stroke-width:0.8;" x="401.12069" xlink:href="#m360711e8be" y="37.142076"/>
      </g>
     </g>
     <g id="text_27">
      <!-- 1.5 -->
      <g transform="translate(378.217565 40.941295)scale(0.1 -0.1)">
       <use xlink:href="#DejaVuSans-49"/>
       <use x="63.623047" xlink:href="#DejaVuSans-46"/>
       <use x="95.410156" xlink:href="#DejaVuSans-53"/>
      </g>
     </g>
    </g>
   </g>
   <g id="line2d_30">
    <path clip-path="url(#p5b0d0e3f64)" d="M 408.409091 100.293817 
L 412.053292 107.640621 
L 415.697494 114.902256 
L 419.341691 121.993857 
L 422.985893 128.826202 
L 426.630094 135.310929 
L 430.274296 141.367718 
L 433.918495 146.932874 
L 437.562696 151.968253 
L 441.206896 156.467903 
L 444.851097 160.458078 
L 448.495298 163.983927 
L 452.139498 167.074747 
L 455.783699 169.681998 
L 459.4279 171.595513 
L 463.0721 172.368 
L 466.716301 167.948922 
L 470.360502 162.270988 
L 474.004703 155.392331 
L 477.648903 147.361447 
L 481.293103 138.246606 
L 484.937305 128.15057 
L 488.581504 117.211187 
L 492.225706 105.592835 
L 495.869905 93.474146 
L 499.514107 81.035489 
L 503.158308 68.448625 
L 506.80251 55.869099 
L 510.446707 43.431643 
L 514.090908 31.248 
" style="fill:none;stroke:#1f77b4;stroke-linecap:square;stroke-width:1.5;"/>
   </g>
   <g id="patch_13">
    <path d="M 401.12069 179.424 
L 401.12069 24.192 
" style="fill:none;stroke:#000000;stroke-linecap:square;stroke-linejoin:miter;stroke-width:0.8;"/>
   </g>
   <g id="patch_14">
    <path d="M 521.37931 179.424 
L 521.37931 24.192 
" style="fill:none;stroke:#000000;stroke-linecap:square;stroke-linejoin:miter;stroke-width:0.8;"/>
   </g>
   <g id="patch_15">
    <path d="M 401.12069 179.424 
L 521.37931 179.424 
" style="fill:none;stroke:#000000;stroke-linecap:square;stroke-linejoin:miter;stroke-width:0.8;"/>
   </g>
   <g id="patch_16">
    <path d="M 401.12069 24.192 
L 521.37931 24.192 
" style="fill:none;stroke:#000000;stroke-linecap:square;stroke-linejoin:miter;stroke-width:0.8;"/>
   </g>
  </g>
  <g id="axes_4">
   <g id="patch_17">
    <path d="M 545.431034 179.424 
L 665.689655 179.424 
L 665.689655 24.192 
L 545.431034 24.192 
z
" style="fill:#ffffff;"/>
   </g>
   <g id="matplotlib.axis_7">
    <g id="xtick_10">
     <g id="line2d_31">
      <g>
       <use style="stroke:#000000;stroke-width:0.8;" x="574.584639" xlink:href="#m4471a7bfd6" y="179.424"/>
      </g>
     </g>
     <g id="text_28">
      <!-- −1 -->
      <g transform="translate(567.213546 194.022437)scale(0.1 -0.1)">
       <use xlink:href="#DejaVuSans-8722"/>
       <use x="83.789062" xlink:href="#DejaVuSans-49"/>
      </g>
     </g>
    </g>
    <g id="xtick_11">
     <g id="line2d_32">
      <g>
       <use style="stroke:#000000;stroke-width:0.8;" x="611.026646" xlink:href="#m4471a7bfd6" y="179.424"/>
      </g>
     </g>
     <g id="text_29">
      <!-- 0 -->
      <g transform="translate(607.845396 194.022437)scale(0.1 -0.1)">
       <use xlink:href="#DejaVuSans-48"/>
      </g>
     </g>
    </g>
    <g id="xtick_12">
     <g id="line2d_33">
      <g>
       <use style="stroke:#000000;stroke-width:0.8;" x="647.468652" xlink:href="#m4471a7bfd6" y="179.424"/>
      </g>
     </g>
     <g id="text_30">
      <!-- 1 -->
      <g transform="translate(644.287402 194.022437)scale(0.1 -0.1)">
       <use xlink:href="#DejaVuSans-49"/>
      </g>
     </g>
    </g>
   </g>
   <g id="matplotlib.axis_8">
    <g id="ytick_19">
     <g id="line2d_34">
      <g>
       <use style="stroke:#000000;stroke-width:0.8;" x="545.431034" xlink:href="#m360711e8be" y="172.526694"/>
      </g>
     </g>
     <g id="text_31">
      <!-- −0.5 -->
      <g transform="translate(514.148222 176.325913)scale(0.1 -0.1)">
       <use xlink:href="#DejaVuSans-8722"/>
       <use x="83.789062" xlink:href="#DejaVuSans-48"/>
       <use x="147.412109" xlink:href="#DejaVuSans-46"/>
       <use x="179.199219" xlink:href="#DejaVuSans-53"/>
      </g>
     </g>
    </g>
    <g id="ytick_20">
     <g id="line2d_35">
      <g>
       <use style="stroke:#000000;stroke-width:0.8;" x="545.431034" xlink:href="#m360711e8be" y="136.339364"/>
      </g>
     </g>
     <g id="text_32">
      <!-- 0.0 -->
      <g transform="translate(522.527909 140.138583)scale(0.1 -0.1)">
       <use xlink:href="#DejaVuSans-48"/>
       <use x="63.623047" xlink:href="#DejaVuSans-46"/>
       <use x="95.410156" xlink:href="#DejaVuSans-48"/>
      </g>
     </g>
    </g>
    <g id="ytick_21">
     <g id="line2d_36">
      <g>
       <use style="stroke:#000000;stroke-width:0.8;" x="545.431034" xlink:href="#m360711e8be" y="100.152034"/>
      </g>
     </g>
     <g id="text_33">
      <!-- 0.5 -->
      <g transform="translate(522.527909 103.951253)scale(0.1 -0.1)">
       <use xlink:href="#DejaVuSans-48"/>
       <use x="63.623047" xlink:href="#DejaVuSans-46"/>
       <use x="95.410156" xlink:href="#DejaVuSans-53"/>
      </g>
     </g>
    </g>
    <g id="ytick_22">
     <g id="line2d_37">
      <g>
       <use style="stroke:#000000;stroke-width:0.8;" x="545.431034" xlink:href="#m360711e8be" y="63.964704"/>
      </g>
     </g>
     <g id="text_34">
      <!-- 1.0 -->
      <g transform="translate(522.527909 67.763923)scale(0.1 -0.1)">
       <use xlink:href="#DejaVuSans-49"/>
       <use x="63.623047" xlink:href="#DejaVuSans-46"/>
       <use x="95.410156" xlink:href="#DejaVuSans-48"/>
      </g>
     </g>
    </g>
    <g id="ytick_23">
     <g id="line2d_38">
      <g>
       <use style="stroke:#000000;stroke-width:0.8;" x="545.431034" xlink:href="#m360711e8be" y="27.777374"/>
      </g>
     </g>
     <g id="text_35">
      <!-- 1.5 -->
      <g transform="translate(522.527909 31.576593)scale(0.1 -0.1)">
       <use xlink:href="#DejaVuSans-49"/>
       <use x="63.623047" xlink:href="#DejaVuSans-46"/>
       <use x="95.410156" xlink:href="#DejaVuSans-53"/>
      </g>
     </g>
    </g>
   </g>
   <g id="line2d_39">
    <path clip-path="url(#ped001bafff)" d="M 552.719435 109.365166 
L 556.363636 111.948904 
L 560.007838 114.916452 
L 563.652039 118.240376 
L 567.296237 121.882495 
L 570.940438 125.794502 
L 574.584639 129.920156 
L 578.228841 134.199626 
L 581.87304 138.575985 
L 585.517242 143.003225 
L 589.161441 147.453462 
L 592.805643 151.918894 
L 596.449843 156.401166 
L 600.094043 160.879427 
L 603.738244 165.2509 
L 607.382445 169.249245 
L 611.026646 172.368 
L 614.670846 170.205787 
L 618.315047 166.213298 
L 621.959248 160.357811 
L 625.603448 152.671375 
L 629.247649 143.256829 
L 632.89185 132.281593 
L 636.53605 119.961825 
L 640.180251 106.542011 
L 643.824451 92.274751 
L 647.468652 77.403708 
L 651.112854 62.151448 
L 654.757055 46.712062 
L 658.401252 31.248 
" style="fill:none;stroke:#1f77b4;stroke-linecap:square;stroke-width:1.5;"/>
   </g>
   <g id="patch_18">
    <path d="M 545.431034 179.424 
L 545.431034 24.192 
" style="fill:none;stroke:#000000;stroke-linecap:square;stroke-linejoin:miter;stroke-width:0.8;"/>
   </g>
   <g id="patch_19">
    <path d="M 665.689655 179.424 
L 665.689655 24.192 
" style="fill:none;stroke:#000000;stroke-linecap:square;stroke-linejoin:miter;stroke-width:0.8;"/>
   </g>
   <g id="patch_20">
    <path d="M 545.431034 179.424 
L 665.689655 179.424 
" style="fill:none;stroke:#000000;stroke-linecap:square;stroke-linejoin:miter;stroke-width:0.8;"/>
   </g>
   <g id="patch_21">
    <path d="M 545.431034 24.192 
L 665.689655 24.192 
" style="fill:none;stroke:#000000;stroke-linecap:square;stroke-linejoin:miter;stroke-width:0.8;"/>
   </g>
  </g>
  <g id="axes_5">
   <g id="patch_22">
    <path d="M 689.741379 179.424 
L 810 179.424 
L 810 24.192 
L 689.741379 24.192 
z
" style="fill:#ffffff;"/>
   </g>
   <g id="matplotlib.axis_9">
    <g id="xtick_13">
     <g id="line2d_40">
      <g>
       <use style="stroke:#000000;stroke-width:0.8;" x="713.99809" xlink:href="#m4471a7bfd6" y="179.424"/>
      </g>
     </g>
     <g id="text_36">
      <!-- −1 -->
      <g transform="translate(706.626996 194.022437)scale(0.1 -0.1)">
       <use xlink:href="#DejaVuSans-8722"/>
       <use x="83.789062" xlink:href="#DejaVuSans-49"/>
      </g>
     </g>
    </g>
    <g id="xtick_14">
     <g id="line2d_41">
      <g>
       <use style="stroke:#000000;stroke-width:0.8;" x="748.162471" xlink:href="#m4471a7bfd6" y="179.424"/>
      </g>
     </g>
     <g id="text_37">
      <!-- 0 -->
      <g transform="translate(744.981221 194.022437)scale(0.1 -0.1)">
       <use xlink:href="#DejaVuSans-48"/>
      </g>
     </g>
    </g>
    <g id="xtick_15">
     <g id="line2d_42">
      <g>
       <use style="stroke:#000000;stroke-width:0.8;" x="782.326851" xlink:href="#m4471a7bfd6" y="179.424"/>
      </g>
     </g>
     <g id="text_38">
      <!-- 1 -->
      <g transform="translate(779.145601 194.022437)scale(0.1 -0.1)">
       <use xlink:href="#DejaVuSans-49"/>
      </g>
     </g>
    </g>
   </g>
   <g id="matplotlib.axis_10">
    <g id="ytick_24">
     <g id="line2d_43">
      <g>
       <use style="stroke:#000000;stroke-width:0.8;" x="689.741379" xlink:href="#m360711e8be" y="162.861045"/>
      </g>
     </g>
     <g id="text_39">
      <!-- −2 -->
      <g transform="translate(667.999192 166.660264)scale(0.1 -0.1)">
       <use xlink:href="#DejaVuSans-8722"/>
       <use x="83.789062" xlink:href="#DejaVuSans-50"/>
      </g>
     </g>
    </g>
    <g id="ytick_25">
     <g id="line2d_44">
      <g>
       <use style="stroke:#000000;stroke-width:0.8;" x="689.741379" xlink:href="#m360711e8be" y="135.947215"/>
      </g>
     </g>
     <g id="text_40">
      <!-- 0 -->
      <g transform="translate(676.378879 139.746434)scale(0.1 -0.1)">
       <use xlink:href="#DejaVuSans-48"/>
      </g>
     </g>
    </g>
    <g id="ytick_26">
     <g id="line2d_45">
      <g>
       <use style="stroke:#000000;stroke-width:0.8;" x="689.741379" xlink:href="#m360711e8be" y="109.033386"/>
      </g>
     </g>
     <g id="text_41">
      <!-- 2 -->
      <g transform="translate(676.378879 112.832604)scale(0.1 -0.1)">
       <use xlink:href="#DejaVuSans-50"/>
      </g>
     </g>
    </g>
    <g id="ytick_27">
     <g id="line2d_46">
      <g>
       <use style="stroke:#000000;stroke-width:0.8;" x="689.741379" xlink:href="#m360711e8be" y="82.119556"/>
      </g>
     </g>
     <g id="text_42">
      <!-- 4 -->
      <g transform="translate(676.378879 85.918775)scale(0.1 -0.1)">
       <use xlink:href="#DejaVuSans-52"/>
      </g>
     </g>
    </g>
    <g id="ytick_28">
     <g id="line2d_47">
      <g>
       <use style="stroke:#000000;stroke-width:0.8;" x="689.741379" xlink:href="#m360711e8be" y="55.205726"/>
      </g>
     </g>
     <g id="text_43">
      <!-- 6 -->
      <g transform="translate(676.378879 59.004945)scale(0.1 -0.1)">
       <use xlink:href="#DejaVuSans-54"/>
      </g>
     </g>
    </g>
    <g id="ytick_29">
     <g id="line2d_48">
      <g>
       <use style="stroke:#000000;stroke-width:0.8;" x="689.741379" xlink:href="#m360711e8be" y="28.291896"/>
      </g>
     </g>
     <g id="text_44">
      <!-- 8 -->
      <g transform="translate(676.378879 32.091115)scale(0.1 -0.1)">
       <use xlink:href="#DejaVuSans-56"/>
      </g>
     </g>
    </g>
   </g>
   <g id="line2d_49">
    <path clip-path="url(#p2426837ce1)" d="M 696.915899 110.750593 
L 700.332338 116.237164 
L 703.748777 122.25169 
L 707.165212 128.70029 
L 710.581651 135.424286 
L 713.99809 142.200761 
L 717.414529 148.75976 
L 720.830966 154.819127 
L 724.247404 160.129982 
L 727.663841 164.517784 
L 731.08028 167.903272 
L 734.496718 170.295025 
L 737.913156 171.757641 
L 741.329594 172.368 
L 744.746032 172.173271 
L 748.162471 171.160305 
L 751.578909 169.240996 
L 754.995347 166.255734 
L 758.411785 161.996292 
L 761.828223 156.248548 
L 765.244661 148.851963 
L 768.6611 139.765013 
L 772.077537 129.117097 
L 775.493976 117.224583 
L 778.910413 104.557483 
L 782.326851 91.663221 
L 785.74329 79.073431 
L 789.159729 67.225377 
L 792.576164 56.418756 
L 795.992603 46.810548 
L 799.409042 38.437084 
L 802.825481 31.248 
" style="fill:none;stroke:#1f77b4;stroke-linecap:square;stroke-width:1.5;"/>
   </g>
   <g id="patch_23">
    <path d="M 689.741379 179.424 
L 689.741379 24.192 
" style="fill:none;stroke:#000000;stroke-linecap:square;stroke-linejoin:miter;stroke-width:0.8;"/>
   </g>
   <g id="patch_24">
    <path d="M 810 179.424 
L 810 24.192 
" style="fill:none;stroke:#000000;stroke-linecap:square;stroke-linejoin:miter;stroke-width:0.8;"/>
   </g>
   <g id="patch_25">
    <path d="M 689.741379 179.424 
L 810 179.424 
" style="fill:none;stroke:#000000;stroke-linecap:square;stroke-linejoin:miter;stroke-width:0.8;"/>
   </g>
   <g id="patch_26">
    <path d="M 689.741379 24.192 
L 810 24.192 
" style="fill:none;stroke:#000000;stroke-linecap:square;stroke-linejoin:miter;stroke-width:0.8;"/>
   </g>
  </g>
  <g id="axes_6">
   <g id="patch_27">
    <path clip-path="url(#p4061b1f36b)" d="M 117.966301 179.424 
L 120.769532 179.424 
L 120.769532 177.821202 
L 117.966301 177.821202 
z
" style="fill:#808080;fill-opacity:0.25;stroke:#808080;stroke-linejoin:miter;stroke-opacity:0.25;"/>
   </g>
   <g id="patch_28">
    <path clip-path="url(#p4061b1f36b)" d="M 120.769532 179.424 
L 123.572763 179.424 
L 123.572763 177.316271 
L 120.769532 177.316271 
z
" style="fill:#808080;fill-opacity:0.25;stroke:#808080;stroke-linejoin:miter;stroke-opacity:0.25;"/>
   </g>
   <g id="patch_29">
    <path clip-path="url(#p4061b1f36b)" d="M 123.572763 179.424 
L 126.375995 179.424 
L 126.375995 177.135299 
L 123.572763 177.135299 
z
" style="fill:#808080;fill-opacity:0.25;stroke:#808080;stroke-linejoin:miter;stroke-opacity:0.25;"/>
   </g>
   <g id="patch_30">
    <path clip-path="url(#p4061b1f36b)" d="M 126.375995 179.424 
L 129.179226 179.424 
L 129.179226 176.514086 
L 126.375995 176.514086 
z
" style="fill:#808080;fill-opacity:0.25;stroke:#808080;stroke-linejoin:miter;stroke-opacity:0.25;"/>
   </g>
   <g id="patch_31">
    <path clip-path="url(#p4061b1f36b)" d="M 129.179226 179.424 
L 131.982457 179.424 
L 131.982457 175.965266 
L 129.179226 175.965266 
z
" style="fill:#808080;fill-opacity:0.25;stroke:#808080;stroke-linejoin:miter;stroke-opacity:0.25;"/>
   </g>
   <g id="patch_32">
    <path clip-path="url(#p4061b1f36b)" d="M 131.982457 179.424 
L 134.785688 179.424 
L 134.785688 175.078386 
L 131.982457 175.078386 
z
" style="fill:#808080;fill-opacity:0.25;stroke:#808080;stroke-linejoin:miter;stroke-opacity:0.25;"/>
   </g>
   <g id="patch_33">
    <path clip-path="url(#p4061b1f36b)" d="M 134.785688 179.424 
L 137.58892 179.424 
L 137.58892 174.086505 
L 134.785688 174.086505 
z
" style="fill:#808080;fill-opacity:0.25;stroke:#808080;stroke-linejoin:miter;stroke-opacity:0.25;"/>
   </g>
   <g id="patch_34">
    <path clip-path="url(#p4061b1f36b)" d="M 137.58892 179.424 
L 140.392151 179.424 
L 140.392151 172.332394 
L 137.58892 172.332394 
z
" style="fill:#808080;fill-opacity:0.25;stroke:#808080;stroke-linejoin:miter;stroke-opacity:0.25;"/>
   </g>
   <g id="patch_35">
    <path clip-path="url(#p4061b1f36b)" d="M 140.392151 179.424 
L 143.195382 179.424 
L 143.195382 170.26424 
L 140.392151 170.26424 
z
" style="fill:#808080;fill-opacity:0.25;stroke:#808080;stroke-linejoin:miter;stroke-opacity:0.25;"/>
   </g>
   <g id="patch_36">
    <path clip-path="url(#p4061b1f36b)" d="M 143.195382 179.424 
L 145.998613 179.424 
L 145.998613 167.765194 
L 143.195382 167.765194 
z
" style="fill:#808080;fill-opacity:0.25;stroke:#808080;stroke-linejoin:miter;stroke-opacity:0.25;"/>
   </g>
   <g id="patch_37">
    <path clip-path="url(#p4061b1f36b)" d="M 145.998613 179.424 
L 148.801845 179.424 
L 148.801845 164.70585 
L 145.998613 164.70585 
z
" style="fill:#808080;fill-opacity:0.25;stroke:#808080;stroke-linejoin:miter;stroke-opacity:0.25;"/>
   </g>
   <g id="patch_38">
    <path clip-path="url(#p4061b1f36b)" d="M 148.801845 179.424 
L 151.605076 179.424 
L 151.605076 160.090075 
L 148.801845 160.090075 
z
" style="fill:#808080;fill-opacity:0.25;stroke:#808080;stroke-linejoin:miter;stroke-opacity:0.25;"/>
   </g>
   <g id="patch_39">
    <path clip-path="url(#p4061b1f36b)" d="M 151.605076 179.424 
L 154.408307 179.424 
L 154.408307 152.881788 
L 151.605076 152.881788 
z
" style="fill:#808080;fill-opacity:0.25;stroke:#808080;stroke-linejoin:miter;stroke-opacity:0.25;"/>
   </g>
   <g id="patch_40">
    <path clip-path="url(#p4061b1f36b)" d="M 154.408307 179.424 
L 157.211538 179.424 
L 157.211538 137.421484 
L 154.408307 137.421484 
z
" style="fill:#808080;fill-opacity:0.25;stroke:#808080;stroke-linejoin:miter;stroke-opacity:0.25;"/>
   </g>
   <g id="patch_41">
    <path clip-path="url(#p4061b1f36b)" d="M 157.211538 179.424 
L 160.01477 179.424 
L 160.01477 120.47787 
L 157.211538 120.47787 
z
" style="fill:#808080;fill-opacity:0.25;stroke:#808080;stroke-linejoin:miter;stroke-opacity:0.25;"/>
   </g>
   <g id="patch_42">
    <path clip-path="url(#p4061b1f36b)" d="M 160.01477 179.424 
L 162.818001 179.424 
L 162.818001 106.624909 
L 160.01477 106.624909 
z
" style="fill:#808080;fill-opacity:0.25;stroke:#808080;stroke-linejoin:miter;stroke-opacity:0.25;"/>
   </g>
   <g id="patch_43">
    <path clip-path="url(#p4061b1f36b)" d="M 162.818001 179.424 
L 165.621232 179.424 
L 165.621232 80.060118 
L 162.818001 80.060118 
z
" style="fill:#808080;fill-opacity:0.25;stroke:#808080;stroke-linejoin:miter;stroke-opacity:0.25;"/>
   </g>
   <g id="patch_44">
    <path clip-path="url(#p4061b1f36b)" d="M 165.621232 179.424 
L 168.424463 179.424 
L 168.424463 47.781785 
L 165.621232 47.781785 
z
" style="fill:#808080;fill-opacity:0.25;stroke:#808080;stroke-linejoin:miter;stroke-opacity:0.25;"/>
   </g>
   <g id="patch_45">
    <path clip-path="url(#p4061b1f36b)" d="M 168.424463 179.424 
L 171.227695 179.424 
L 171.227695 31.584 
L 168.424463 31.584 
z
" style="fill:#808080;fill-opacity:0.25;stroke:#808080;stroke-linejoin:miter;stroke-opacity:0.25;"/>
   </g>
   <g id="patch_46">
    <path clip-path="url(#p4061b1f36b)" d="M 171.227695 179.424 
L 174.030926 179.424 
L 174.030926 33.980369 
L 171.227695 33.980369 
z
" style="fill:#808080;fill-opacity:0.25;stroke:#808080;stroke-linejoin:miter;stroke-opacity:0.25;"/>
   </g>
   <g id="patch_47">
    <path clip-path="url(#p4061b1f36b)" d="M 174.030926 179.424 
L 176.834157 179.424 
L 176.834157 40.386587 
L 174.030926 40.386587 
z
" style="fill:#808080;fill-opacity:0.25;stroke:#808080;stroke-linejoin:miter;stroke-opacity:0.25;"/>
   </g>
   <g id="patch_48">
    <path clip-path="url(#p4061b1f36b)" d="M 176.834157 179.424 
L 179.637388 179.424 
L 179.637388 72.753546 
L 176.834157 72.753546 
z
" style="fill:#808080;fill-opacity:0.25;stroke:#808080;stroke-linejoin:miter;stroke-opacity:0.25;"/>
   </g>
   <g id="patch_49">
    <path clip-path="url(#p4061b1f36b)" d="M 179.637388 179.424 
L 182.44062 179.424 
L 182.44062 103.733324 
L 179.637388 103.733324 
z
" style="fill:#808080;fill-opacity:0.25;stroke:#808080;stroke-linejoin:miter;stroke-opacity:0.25;"/>
   </g>
   <g id="patch_50">
    <path clip-path="url(#p4061b1f36b)" d="M 182.44062 179.424 
L 185.243851 179.424 
L 185.243851 123.022655 
L 182.44062 123.022655 
z
" style="fill:#808080;fill-opacity:0.25;stroke:#808080;stroke-linejoin:miter;stroke-opacity:0.25;"/>
   </g>
   <g id="patch_51">
    <path clip-path="url(#p4061b1f36b)" d="M 185.243851 179.424 
L 188.047082 179.424 
L 188.047082 142.306079 
L 185.243851 142.306079 
z
" style="fill:#808080;fill-opacity:0.25;stroke:#808080;stroke-linejoin:miter;stroke-opacity:0.25;"/>
   </g>
   <g id="patch_52">
    <path clip-path="url(#p4061b1f36b)" d="M 188.047082 179.424 
L 190.850313 179.424 
L 190.850313 153.260891 
L 188.047082 153.260891 
z
" style="fill:#808080;fill-opacity:0.25;stroke:#808080;stroke-linejoin:miter;stroke-opacity:0.25;"/>
   </g>
   <g id="patch_53">
    <path clip-path="url(#p4061b1f36b)" d="M 190.850313 179.424 
L 193.653545 179.424 
L 193.653545 162.590117 
L 190.850313 162.590117 
z
" style="fill:#808080;fill-opacity:0.25;stroke:#808080;stroke-linejoin:miter;stroke-opacity:0.25;"/>
   </g>
   <g id="patch_54">
    <path clip-path="url(#p4061b1f36b)" d="M 193.653545 179.424 
L 196.456776 179.424 
L 196.456776 167.141861 
L 193.653545 167.141861 
z
" style="fill:#808080;fill-opacity:0.25;stroke:#808080;stroke-linejoin:miter;stroke-opacity:0.25;"/>
   </g>
   <g id="patch_55">
    <path clip-path="url(#p4061b1f36b)" d="M 196.456776 179.424 
L 199.260007 179.424 
L 199.260007 170.25104 
L 196.456776 170.25104 
z
" style="fill:#808080;fill-opacity:0.25;stroke:#808080;stroke-linejoin:miter;stroke-opacity:0.25;"/>
   </g>
   <g id="patch_56">
    <path clip-path="url(#p4061b1f36b)" d="M 199.260007 179.424 
L 202.063238 179.424 
L 202.063238 172.23062 
L 199.260007 172.23062 
z
" style="fill:#808080;fill-opacity:0.25;stroke:#808080;stroke-linejoin:miter;stroke-opacity:0.25;"/>
   </g>
   <g id="patch_57">
    <path clip-path="url(#p4061b1f36b)" d="M 202.063238 179.424 
L 204.86647 179.424 
L 204.86647 173.68294 
L 202.063238 173.68294 
z
" style="fill:#808080;fill-opacity:0.25;stroke:#808080;stroke-linejoin:miter;stroke-opacity:0.25;"/>
   </g>
   <g id="patch_58">
    <path clip-path="url(#p4061b1f36b)" d="M 204.86647 179.424 
L 207.669701 179.424 
L 207.669701 175.083706 
L 204.86647 175.083706 
z
" style="fill:#808080;fill-opacity:0.25;stroke:#808080;stroke-linejoin:miter;stroke-opacity:0.25;"/>
   </g>
   <g id="patch_59">
    <path clip-path="url(#p4061b1f36b)" d="M 207.669701 179.424 
L 210.472932 179.424 
L 210.472932 175.863794 
L 207.669701 175.863794 
z
" style="fill:#808080;fill-opacity:0.25;stroke:#808080;stroke-linejoin:miter;stroke-opacity:0.25;"/>
   </g>
   <g id="patch_60">
    <path clip-path="url(#p4061b1f36b)" d="M 210.472932 179.424 
L 213.276163 179.424 
L 213.276163 176.389077 
L 210.472932 176.389077 
z
" style="fill:#808080;fill-opacity:0.25;stroke:#808080;stroke-linejoin:miter;stroke-opacity:0.25;"/>
   </g>
   <g id="patch_61">
    <path clip-path="url(#p4061b1f36b)" d="M 213.276163 179.424 
L 216.079395 179.424 
L 216.079395 176.78067 
L 213.276163 176.78067 
z
" style="fill:#808080;fill-opacity:0.25;stroke:#808080;stroke-linejoin:miter;stroke-opacity:0.25;"/>
   </g>
   <g id="patch_62">
    <path clip-path="url(#p4061b1f36b)" d="M 216.079395 179.424 
L 218.882626 179.424 
L 218.882626 177.444145 
L 216.079395 177.444145 
z
" style="fill:#808080;fill-opacity:0.25;stroke:#808080;stroke-linejoin:miter;stroke-opacity:0.25;"/>
   </g>
   <g id="patch_63">
    <path clip-path="url(#p4061b1f36b)" d="M 218.882626 179.424 
L 221.685857 179.424 
L 221.685857 177.706102 
L 218.882626 177.706102 
z
" style="fill:#808080;fill-opacity:0.25;stroke:#808080;stroke-linejoin:miter;stroke-opacity:0.25;"/>
   </g>
   <g id="patch_64">
    <path clip-path="url(#p4061b1f36b)" d="M 221.685857 179.424 
L 224.489088 179.424 
L 224.489088 177.768773 
L 221.685857 177.768773 
z
" style="fill:#808080;fill-opacity:0.25;stroke:#808080;stroke-linejoin:miter;stroke-opacity:0.25;"/>
   </g>
   <g id="patch_65">
    <path clip-path="url(#p4061b1f36b)" d="M 224.489088 179.424 
L 227.29232 179.424 
L 227.29232 177.705679 
L 224.489088 177.705679 
z
" style="fill:#808080;fill-opacity:0.25;stroke:#808080;stroke-linejoin:miter;stroke-opacity:0.25;"/>
   </g>
   <g id="matplotlib.axis_11"/>
   <g id="patch_66">
    <path d="M 112.5 179.424 
L 112.5 24.192 
" style="fill:none;stroke:#000000;stroke-linecap:square;stroke-linejoin:miter;stroke-width:0.8;"/>
   </g>
   <g id="patch_67">
    <path d="M 232.758621 179.424 
L 232.758621 24.192 
" style="fill:none;stroke:#000000;stroke-linecap:square;stroke-linejoin:miter;stroke-width:0.8;"/>
   </g>
   <g id="patch_68">
    <path d="M 112.5 179.424 
L 232.758621 179.424 
" style="fill:none;stroke:#000000;stroke-linecap:square;stroke-linejoin:miter;stroke-width:0.8;"/>
   </g>
   <g id="patch_69">
    <path d="M 112.5 24.192 
L 232.758621 24.192 
" style="fill:none;stroke:#000000;stroke-linecap:square;stroke-linejoin:miter;stroke-width:0.8;"/>
   </g>
  </g>
  <g id="axes_7">
   <g id="patch_70">
    <path clip-path="url(#pceeab2c05b)" d="M 262.276646 179.424 
L 265.920846 179.424 
L 265.920846 177.111195 
L 262.276646 177.111195 
z
" style="fill:#808080;fill-opacity:0.25;stroke:#808080;stroke-linejoin:miter;stroke-opacity:0.25;"/>
   </g>
   <g id="patch_71">
    <path clip-path="url(#pceeab2c05b)" d="M 265.920846 179.424 
L 269.565047 179.424 
L 269.565047 175.763373 
L 265.920846 175.763373 
z
" style="fill:#808080;fill-opacity:0.25;stroke:#808080;stroke-linejoin:miter;stroke-opacity:0.25;"/>
   </g>
   <g id="patch_72">
    <path clip-path="url(#pceeab2c05b)" d="M 269.565047 179.424 
L 273.209248 179.424 
L 273.209248 173.649559 
L 269.565047 173.649559 
z
" style="fill:#808080;fill-opacity:0.25;stroke:#808080;stroke-linejoin:miter;stroke-opacity:0.25;"/>
   </g>
   <g id="patch_73">
    <path clip-path="url(#pceeab2c05b)" d="M 273.209248 179.424 
L 276.853448 179.424 
L 276.853448 170.490452 
L 273.209248 170.490452 
z
" style="fill:#808080;fill-opacity:0.25;stroke:#808080;stroke-linejoin:miter;stroke-opacity:0.25;"/>
   </g>
   <g id="patch_74">
    <path clip-path="url(#pceeab2c05b)" d="M 276.853448 179.424 
L 280.497649 179.424 
L 280.497649 166.047096 
L 276.853448 166.047096 
z
" style="fill:#808080;fill-opacity:0.25;stroke:#808080;stroke-linejoin:miter;stroke-opacity:0.25;"/>
   </g>
   <g id="patch_75">
    <path clip-path="url(#pceeab2c05b)" d="M 280.497649 179.424 
L 284.14185 179.424 
L 284.14185 159.741817 
L 280.497649 159.741817 
z
" style="fill:#808080;fill-opacity:0.25;stroke:#808080;stroke-linejoin:miter;stroke-opacity:0.25;"/>
   </g>
   <g id="patch_76">
    <path clip-path="url(#pceeab2c05b)" d="M 284.14185 179.424 
L 287.78605 179.424 
L 287.78605 151.081338 
L 284.14185 151.081338 
z
" style="fill:#808080;fill-opacity:0.25;stroke:#808080;stroke-linejoin:miter;stroke-opacity:0.25;"/>
   </g>
   <g id="patch_77">
    <path clip-path="url(#pceeab2c05b)" d="M 287.78605 179.424 
L 291.430251 179.424 
L 291.430251 139.701769 
L 287.78605 139.701769 
z
" style="fill:#808080;fill-opacity:0.25;stroke:#808080;stroke-linejoin:miter;stroke-opacity:0.25;"/>
   </g>
   <g id="patch_78">
    <path clip-path="url(#pceeab2c05b)" d="M 291.430251 179.424 
L 295.074451 179.424 
L 295.074451 125.655048 
L 291.430251 125.655048 
z
" style="fill:#808080;fill-opacity:0.25;stroke:#808080;stroke-linejoin:miter;stroke-opacity:0.25;"/>
   </g>
   <g id="patch_79">
    <path clip-path="url(#pceeab2c05b)" d="M 295.074451 179.424 
L 298.718652 179.424 
L 298.718652 109.217406 
L 295.074451 109.217406 
z
" style="fill:#808080;fill-opacity:0.25;stroke:#808080;stroke-linejoin:miter;stroke-opacity:0.25;"/>
   </g>
   <g id="patch_80">
    <path clip-path="url(#pceeab2c05b)" d="M 298.718652 179.424 
L 302.362853 179.424 
L 302.362853 90.308506 
L 298.718652 90.308506 
z
" style="fill:#808080;fill-opacity:0.25;stroke:#808080;stroke-linejoin:miter;stroke-opacity:0.25;"/>
   </g>
   <g id="patch_81">
    <path clip-path="url(#pceeab2c05b)" d="M 302.362853 179.424 
L 306.007053 179.424 
L 306.007053 70.568567 
L 302.362853 70.568567 
z
" style="fill:#808080;fill-opacity:0.25;stroke:#808080;stroke-linejoin:miter;stroke-opacity:0.25;"/>
   </g>
   <g id="patch_82">
    <path clip-path="url(#pceeab2c05b)" d="M 306.007053 179.424 
L 309.651254 179.424 
L 309.651254 51.901441 
L 306.007053 51.901441 
z
" style="fill:#808080;fill-opacity:0.25;stroke:#808080;stroke-linejoin:miter;stroke-opacity:0.25;"/>
   </g>
   <g id="patch_83">
    <path clip-path="url(#pceeab2c05b)" d="M 309.651254 179.424 
L 313.295455 179.424 
L 313.295455 38.156745 
L 309.651254 38.156745 
z
" style="fill:#808080;fill-opacity:0.25;stroke:#808080;stroke-linejoin:miter;stroke-opacity:0.25;"/>
   </g>
   <g id="patch_84">
    <path clip-path="url(#pceeab2c05b)" d="M 313.295455 179.424 
L 316.939655 179.424 
L 316.939655 31.584 
L 313.295455 31.584 
z
" style="fill:#808080;fill-opacity:0.25;stroke:#808080;stroke-linejoin:miter;stroke-opacity:0.25;"/>
   </g>
   <g id="patch_85">
    <path clip-path="url(#pceeab2c05b)" d="M 316.939655 179.424 
L 320.583856 179.424 
L 320.583856 31.836148 
L 316.939655 31.836148 
z
" style="fill:#808080;fill-opacity:0.25;stroke:#808080;stroke-linejoin:miter;stroke-opacity:0.25;"/>
   </g>
   <g id="patch_86">
    <path clip-path="url(#pceeab2c05b)" d="M 320.583856 179.424 
L 324.228056 179.424 
L 324.228056 39.687122 
L 320.583856 39.687122 
z
" style="fill:#808080;fill-opacity:0.25;stroke:#808080;stroke-linejoin:miter;stroke-opacity:0.25;"/>
   </g>
   <g id="patch_87">
    <path clip-path="url(#pceeab2c05b)" d="M 324.228056 179.424 
L 327.872257 179.424 
L 327.872257 53.141171 
L 324.228056 53.141171 
z
" style="fill:#808080;fill-opacity:0.25;stroke:#808080;stroke-linejoin:miter;stroke-opacity:0.25;"/>
   </g>
   <g id="patch_88">
    <path clip-path="url(#pceeab2c05b)" d="M 327.872257 179.424 
L 331.516458 179.424 
L 331.516458 70.343467 
L 327.872257 70.343467 
z
" style="fill:#808080;fill-opacity:0.25;stroke:#808080;stroke-linejoin:miter;stroke-opacity:0.25;"/>
   </g>
   <g id="patch_89">
    <path clip-path="url(#pceeab2c05b)" d="M 331.516458 179.424 
L 335.160658 179.424 
L 335.160658 88.971932 
L 331.516458 88.971932 
z
" style="fill:#808080;fill-opacity:0.25;stroke:#808080;stroke-linejoin:miter;stroke-opacity:0.25;"/>
   </g>
   <g id="patch_90">
    <path clip-path="url(#pceeab2c05b)" d="M 335.160658 179.424 
L 338.804859 179.424 
L 338.804859 107.537061 
L 335.160658 107.537061 
z
" style="fill:#808080;fill-opacity:0.25;stroke:#808080;stroke-linejoin:miter;stroke-opacity:0.25;"/>
   </g>
   <g id="patch_91">
    <path clip-path="url(#pceeab2c05b)" d="M 338.804859 179.424 
L 342.44906 179.424 
L 342.44906 124.475996 
L 338.804859 124.475996 
z
" style="fill:#808080;fill-opacity:0.25;stroke:#808080;stroke-linejoin:miter;stroke-opacity:0.25;"/>
   </g>
   <g id="patch_92">
    <path clip-path="url(#pceeab2c05b)" d="M 342.44906 179.424 
L 346.09326 179.424 
L 346.09326 139.141959 
L 342.44906 139.141959 
z
" style="fill:#808080;fill-opacity:0.25;stroke:#808080;stroke-linejoin:miter;stroke-opacity:0.25;"/>
   </g>
   <g id="patch_93">
    <path clip-path="url(#pceeab2c05b)" d="M 346.09326 179.424 
L 349.737461 179.424 
L 349.737461 150.823673 
L 346.09326 150.823673 
z
" style="fill:#808080;fill-opacity:0.25;stroke:#808080;stroke-linejoin:miter;stroke-opacity:0.25;"/>
   </g>
   <g id="patch_94">
    <path clip-path="url(#pceeab2c05b)" d="M 349.737461 179.424 
L 353.381661 179.424 
L 353.381661 159.776014 
L 349.737461 159.776014 
z
" style="fill:#808080;fill-opacity:0.25;stroke:#808080;stroke-linejoin:miter;stroke-opacity:0.25;"/>
   </g>
   <g id="patch_95">
    <path clip-path="url(#pceeab2c05b)" d="M 353.381661 179.424 
L 357.025862 179.424 
L 357.025862 166.460145 
L 353.381661 166.460145 
z
" style="fill:#808080;fill-opacity:0.25;stroke:#808080;stroke-linejoin:miter;stroke-opacity:0.25;"/>
   </g>
   <g id="patch_96">
    <path clip-path="url(#pceeab2c05b)" d="M 357.025862 179.424 
L 360.670063 179.424 
L 360.670063 170.894058 
L 357.025862 170.894058 
z
" style="fill:#808080;fill-opacity:0.25;stroke:#808080;stroke-linejoin:miter;stroke-opacity:0.25;"/>
   </g>
   <g id="patch_97">
    <path clip-path="url(#pceeab2c05b)" d="M 360.670063 179.424 
L 364.314263 179.424 
L 364.314263 173.870687 
L 360.670063 173.870687 
z
" style="fill:#808080;fill-opacity:0.25;stroke:#808080;stroke-linejoin:miter;stroke-opacity:0.25;"/>
   </g>
   <g id="patch_98">
    <path clip-path="url(#pceeab2c05b)" d="M 364.314263 179.424 
L 367.958464 179.424 
L 367.958464 175.904863 
L 364.314263 175.904863 
z
" style="fill:#808080;fill-opacity:0.25;stroke:#808080;stroke-linejoin:miter;stroke-opacity:0.25;"/>
   </g>
   <g id="patch_99">
    <path clip-path="url(#pceeab2c05b)" d="M 367.958464 179.424 
L 371.602665 179.424 
L 371.602665 177.126307 
L 367.958464 177.126307 
z
" style="fill:#808080;fill-opacity:0.25;stroke:#808080;stroke-linejoin:miter;stroke-opacity:0.25;"/>
   </g>
   <g id="matplotlib.axis_12"/>
   <g id="patch_100">
    <path d="M 256.810345 179.424 
L 256.810345 24.192 
" style="fill:none;stroke:#000000;stroke-linecap:square;stroke-linejoin:miter;stroke-width:0.8;"/>
   </g>
   <g id="patch_101">
    <path d="M 377.068966 179.424 
L 377.068966 24.192 
" style="fill:none;stroke:#000000;stroke-linecap:square;stroke-linejoin:miter;stroke-width:0.8;"/>
   </g>
   <g id="patch_102">
    <path d="M 256.810345 179.424 
L 377.068966 179.424 
" style="fill:none;stroke:#000000;stroke-linecap:square;stroke-linejoin:miter;stroke-width:0.8;"/>
   </g>
   <g id="patch_103">
    <path d="M 256.810345 24.192 
L 377.068966 24.192 
" style="fill:none;stroke:#000000;stroke-linecap:square;stroke-linejoin:miter;stroke-width:0.8;"/>
   </g>
  </g>
  <g id="axes_8">
   <g id="patch_104">
    <path clip-path="url(#p5b0d0e3f64)" d="M 406.586991 179.424 
L 410.231191 179.424 
L 410.231191 177.162808 
L 406.586991 177.162808 
z
" style="fill:#808080;fill-opacity:0.25;stroke:#808080;stroke-linejoin:miter;stroke-opacity:0.25;"/>
   </g>
   <g id="patch_105">
    <path clip-path="url(#p5b0d0e3f64)" d="M 410.231191 179.424 
L 413.875392 179.424 
L 413.875392 175.819572 
L 410.231191 175.819572 
z
" style="fill:#808080;fill-opacity:0.25;stroke:#808080;stroke-linejoin:miter;stroke-opacity:0.25;"/>
   </g>
   <g id="patch_106">
    <path clip-path="url(#p5b0d0e3f64)" d="M 413.875392 179.424 
L 417.519592 179.424 
L 417.519592 173.826863 
L 413.875392 173.826863 
z
" style="fill:#808080;fill-opacity:0.25;stroke:#808080;stroke-linejoin:miter;stroke-opacity:0.25;"/>
   </g>
   <g id="patch_107">
    <path clip-path="url(#p5b0d0e3f64)" d="M 417.519592 179.424 
L 421.163793 179.424 
L 421.163793 170.930164 
L 417.519592 170.930164 
z
" style="fill:#808080;fill-opacity:0.25;stroke:#808080;stroke-linejoin:miter;stroke-opacity:0.25;"/>
   </g>
   <g id="patch_108">
    <path clip-path="url(#p5b0d0e3f64)" d="M 421.163793 179.424 
L 424.807994 179.424 
L 424.807994 166.820168 
L 421.163793 166.820168 
z
" style="fill:#808080;fill-opacity:0.25;stroke:#808080;stroke-linejoin:miter;stroke-opacity:0.25;"/>
   </g>
   <g id="patch_109">
    <path clip-path="url(#p5b0d0e3f64)" d="M 424.807994 179.424 
L 428.452194 179.424 
L 428.452194 161.101004 
L 424.807994 161.101004 
z
" style="fill:#808080;fill-opacity:0.25;stroke:#808080;stroke-linejoin:miter;stroke-opacity:0.25;"/>
   </g>
   <g id="patch_110">
    <path clip-path="url(#p5b0d0e3f64)" d="M 428.452194 179.424 
L 432.096395 179.424 
L 432.096395 153.402154 
L 428.452194 153.402154 
z
" style="fill:#808080;fill-opacity:0.25;stroke:#808080;stroke-linejoin:miter;stroke-opacity:0.25;"/>
   </g>
   <g id="patch_111">
    <path clip-path="url(#p5b0d0e3f64)" d="M 432.096395 179.424 
L 435.740596 179.424 
L 435.740596 143.147012 
L 432.096395 143.147012 
z
" style="fill:#808080;fill-opacity:0.25;stroke:#808080;stroke-linejoin:miter;stroke-opacity:0.25;"/>
   </g>
   <g id="patch_112">
    <path clip-path="url(#p5b0d0e3f64)" d="M 435.740596 179.424 
L 439.384796 179.424 
L 439.384796 130.07744 
L 435.740596 130.07744 
z
" style="fill:#808080;fill-opacity:0.25;stroke:#808080;stroke-linejoin:miter;stroke-opacity:0.25;"/>
   </g>
   <g id="patch_113">
    <path clip-path="url(#p5b0d0e3f64)" d="M 439.384796 179.424 
L 443.028997 179.424 
L 443.028997 114.062778 
L 439.384796 114.062778 
z
" style="fill:#808080;fill-opacity:0.25;stroke:#808080;stroke-linejoin:miter;stroke-opacity:0.25;"/>
   </g>
   <g id="patch_114">
    <path clip-path="url(#p5b0d0e3f64)" d="M 443.028997 179.424 
L 446.673197 179.424 
L 446.673197 95.435686 
L 443.028997 95.435686 
z
" style="fill:#808080;fill-opacity:0.25;stroke:#808080;stroke-linejoin:miter;stroke-opacity:0.25;"/>
   </g>
   <g id="patch_115">
    <path clip-path="url(#p5b0d0e3f64)" d="M 446.673197 179.424 
L 450.317398 179.424 
L 450.317398 75.36574 
L 446.673197 75.36574 
z
" style="fill:#808080;fill-opacity:0.25;stroke:#808080;stroke-linejoin:miter;stroke-opacity:0.25;"/>
   </g>
   <g id="patch_116">
    <path clip-path="url(#p5b0d0e3f64)" d="M 450.317398 179.424 
L 453.961599 179.424 
L 453.961599 55.96897 
L 450.317398 55.96897 
z
" style="fill:#808080;fill-opacity:0.25;stroke:#808080;stroke-linejoin:miter;stroke-opacity:0.25;"/>
   </g>
   <g id="patch_117">
    <path clip-path="url(#p5b0d0e3f64)" d="M 453.961599 179.424 
L 457.605799 179.424 
L 457.605799 40.325232 
L 453.961599 40.325232 
z
" style="fill:#808080;fill-opacity:0.25;stroke:#808080;stroke-linejoin:miter;stroke-opacity:0.25;"/>
   </g>
   <g id="patch_118">
    <path clip-path="url(#p5b0d0e3f64)" d="M 457.605799 179.424 
L 461.25 179.424 
L 461.25 31.615015 
L 457.605799 31.615015 
z
" style="fill:#808080;fill-opacity:0.25;stroke:#808080;stroke-linejoin:miter;stroke-opacity:0.25;"/>
   </g>
   <g id="patch_119">
    <path clip-path="url(#p5b0d0e3f64)" d="M 461.25 179.424 
L 464.894201 179.424 
L 464.894201 31.584 
L 461.25 31.584 
z
" style="fill:#808080;fill-opacity:0.25;stroke:#808080;stroke-linejoin:miter;stroke-opacity:0.25;"/>
   </g>
   <g id="patch_120">
    <path clip-path="url(#p5b0d0e3f64)" d="M 464.894201 179.424 
L 468.538401 179.424 
L 468.538401 40.367404 
L 464.894201 40.367404 
z
" style="fill:#808080;fill-opacity:0.25;stroke:#808080;stroke-linejoin:miter;stroke-opacity:0.25;"/>
   </g>
   <g id="patch_121">
    <path clip-path="url(#p5b0d0e3f64)" d="M 468.538401 179.424 
L 472.182602 179.424 
L 472.182602 55.972215 
L 468.538401 55.972215 
z
" style="fill:#808080;fill-opacity:0.25;stroke:#808080;stroke-linejoin:miter;stroke-opacity:0.25;"/>
   </g>
   <g id="patch_122">
    <path clip-path="url(#p5b0d0e3f64)" d="M 472.182602 179.424 
L 475.826803 179.424 
L 475.826803 75.394976 
L 472.182602 75.394976 
z
" style="fill:#808080;fill-opacity:0.25;stroke:#808080;stroke-linejoin:miter;stroke-opacity:0.25;"/>
   </g>
   <g id="patch_123">
    <path clip-path="url(#p5b0d0e3f64)" d="M 475.826803 179.424 
L 479.471003 179.424 
L 479.471003 95.723207 
L 475.826803 95.723207 
z
" style="fill:#808080;fill-opacity:0.25;stroke:#808080;stroke-linejoin:miter;stroke-opacity:0.25;"/>
   </g>
   <g id="patch_124">
    <path clip-path="url(#p5b0d0e3f64)" d="M 479.471003 179.424 
L 483.115204 179.424 
L 483.115204 114.706072 
L 479.471003 114.706072 
z
" style="fill:#808080;fill-opacity:0.25;stroke:#808080;stroke-linejoin:miter;stroke-opacity:0.25;"/>
   </g>
   <g id="patch_125">
    <path clip-path="url(#p5b0d0e3f64)" d="M 483.115204 179.424 
L 486.759404 179.424 
L 486.759404 131.119315 
L 483.115204 131.119315 
z
" style="fill:#808080;fill-opacity:0.25;stroke:#808080;stroke-linejoin:miter;stroke-opacity:0.25;"/>
   </g>
   <g id="patch_126">
    <path clip-path="url(#p5b0d0e3f64)" d="M 486.759404 179.424 
L 490.403605 179.424 
L 490.403605 144.42861 
L 486.759404 144.42861 
z
" style="fill:#808080;fill-opacity:0.25;stroke:#808080;stroke-linejoin:miter;stroke-opacity:0.25;"/>
   </g>
   <g id="patch_127">
    <path clip-path="url(#p5b0d0e3f64)" d="M 490.403605 179.424 
L 494.047806 179.424 
L 494.047806 154.768326 
L 490.403605 154.768326 
z
" style="fill:#808080;fill-opacity:0.25;stroke:#808080;stroke-linejoin:miter;stroke-opacity:0.25;"/>
   </g>
   <g id="patch_128">
    <path clip-path="url(#p5b0d0e3f64)" d="M 494.047806 179.424 
L 497.692006 179.424 
L 497.692006 162.505128 
L 494.047806 162.505128 
z
" style="fill:#808080;fill-opacity:0.25;stroke:#808080;stroke-linejoin:miter;stroke-opacity:0.25;"/>
   </g>
   <g id="patch_129">
    <path clip-path="url(#p5b0d0e3f64)" d="M 497.692006 179.424 
L 501.336207 179.424 
L 501.336207 168.089501 
L 497.692006 168.089501 
z
" style="fill:#808080;fill-opacity:0.25;stroke:#808080;stroke-linejoin:miter;stroke-opacity:0.25;"/>
   </g>
   <g id="patch_130">
    <path clip-path="url(#p5b0d0e3f64)" d="M 501.336207 179.424 
L 504.980408 179.424 
L 504.980408 171.997456 
L 501.336207 171.997456 
z
" style="fill:#808080;fill-opacity:0.25;stroke:#808080;stroke-linejoin:miter;stroke-opacity:0.25;"/>
   </g>
   <g id="patch_131">
    <path clip-path="url(#p5b0d0e3f64)" d="M 504.980408 179.424 
L 508.624608 179.424 
L 508.624608 174.656806 
L 504.980408 174.656806 
z
" style="fill:#808080;fill-opacity:0.25;stroke:#808080;stroke-linejoin:miter;stroke-opacity:0.25;"/>
   </g>
   <g id="patch_132">
    <path clip-path="url(#p5b0d0e3f64)" d="M 508.624608 179.424 
L 512.268809 179.424 
L 512.268809 176.432761 
L 508.624608 176.432761 
z
" style="fill:#808080;fill-opacity:0.25;stroke:#808080;stroke-linejoin:miter;stroke-opacity:0.25;"/>
   </g>
   <g id="patch_133">
    <path clip-path="url(#p5b0d0e3f64)" d="M 512.268809 179.424 
L 515.913009 179.424 
L 515.913009 177.576323 
L 512.268809 177.576323 
z
" style="fill:#808080;fill-opacity:0.25;stroke:#808080;stroke-linejoin:miter;stroke-opacity:0.25;"/>
   </g>
   <g id="matplotlib.axis_13"/>
   <g id="patch_134">
    <path d="M 401.12069 179.424 
L 401.12069 24.192 
" style="fill:none;stroke:#000000;stroke-linecap:square;stroke-linejoin:miter;stroke-width:0.8;"/>
   </g>
   <g id="patch_135">
    <path d="M 521.37931 179.424 
L 521.37931 24.192 
" style="fill:none;stroke:#000000;stroke-linecap:square;stroke-linejoin:miter;stroke-width:0.8;"/>
   </g>
   <g id="patch_136">
    <path d="M 401.12069 179.424 
L 521.37931 179.424 
" style="fill:none;stroke:#000000;stroke-linecap:square;stroke-linejoin:miter;stroke-width:0.8;"/>
   </g>
   <g id="patch_137">
    <path d="M 401.12069 24.192 
L 521.37931 24.192 
" style="fill:none;stroke:#000000;stroke-linecap:square;stroke-linejoin:miter;stroke-width:0.8;"/>
   </g>
  </g>
  <g id="axes_9">
   <g id="patch_138">
    <path clip-path="url(#ped001bafff)" d="M 550.897335 179.424 
L 554.541536 179.424 
L 554.541536 177.683992 
L 550.897335 177.683992 
z
" style="fill:#808080;fill-opacity:0.25;stroke:#808080;stroke-linejoin:miter;stroke-opacity:0.25;"/>
   </g>
   <g id="patch_139">
    <path clip-path="url(#ped001bafff)" d="M 554.541536 179.424 
L 558.185737 179.424 
L 558.185737 176.83819 
L 554.541536 176.83819 
z
" style="fill:#808080;fill-opacity:0.25;stroke:#808080;stroke-linejoin:miter;stroke-opacity:0.25;"/>
   </g>
   <g id="patch_140">
    <path clip-path="url(#ped001bafff)" d="M 558.185737 179.424 
L 561.829937 179.424 
L 561.829937 175.631986 
L 558.185737 175.631986 
z
" style="fill:#808080;fill-opacity:0.25;stroke:#808080;stroke-linejoin:miter;stroke-opacity:0.25;"/>
   </g>
   <g id="patch_141">
    <path clip-path="url(#ped001bafff)" d="M 561.829937 179.424 
L 565.474138 179.424 
L 565.474138 173.929403 
L 561.829937 173.929403 
z
" style="fill:#808080;fill-opacity:0.25;stroke:#808080;stroke-linejoin:miter;stroke-opacity:0.25;"/>
   </g>
   <g id="patch_142">
    <path clip-path="url(#ped001bafff)" d="M 565.474138 179.424 
L 569.118339 179.424 
L 569.118339 171.56251 
L 565.474138 171.56251 
z
" style="fill:#808080;fill-opacity:0.25;stroke:#808080;stroke-linejoin:miter;stroke-opacity:0.25;"/>
   </g>
   <g id="patch_143">
    <path clip-path="url(#ped001bafff)" d="M 569.118339 179.424 
L 572.762539 179.424 
L 572.762539 168.267788 
L 569.118339 168.267788 
z
" style="fill:#808080;fill-opacity:0.25;stroke:#808080;stroke-linejoin:miter;stroke-opacity:0.25;"/>
   </g>
   <g id="patch_144">
    <path clip-path="url(#ped001bafff)" d="M 572.762539 179.424 
L 576.40674 179.424 
L 576.40674 163.709851 
L 572.762539 163.709851 
z
" style="fill:#808080;fill-opacity:0.25;stroke:#808080;stroke-linejoin:miter;stroke-opacity:0.25;"/>
   </g>
   <g id="patch_145">
    <path clip-path="url(#ped001bafff)" d="M 576.40674 179.424 
L 580.05094 179.424 
L 580.05094 157.508408 
L 576.40674 157.508408 
z
" style="fill:#808080;fill-opacity:0.25;stroke:#808080;stroke-linejoin:miter;stroke-opacity:0.25;"/>
   </g>
   <g id="patch_146">
    <path clip-path="url(#ped001bafff)" d="M 580.05094 179.424 
L 583.695141 179.424 
L 583.695141 149.131968 
L 580.05094 149.131968 
z
" style="fill:#808080;fill-opacity:0.25;stroke:#808080;stroke-linejoin:miter;stroke-opacity:0.25;"/>
   </g>
   <g id="patch_147">
    <path clip-path="url(#ped001bafff)" d="M 583.695141 179.424 
L 587.339342 179.424 
L 587.339342 138.021938 
L 583.695141 138.021938 
z
" style="fill:#808080;fill-opacity:0.25;stroke:#808080;stroke-linejoin:miter;stroke-opacity:0.25;"/>
   </g>
   <g id="patch_148">
    <path clip-path="url(#ped001bafff)" d="M 587.339342 179.424 
L 590.983542 179.424 
L 590.983542 123.701688 
L 587.339342 123.701688 
z
" style="fill:#808080;fill-opacity:0.25;stroke:#808080;stroke-linejoin:miter;stroke-opacity:0.25;"/>
   </g>
   <g id="patch_149">
    <path clip-path="url(#ped001bafff)" d="M 590.983542 179.424 
L 594.627743 179.424 
L 594.627743 105.963641 
L 590.983542 105.963641 
z
" style="fill:#808080;fill-opacity:0.25;stroke:#808080;stroke-linejoin:miter;stroke-opacity:0.25;"/>
   </g>
   <g id="patch_150">
    <path clip-path="url(#ped001bafff)" d="M 594.627743 179.424 
L 598.271944 179.424 
L 598.271944 85.4488 
L 594.627743 85.4488 
z
" style="fill:#808080;fill-opacity:0.25;stroke:#808080;stroke-linejoin:miter;stroke-opacity:0.25;"/>
   </g>
   <g id="patch_151">
    <path clip-path="url(#ped001bafff)" d="M 598.271944 179.424 
L 601.916144 179.424 
L 601.916144 63.994067 
L 598.271944 63.994067 
z
" style="fill:#808080;fill-opacity:0.25;stroke:#808080;stroke-linejoin:miter;stroke-opacity:0.25;"/>
   </g>
   <g id="patch_152">
    <path clip-path="url(#ped001bafff)" d="M 601.916144 179.424 
L 605.560345 179.424 
L 605.560345 45.053029 
L 601.916144 45.053029 
z
" style="fill:#808080;fill-opacity:0.25;stroke:#808080;stroke-linejoin:miter;stroke-opacity:0.25;"/>
   </g>
   <g id="patch_153">
    <path clip-path="url(#ped001bafff)" d="M 605.560345 179.424 
L 609.204545 179.424 
L 609.204545 33.134699 
L 605.560345 33.134699 
z
" style="fill:#808080;fill-opacity:0.25;stroke:#808080;stroke-linejoin:miter;stroke-opacity:0.25;"/>
   </g>
   <g id="patch_154">
    <path clip-path="url(#ped001bafff)" d="M 609.204545 179.424 
L 612.848746 179.424 
L 612.848746 31.584 
L 609.204545 31.584 
z
" style="fill:#808080;fill-opacity:0.25;stroke:#808080;stroke-linejoin:miter;stroke-opacity:0.25;"/>
   </g>
   <g id="patch_155">
    <path clip-path="url(#ped001bafff)" d="M 612.848746 179.424 
L 616.492947 179.424 
L 616.492947 40.868666 
L 612.848746 40.868666 
z
" style="fill:#808080;fill-opacity:0.25;stroke:#808080;stroke-linejoin:miter;stroke-opacity:0.25;"/>
   </g>
   <g id="patch_156">
    <path clip-path="url(#ped001bafff)" d="M 616.492947 179.424 
L 620.137147 179.424 
L 620.137147 58.396322 
L 616.492947 58.396322 
z
" style="fill:#808080;fill-opacity:0.25;stroke:#808080;stroke-linejoin:miter;stroke-opacity:0.25;"/>
   </g>
   <g id="patch_157">
    <path clip-path="url(#ped001bafff)" d="M 620.137147 179.424 
L 623.781348 179.424 
L 623.781348 80.172442 
L 620.137147 80.172442 
z
" style="fill:#808080;fill-opacity:0.25;stroke:#808080;stroke-linejoin:miter;stroke-opacity:0.25;"/>
   </g>
   <g id="patch_158">
    <path clip-path="url(#ped001bafff)" d="M 623.781348 179.424 
L 627.425549 179.424 
L 627.425549 102.086058 
L 623.781348 102.086058 
z
" style="fill:#808080;fill-opacity:0.25;stroke:#808080;stroke-linejoin:miter;stroke-opacity:0.25;"/>
   </g>
   <g id="patch_159">
    <path clip-path="url(#ped001bafff)" d="M 627.425549 179.424 
L 631.069749 179.424 
L 631.069749 121.732125 
L 627.425549 121.732125 
z
" style="fill:#808080;fill-opacity:0.25;stroke:#808080;stroke-linejoin:miter;stroke-opacity:0.25;"/>
   </g>
   <g id="patch_160">
    <path clip-path="url(#ped001bafff)" d="M 631.069749 179.424 
L 634.71395 179.424 
L 634.71395 137.809885 
L 631.069749 137.809885 
z
" style="fill:#808080;fill-opacity:0.25;stroke:#808080;stroke-linejoin:miter;stroke-opacity:0.25;"/>
   </g>
   <g id="patch_161">
    <path clip-path="url(#ped001bafff)" d="M 634.71395 179.424 
L 638.35815 179.424 
L 638.35815 150.247224 
L 634.71395 150.247224 
z
" style="fill:#808080;fill-opacity:0.25;stroke:#808080;stroke-linejoin:miter;stroke-opacity:0.25;"/>
   </g>
   <g id="patch_162">
    <path clip-path="url(#ped001bafff)" d="M 638.35815 179.424 
L 642.002351 179.424 
L 642.002351 159.401417 
L 638.35815 159.401417 
z
" style="fill:#808080;fill-opacity:0.25;stroke:#808080;stroke-linejoin:miter;stroke-opacity:0.25;"/>
   </g>
   <g id="patch_163">
    <path clip-path="url(#ped001bafff)" d="M 642.002351 179.424 
L 645.646552 179.424 
L 645.646552 165.944236 
L 642.002351 165.944236 
z
" style="fill:#808080;fill-opacity:0.25;stroke:#808080;stroke-linejoin:miter;stroke-opacity:0.25;"/>
   </g>
   <g id="patch_164">
    <path clip-path="url(#ped001bafff)" d="M 645.646552 179.424 
L 649.290752 179.424 
L 649.290752 170.48706 
L 645.646552 170.48706 
z
" style="fill:#808080;fill-opacity:0.25;stroke:#808080;stroke-linejoin:miter;stroke-opacity:0.25;"/>
   </g>
   <g id="patch_165">
    <path clip-path="url(#ped001bafff)" d="M 649.290752 179.424 
L 652.934953 179.424 
L 652.934953 173.582247 
L 649.290752 173.582247 
z
" style="fill:#808080;fill-opacity:0.25;stroke:#808080;stroke-linejoin:miter;stroke-opacity:0.25;"/>
   </g>
   <g id="patch_166">
    <path clip-path="url(#ped001bafff)" d="M 652.934953 179.424 
L 656.579154 179.424 
L 656.579154 175.64317 
L 652.934953 175.64317 
z
" style="fill:#808080;fill-opacity:0.25;stroke:#808080;stroke-linejoin:miter;stroke-opacity:0.25;"/>
   </g>
   <g id="patch_167">
    <path clip-path="url(#ped001bafff)" d="M 656.579154 179.424 
L 660.223354 179.424 
L 660.223354 177.010527 
L 656.579154 177.010527 
z
" style="fill:#808080;fill-opacity:0.25;stroke:#808080;stroke-linejoin:miter;stroke-opacity:0.25;"/>
   </g>
   <g id="matplotlib.axis_14"/>
   <g id="patch_168">
    <path d="M 545.431034 179.424 
L 545.431034 24.192 
" style="fill:none;stroke:#000000;stroke-linecap:square;stroke-linejoin:miter;stroke-width:0.8;"/>
   </g>
   <g id="patch_169">
    <path d="M 665.689655 179.424 
L 665.689655 24.192 
" style="fill:none;stroke:#000000;stroke-linecap:square;stroke-linejoin:miter;stroke-width:0.8;"/>
   </g>
   <g id="patch_170">
    <path d="M 545.431034 179.424 
L 665.689655 179.424 
" style="fill:none;stroke:#000000;stroke-linecap:square;stroke-linejoin:miter;stroke-width:0.8;"/>
   </g>
   <g id="patch_171">
    <path d="M 545.431034 24.192 
L 665.689655 24.192 
" style="fill:none;stroke:#000000;stroke-linecap:square;stroke-linejoin:miter;stroke-width:0.8;"/>
   </g>
  </g>
  <g id="axes_10">
   <g id="patch_172">
    <path clip-path="url(#p2426837ce1)" d="M 695.20768 179.424 
L 698.624118 179.424 
L 698.624118 176.703911 
L 695.20768 176.703911 
z
" style="fill:#808080;fill-opacity:0.25;stroke:#808080;stroke-linejoin:miter;stroke-opacity:0.25;"/>
   </g>
   <g id="patch_173">
    <path clip-path="url(#p2426837ce1)" d="M 698.624118 179.424 
L 702.040556 179.424 
L 702.040556 175.101304 
L 698.624118 175.101304 
z
" style="fill:#808080;fill-opacity:0.25;stroke:#808080;stroke-linejoin:miter;stroke-opacity:0.25;"/>
   </g>
   <g id="patch_174">
    <path clip-path="url(#p2426837ce1)" d="M 702.040556 179.424 
L 705.456995 179.424 
L 705.456995 172.679875 
L 702.040556 172.679875 
z
" style="fill:#808080;fill-opacity:0.25;stroke:#808080;stroke-linejoin:miter;stroke-opacity:0.25;"/>
   </g>
   <g id="patch_175">
    <path clip-path="url(#p2426837ce1)" d="M 705.456995 179.424 
L 708.873433 179.424 
L 708.873433 169.068099 
L 705.456995 169.068099 
z
" style="fill:#808080;fill-opacity:0.25;stroke:#808080;stroke-linejoin:miter;stroke-opacity:0.25;"/>
   </g>
   <g id="patch_176">
    <path clip-path="url(#p2426837ce1)" d="M 708.873433 179.424 
L 712.289871 179.424 
L 712.289871 163.916321 
L 708.873433 163.916321 
z
" style="fill:#808080;fill-opacity:0.25;stroke:#808080;stroke-linejoin:miter;stroke-opacity:0.25;"/>
   </g>
   <g id="patch_177">
    <path clip-path="url(#p2426837ce1)" d="M 712.289871 179.424 
L 715.706309 179.424 
L 715.706309 156.680298 
L 712.289871 156.680298 
z
" style="fill:#808080;fill-opacity:0.25;stroke:#808080;stroke-linejoin:miter;stroke-opacity:0.25;"/>
   </g>
   <g id="patch_178">
    <path clip-path="url(#p2426837ce1)" d="M 715.706309 179.424 
L 719.122747 179.424 
L 719.122747 146.954529 
L 715.706309 146.954529 
z
" style="fill:#808080;fill-opacity:0.25;stroke:#808080;stroke-linejoin:miter;stroke-opacity:0.25;"/>
   </g>
   <g id="patch_179">
    <path clip-path="url(#p2426837ce1)" d="M 719.122747 179.424 
L 722.539185 179.424 
L 722.539185 134.349593 
L 719.122747 134.349593 
z
" style="fill:#808080;fill-opacity:0.25;stroke:#808080;stroke-linejoin:miter;stroke-opacity:0.25;"/>
   </g>
   <g id="patch_180">
    <path clip-path="url(#p2426837ce1)" d="M 722.539185 179.424 
L 725.955623 179.424 
L 725.955623 119.03621 
L 722.539185 119.03621 
z
" style="fill:#808080;fill-opacity:0.25;stroke:#808080;stroke-linejoin:miter;stroke-opacity:0.25;"/>
   </g>
   <g id="patch_181">
    <path clip-path="url(#p2426837ce1)" d="M 725.955623 179.424 
L 729.372061 179.424 
L 729.372061 101.200989 
L 725.955623 101.200989 
z
" style="fill:#808080;fill-opacity:0.25;stroke:#808080;stroke-linejoin:miter;stroke-opacity:0.25;"/>
   </g>
   <g id="patch_182">
    <path clip-path="url(#p2426837ce1)" d="M 729.372061 179.424 
L 732.788499 179.424 
L 732.788499 82.293189 
L 729.372061 82.293189 
z
" style="fill:#808080;fill-opacity:0.25;stroke:#808080;stroke-linejoin:miter;stroke-opacity:0.25;"/>
   </g>
   <g id="patch_183">
    <path clip-path="url(#p2426837ce1)" d="M 732.788499 179.424 
L 736.204937 179.424 
L 736.204937 63.727947 
L 732.788499 63.727947 
z
" style="fill:#808080;fill-opacity:0.25;stroke:#808080;stroke-linejoin:miter;stroke-opacity:0.25;"/>
   </g>
   <g id="patch_184">
    <path clip-path="url(#p2426837ce1)" d="M 736.204937 179.424 
L 739.621375 179.424 
L 739.621375 47.724381 
L 736.204937 47.724381 
z
" style="fill:#808080;fill-opacity:0.25;stroke:#808080;stroke-linejoin:miter;stroke-opacity:0.25;"/>
   </g>
   <g id="patch_185">
    <path clip-path="url(#p2426837ce1)" d="M 739.621375 179.424 
L 743.037813 179.424 
L 743.037813 36.574436 
L 739.621375 36.574436 
z
" style="fill:#808080;fill-opacity:0.25;stroke:#808080;stroke-linejoin:miter;stroke-opacity:0.25;"/>
   </g>
   <g id="patch_186">
    <path clip-path="url(#p2426837ce1)" d="M 743.037813 179.424 
L 746.454252 179.424 
L 746.454252 31.584 
L 743.037813 31.584 
z
" style="fill:#808080;fill-opacity:0.25;stroke:#808080;stroke-linejoin:miter;stroke-opacity:0.25;"/>
   </g>
   <g id="patch_187">
    <path clip-path="url(#p2426837ce1)" d="M 746.454252 179.424 
L 749.87069 179.424 
L 749.87069 33.586018 
L 746.454252 33.586018 
z
" style="fill:#808080;fill-opacity:0.25;stroke:#808080;stroke-linejoin:miter;stroke-opacity:0.25;"/>
   </g>
   <g id="patch_188">
    <path clip-path="url(#p2426837ce1)" d="M 749.87069 179.424 
L 753.287128 179.424 
L 753.287128 41.83764 
L 749.87069 41.83764 
z
" style="fill:#808080;fill-opacity:0.25;stroke:#808080;stroke-linejoin:miter;stroke-opacity:0.25;"/>
   </g>
   <g id="patch_189">
    <path clip-path="url(#p2426837ce1)" d="M 753.287128 179.424 
L 756.703566 179.424 
L 756.703566 54.950664 
L 753.287128 54.950664 
z
" style="fill:#808080;fill-opacity:0.25;stroke:#808080;stroke-linejoin:miter;stroke-opacity:0.25;"/>
   </g>
   <g id="patch_190">
    <path clip-path="url(#p2426837ce1)" d="M 756.703566 179.424 
L 760.120004 179.424 
L 760.120004 70.861079 
L 756.703566 70.861079 
z
" style="fill:#808080;fill-opacity:0.25;stroke:#808080;stroke-linejoin:miter;stroke-opacity:0.25;"/>
   </g>
   <g id="patch_191">
    <path clip-path="url(#p2426837ce1)" d="M 760.120004 179.424 
L 763.536442 179.424 
L 763.536442 87.900334 
L 760.120004 87.900334 
z
" style="fill:#808080;fill-opacity:0.25;stroke:#808080;stroke-linejoin:miter;stroke-opacity:0.25;"/>
   </g>
   <g id="patch_192">
    <path clip-path="url(#p2426837ce1)" d="M 763.536442 179.424 
L 766.95288 179.424 
L 766.95288 104.475795 
L 763.536442 104.475795 
z
" style="fill:#808080;fill-opacity:0.25;stroke:#808080;stroke-linejoin:miter;stroke-opacity:0.25;"/>
   </g>
   <g id="patch_193">
    <path clip-path="url(#p2426837ce1)" d="M 766.95288 179.424 
L 770.369318 179.424 
L 770.369318 119.509905 
L 766.95288 119.509905 
z
" style="fill:#808080;fill-opacity:0.25;stroke:#808080;stroke-linejoin:miter;stroke-opacity:0.25;"/>
   </g>
   <g id="patch_194">
    <path clip-path="url(#p2426837ce1)" d="M 770.369318 179.424 
L 773.785756 179.424 
L 773.785756 132.619012 
L 770.369318 132.619012 
z
" style="fill:#808080;fill-opacity:0.25;stroke:#808080;stroke-linejoin:miter;stroke-opacity:0.25;"/>
   </g>
   <g id="patch_195">
    <path clip-path="url(#p2426837ce1)" d="M 773.785756 179.424 
L 777.202194 179.424 
L 777.202194 143.507456 
L 773.785756 143.507456 
z
" style="fill:#808080;fill-opacity:0.25;stroke:#808080;stroke-linejoin:miter;stroke-opacity:0.25;"/>
   </g>
   <g id="patch_196">
    <path clip-path="url(#p2426837ce1)" d="M 777.202194 179.424 
L 780.618632 179.424 
L 780.618632 152.296401 
L 777.202194 152.296401 
z
" style="fill:#808080;fill-opacity:0.25;stroke:#808080;stroke-linejoin:miter;stroke-opacity:0.25;"/>
   </g>
   <g id="patch_197">
    <path clip-path="url(#p2426837ce1)" d="M 780.618632 179.424 
L 784.035071 179.424 
L 784.035071 159.292251 
L 780.618632 159.292251 
z
" style="fill:#808080;fill-opacity:0.25;stroke:#808080;stroke-linejoin:miter;stroke-opacity:0.25;"/>
   </g>
   <g id="patch_198">
    <path clip-path="url(#p2426837ce1)" d="M 784.035071 179.424 
L 787.451509 179.424 
L 787.451509 164.684238 
L 784.035071 164.684238 
z
" style="fill:#808080;fill-opacity:0.25;stroke:#808080;stroke-linejoin:miter;stroke-opacity:0.25;"/>
   </g>
   <g id="patch_199">
    <path clip-path="url(#p2426837ce1)" d="M 787.451509 179.424 
L 790.867947 179.424 
L 790.867947 168.793481 
L 787.451509 168.793481 
z
" style="fill:#808080;fill-opacity:0.25;stroke:#808080;stroke-linejoin:miter;stroke-opacity:0.25;"/>
   </g>
   <g id="patch_200">
    <path clip-path="url(#p2426837ce1)" d="M 790.867947 179.424 
L 794.284385 179.424 
L 794.284385 171.872948 
L 790.867947 171.872948 
z
" style="fill:#808080;fill-opacity:0.25;stroke:#808080;stroke-linejoin:miter;stroke-opacity:0.25;"/>
   </g>
   <g id="patch_201">
    <path clip-path="url(#p2426837ce1)" d="M 794.284385 179.424 
L 797.700823 179.424 
L 797.700823 174.125272 
L 794.284385 174.125272 
z
" style="fill:#808080;fill-opacity:0.25;stroke:#808080;stroke-linejoin:miter;stroke-opacity:0.25;"/>
   </g>
   <g id="patch_202">
    <path clip-path="url(#p2426837ce1)" d="M 797.700823 179.424 
L 801.117261 179.424 
L 801.117261 175.762935 
L 797.700823 175.762935 
z
" style="fill:#808080;fill-opacity:0.25;stroke:#808080;stroke-linejoin:miter;stroke-opacity:0.25;"/>
   </g>
   <g id="patch_203">
    <path clip-path="url(#p2426837ce1)" d="M 801.117261 179.424 
L 804.533699 179.424 
L 804.533699 176.921657 
L 801.117261 176.921657 
z
" style="fill:#808080;fill-opacity:0.25;stroke:#808080;stroke-linejoin:miter;stroke-opacity:0.25;"/>
   </g>
   <g id="matplotlib.axis_15"/>
   <g id="patch_204">
    <path d="M 689.741379 179.424 
L 689.741379 24.192 
" style="fill:none;stroke:#000000;stroke-linecap:square;stroke-linejoin:miter;stroke-width:0.8;"/>
   </g>
   <g id="patch_205">
    <path d="M 810 179.424 
L 810 24.192 
" style="fill:none;stroke:#000000;stroke-linecap:square;stroke-linejoin:miter;stroke-width:0.8;"/>
   </g>
   <g id="patch_206">
    <path d="M 689.741379 179.424 
L 810 179.424 
" style="fill:none;stroke:#000000;stroke-linecap:square;stroke-linejoin:miter;stroke-width:0.8;"/>
   </g>
   <g id="patch_207">
    <path d="M 689.741379 24.192 
L 810 24.192 
" style="fill:none;stroke:#000000;stroke-linecap:square;stroke-linejoin:miter;stroke-width:0.8;"/>
   </g>
  </g>
  <g id="text_45">
   <!-- vgg8 on cifar100 (bn) -->
   <g transform="translate(384.85125 13.150125)scale(0.12 -0.12)">
    <defs>
     <path d="M 2.984375 54.6875 
L 12.5 54.6875 
L 29.59375 8.796875 
L 46.6875 54.6875 
L 56.203125 54.6875 
L 35.6875 0 
L 23.484375 0 
z
" id="DejaVuSans-118"/>
     <path d="M 45.40625 27.984375 
Q 45.40625 37.75 41.375 43.109375 
Q 37.359375 48.484375 30.078125 48.484375 
Q 22.859375 48.484375 18.828125 43.109375 
Q 14.796875 37.75 14.796875 27.984375 
Q 14.796875 18.265625 18.828125 12.890625 
Q 22.859375 7.515625 30.078125 7.515625 
Q 37.359375 7.515625 41.375 12.890625 
Q 45.40625 18.265625 45.40625 27.984375 
z
M 54.390625 6.78125 
Q 54.390625 -7.171875 48.1875 -13.984375 
Q 42 -20.796875 29.203125 -20.796875 
Q 24.46875 -20.796875 20.265625 -20.09375 
Q 16.0625 -19.390625 12.109375 -17.921875 
L 12.109375 -9.1875 
Q 16.0625 -11.328125 19.921875 -12.34375 
Q 23.78125 -13.375 27.78125 -13.375 
Q 36.625 -13.375 41.015625 -8.765625 
Q 45.40625 -4.15625 45.40625 5.171875 
L 45.40625 9.625 
Q 42.625 4.78125 38.28125 2.390625 
Q 33.9375 0 27.875 0 
Q 17.828125 0 11.671875 7.65625 
Q 5.515625 15.328125 5.515625 27.984375 
Q 5.515625 40.671875 11.671875 48.328125 
Q 17.828125 56 27.875 56 
Q 33.9375 56 38.28125 53.609375 
Q 42.625 51.21875 45.40625 46.390625 
L 45.40625 54.6875 
L 54.390625 54.6875 
z
" id="DejaVuSans-103"/>
     <path id="DejaVuSans-32"/>
     <path d="M 30.609375 48.390625 
Q 23.390625 48.390625 19.1875 42.75 
Q 14.984375 37.109375 14.984375 27.296875 
Q 14.984375 17.484375 19.15625 11.84375 
Q 23.34375 6.203125 30.609375 6.203125 
Q 37.796875 6.203125 41.984375 11.859375 
Q 46.1875 17.53125 46.1875 27.296875 
Q 46.1875 37.015625 41.984375 42.703125 
Q 37.796875 48.390625 30.609375 48.390625 
z
M 30.609375 56 
Q 42.328125 56 49.015625 48.375 
Q 55.71875 40.765625 55.71875 27.296875 
Q 55.71875 13.875 49.015625 6.21875 
Q 42.328125 -1.421875 30.609375 -1.421875 
Q 18.84375 -1.421875 12.171875 6.21875 
Q 5.515625 13.875 5.515625 27.296875 
Q 5.515625 40.765625 12.171875 48.375 
Q 18.84375 56 30.609375 56 
z
" id="DejaVuSans-111"/>
     <path d="M 54.890625 33.015625 
L 54.890625 0 
L 45.90625 0 
L 45.90625 32.71875 
Q 45.90625 40.484375 42.875 44.328125 
Q 39.84375 48.1875 33.796875 48.1875 
Q 26.515625 48.1875 22.3125 43.546875 
Q 18.109375 38.921875 18.109375 30.90625 
L 18.109375 0 
L 9.078125 0 
L 9.078125 54.6875 
L 18.109375 54.6875 
L 18.109375 46.1875 
Q 21.34375 51.125 25.703125 53.5625 
Q 30.078125 56 35.796875 56 
Q 45.21875 56 50.046875 50.171875 
Q 54.890625 44.34375 54.890625 33.015625 
z
" id="DejaVuSans-110"/>
     <path d="M 48.78125 52.59375 
L 48.78125 44.1875 
Q 44.96875 46.296875 41.140625 47.34375 
Q 37.3125 48.390625 33.40625 48.390625 
Q 24.65625 48.390625 19.8125 42.84375 
Q 14.984375 37.3125 14.984375 27.296875 
Q 14.984375 17.28125 19.8125 11.734375 
Q 24.65625 6.203125 33.40625 6.203125 
Q 37.3125 6.203125 41.140625 7.25 
Q 44.96875 8.296875 48.78125 10.40625 
L 48.78125 2.09375 
Q 45.015625 0.34375 40.984375 -0.53125 
Q 36.96875 -1.421875 32.421875 -1.421875 
Q 20.0625 -1.421875 12.78125 6.34375 
Q 5.515625 14.109375 5.515625 27.296875 
Q 5.515625 40.671875 12.859375 48.328125 
Q 20.21875 56 33.015625 56 
Q 37.15625 56 41.109375 55.140625 
Q 45.0625 54.296875 48.78125 52.59375 
z
" id="DejaVuSans-99"/>
     <path d="M 9.421875 54.6875 
L 18.40625 54.6875 
L 18.40625 0 
L 9.421875 0 
z
M 9.421875 75.984375 
L 18.40625 75.984375 
L 18.40625 64.59375 
L 9.421875 64.59375 
z
" id="DejaVuSans-105"/>
     <path d="M 37.109375 75.984375 
L 37.109375 68.5 
L 28.515625 68.5 
Q 23.6875 68.5 21.796875 66.546875 
Q 19.921875 64.59375 19.921875 59.515625 
L 19.921875 54.6875 
L 34.71875 54.6875 
L 34.71875 47.703125 
L 19.921875 47.703125 
L 19.921875 0 
L 10.890625 0 
L 10.890625 47.703125 
L 2.296875 47.703125 
L 2.296875 54.6875 
L 10.890625 54.6875 
L 10.890625 58.5 
Q 10.890625 67.625 15.140625 71.796875 
Q 19.390625 75.984375 28.609375 75.984375 
z
" id="DejaVuSans-102"/>
     <path d="M 34.28125 27.484375 
Q 23.390625 27.484375 19.1875 25 
Q 14.984375 22.515625 14.984375 16.5 
Q 14.984375 11.71875 18.140625 8.90625 
Q 21.296875 6.109375 26.703125 6.109375 
Q 34.1875 6.109375 38.703125 11.40625 
Q 43.21875 16.703125 43.21875 25.484375 
L 43.21875 27.484375 
z
M 52.203125 31.203125 
L 52.203125 0 
L 43.21875 0 
L 43.21875 8.296875 
Q 40.140625 3.328125 35.546875 0.953125 
Q 30.953125 -1.421875 24.3125 -1.421875 
Q 15.921875 -1.421875 10.953125 3.296875 
Q 6 8.015625 6 15.921875 
Q 6 25.140625 12.171875 29.828125 
Q 18.359375 34.515625 30.609375 34.515625 
L 43.21875 34.515625 
L 43.21875 35.40625 
Q 43.21875 41.609375 39.140625 45 
Q 35.0625 48.390625 27.6875 48.390625 
Q 23 48.390625 18.546875 47.265625 
Q 14.109375 46.140625 10.015625 43.890625 
L 10.015625 52.203125 
Q 14.9375 54.109375 19.578125 55.046875 
Q 24.21875 56 28.609375 56 
Q 40.484375 56 46.34375 49.84375 
Q 52.203125 43.703125 52.203125 31.203125 
z
" id="DejaVuSans-97"/>
     <path d="M 41.109375 46.296875 
Q 39.59375 47.171875 37.8125 47.578125 
Q 36.03125 48 33.890625 48 
Q 26.265625 48 22.1875 43.046875 
Q 18.109375 38.09375 18.109375 28.8125 
L 18.109375 0 
L 9.078125 0 
L 9.078125 54.6875 
L 18.109375 54.6875 
L 18.109375 46.1875 
Q 20.953125 51.171875 25.484375 53.578125 
Q 30.03125 56 36.53125 56 
Q 37.453125 56 38.578125 55.875 
Q 39.703125 55.765625 41.0625 55.515625 
z
" id="DejaVuSans-114"/>
     <path d="M 31 75.875 
Q 24.46875 64.65625 21.28125 53.65625 
Q 18.109375 42.671875 18.109375 31.390625 
Q 18.109375 20.125 21.3125 9.0625 
Q 24.515625 -2 31 -13.1875 
L 23.1875 -13.1875 
Q 15.875 -1.703125 12.234375 9.375 
Q 8.59375 20.453125 8.59375 31.390625 
Q 8.59375 42.28125 12.203125 53.3125 
Q 15.828125 64.359375 23.1875 75.875 
z
" id="DejaVuSans-40"/>
     <path d="M 48.6875 27.296875 
Q 48.6875 37.203125 44.609375 42.84375 
Q 40.53125 48.484375 33.40625 48.484375 
Q 26.265625 48.484375 22.1875 42.84375 
Q 18.109375 37.203125 18.109375 27.296875 
Q 18.109375 17.390625 22.1875 11.75 
Q 26.265625 6.109375 33.40625 6.109375 
Q 40.53125 6.109375 44.609375 11.75 
Q 48.6875 17.390625 48.6875 27.296875 
z
M 18.109375 46.390625 
Q 20.953125 51.265625 25.265625 53.625 
Q 29.59375 56 35.59375 56 
Q 45.5625 56 51.78125 48.09375 
Q 58.015625 40.1875 58.015625 27.296875 
Q 58.015625 14.40625 51.78125 6.484375 
Q 45.5625 -1.421875 35.59375 -1.421875 
Q 29.59375 -1.421875 25.265625 0.953125 
Q 20.953125 3.328125 18.109375 8.203125 
L 18.109375 0 
L 9.078125 0 
L 9.078125 75.984375 
L 18.109375 75.984375 
z
" id="DejaVuSans-98"/>
     <path d="M 8.015625 75.875 
L 15.828125 75.875 
Q 23.140625 64.359375 26.78125 53.3125 
Q 30.421875 42.28125 30.421875 31.390625 
Q 30.421875 20.453125 26.78125 9.375 
Q 23.140625 -1.703125 15.828125 -13.1875 
L 8.015625 -13.1875 
Q 14.5 -2 17.703125 9.0625 
Q 20.90625 20.125 20.90625 31.390625 
Q 20.90625 42.671875 17.703125 53.65625 
Q 14.5 64.65625 8.015625 75.875 
z
" id="DejaVuSans-41"/>
    </defs>
    <use xlink:href="#DejaVuSans-118"/>
    <use x="59.179688" xlink:href="#DejaVuSans-103"/>
    <use x="122.65625" xlink:href="#DejaVuSans-103"/>
    <use x="186.132812" xlink:href="#DejaVuSans-56"/>
    <use x="249.755859" xlink:href="#DejaVuSans-32"/>
    <use x="281.542969" xlink:href="#DejaVuSans-111"/>
    <use x="342.724609" xlink:href="#DejaVuSans-110"/>
    <use x="406.103516" xlink:href="#DejaVuSans-32"/>
    <use x="437.890625" xlink:href="#DejaVuSans-99"/>
    <use x="492.871094" xlink:href="#DejaVuSans-105"/>
    <use x="520.654297" xlink:href="#DejaVuSans-102"/>
    <use x="555.859375" xlink:href="#DejaVuSans-97"/>
    <use x="617.138672" xlink:href="#DejaVuSans-114"/>
    <use x="658.251953" xlink:href="#DejaVuSans-49"/>
    <use x="721.875" xlink:href="#DejaVuSans-48"/>
    <use x="785.498047" xlink:href="#DejaVuSans-48"/>
    <use x="849.121094" xlink:href="#DejaVuSans-32"/>
    <use x="880.908203" xlink:href="#DejaVuSans-40"/>
    <use x="919.921875" xlink:href="#DejaVuSans-98"/>
    <use x="983.398438" xlink:href="#DejaVuSans-110"/>
    <use x="1046.777344" xlink:href="#DejaVuSans-41"/>
   </g>
  </g>
 </g>
 <defs>
  <clipPath id="p4061b1f36b">
   <rect height="155.232" width="120.258621" x="112.5" y="24.192"/>
  </clipPath>
  <clipPath id="pceeab2c05b">
   <rect height="155.232" width="120.258621" x="256.810345" y="24.192"/>
  </clipPath>
  <clipPath id="p5b0d0e3f64">
   <rect height="155.232" width="120.258621" x="401.12069" y="24.192"/>
  </clipPath>
  <clipPath id="ped001bafff">
   <rect height="155.232" width="120.258621" x="545.431034" y="24.192"/>
  </clipPath>
  <clipPath id="p2426837ce1">
   <rect height="155.232" width="120.258621" x="689.741379" y="24.192"/>
  </clipPath>
 </defs>
</svg>
